# Generated by tools.modeling.mesh
o column_concrete-round-baker-a
# AssetKitId=column:concrete-round-baker-a
# Status=dimension-prototype
v 0.320000 0.000000 -1.900000
v 0.277128 0.160000 -1.900000
v 0.160000 0.277128 -1.900000
v 0.000000 0.320000 -1.900000
v -0.160000 0.277128 -1.900000
v -0.277128 0.160000 -1.900000
v -0.320000 0.000000 -1.900000
v -0.277128 -0.160000 -1.900000
v -0.160000 -0.277128 -1.900000
v -0.000000 -0.320000 -1.900000
v 0.160000 -0.277128 -1.900000
v 0.277128 -0.160000 -1.900000
v 0.320000 0.000000 1.900000
v 0.277128 0.160000 1.900000
v 0.160000 0.277128 1.900000
v 0.000000 0.320000 1.900000
v -0.160000 0.277128 1.900000
v -0.277128 0.160000 1.900000
v -0.320000 0.000000 1.900000
v -0.277128 -0.160000 1.900000
v -0.160000 -0.277128 1.900000
v -0.000000 -0.320000 1.900000
v 0.160000 -0.277128 1.900000
v 0.277128 -0.160000 1.900000
f 1 2 14 13
f 2 3 15 14
f 3 4 16 15
f 4 5 17 16
f 5 6 18 17
f 6 7 19 18
f 7 8 20 19
f 8 9 21 20
f 9 10 22 21
f 10 11 23 22
f 11 12 24 23
f 12 1 13 24
f 12 11 10 9 8 7 6 5 4 3 2 1
f 13 14 15 16 17 18 19 20 21 22 23 24
