# Generated by tools.modeling.assembly
# featureId=uplb:building:dl-umali-hall
# version=dl-umali.v0.1-reference-production
# identityStatus=reviewed-candidate
# sourceFeatureId=candidate:osm:way/33541381
o uplb_building_dl-umali-hall
g body-source-footprint
# materialClass=concrete-painted
# confidence=source-supported-footprint/provisional-height
# evidenceIds=source:legacy:uplb-virtual-campus-2014,source:image:commons-dl-umali-2017,source:reference:arcgis-uplb-memoirs
# notes=Footprint comes from the pinned project candidate snapshot. Production ID is not a canonical promotion.
v 25.862316 -19.816967 0.000000
v 23.033360 -14.108341 0.000000
v 23.033360 -14.108341 9.000000
v 25.862316 -19.816967 9.000000
v 0.746497 32.896948 0.000000
v 0.746497 32.896948 9.000000
v -25.466714 21.498026 0.000000
v -25.466714 21.498026 9.000000
v -1.285054 -33.399747 0.000000
v -1.285054 -33.399747 9.000000
v 14.071381 -25.714440 0.000000
v 14.071381 -25.714440 9.000000
f 1 2 3 4
f 2 5 6 3
f 5 7 8 6
f 7 9 10 8
f 9 11 12 10
f 11 1 4 12
f 7 9 11
f 12 10 8
f 2 5 7
f 8 6 3
f 11 1 2
f 3 4 12
f 2 7 11
f 12 8 3
g front-glass-b01
# materialClass=painted-metal-glass
# confidence=medium-visual/provisional-edge
# evidenceIds=source:legacy:uplb-virtual-campus-2014,source:image:commons-dl-umali-2017,source:reference:arcgis-uplb-memoirs
# notes=Visual/source-informed glass-panel proxy; exact grid and entrance placement remain unresolved.
v -22.990883 15.802916 1.300000
v -20.065869 9.162481 1.300000
v -20.175687 9.114108 1.300000
v -23.100701 15.754542 1.300000
v -22.990883 15.802916 7.700000
v -20.065869 9.162481 7.700000
v -20.175687 9.114108 7.700000
v -23.100701 15.754542 7.700000
f 13 14 15 16
f 17 20 19 18
f 13 17 18 14
f 14 18 19 15
f 15 19 20 16
f 17 13 16 20
g front-glass-b02
# materialClass=painted-metal-glass
# confidence=medium-visual/provisional-edge
# evidenceIds=source:legacy:uplb-virtual-campus-2014,source:image:commons-dl-umali-2017,source:reference:arcgis-uplb-memoirs
# notes=Visual/source-informed glass-panel proxy; exact grid and entrance placement remain unresolved.
v -18.928364 6.580090 1.300000
v -16.003350 -0.060345 1.300000
v -16.113168 -0.108718 1.300000
v -19.038182 6.531716 1.300000
v -18.928364 6.580090 7.700000
v -16.003350 -0.060345 7.700000
v -16.113168 -0.108718 7.700000
v -19.038182 6.531716 7.700000
f 21 22 23 24
f 25 28 27 26
f 21 25 26 22
f 22 26 27 23
f 23 27 28 24
f 25 21 24 28
g front-glass-b03
# materialClass=painted-metal-glass
# confidence=medium-visual/provisional-edge
# evidenceIds=source:legacy:uplb-virtual-campus-2014,source:image:commons-dl-umali-2017,source:reference:arcgis-uplb-memoirs
# notes=Visual/source-informed glass-panel proxy; exact grid and entrance placement remain unresolved.
v -14.865845 -2.642736 1.300000
v -11.940831 -9.283171 1.300000
v -12.050650 -9.331544 1.300000
v -14.975663 -2.691110 1.300000
v -14.865845 -2.642736 7.700000
v -11.940831 -9.283171 7.700000
v -12.050650 -9.331544 7.700000
v -14.975663 -2.691110 7.700000
f 29 30 31 32
f 33 36 35 34
f 29 33 34 30
f 30 34 35 31
f 31 35 36 32
f 33 29 32 36
g front-glass-b04
# materialClass=painted-metal-glass
# confidence=medium-visual/provisional-edge
# evidenceIds=source:legacy:uplb-virtual-campus-2014,source:image:commons-dl-umali-2017,source:reference:arcgis-uplb-memoirs
# notes=Visual/source-informed glass-panel proxy; exact grid and entrance placement remain unresolved.
v -10.803326 -11.865562 1.300000
v -7.878313 -18.505997 1.300000
v -7.988131 -18.554370 1.300000
v -10.913144 -11.913936 1.300000
v -10.803326 -11.865562 7.700000
v -7.878313 -18.505997 7.700000
v -7.988131 -18.554370 7.700000
v -10.913144 -11.913936 7.700000
f 37 38 39 40
f 41 44 43 42
f 37 41 42 38
f 38 42 43 39
f 39 43 44 40
f 41 37 40 44
g front-glass-b05
# materialClass=painted-metal-glass
# confidence=medium-visual/provisional-edge
# evidenceIds=source:legacy:uplb-virtual-campus-2014,source:image:commons-dl-umali-2017,source:reference:arcgis-uplb-memoirs
# notes=Visual/source-informed glass-panel proxy; exact grid and entrance placement remain unresolved.
v -6.740807 -21.088388 1.300000
v -3.815794 -27.728823 1.300000
v -3.925612 -27.777196 1.300000
v -6.850625 -21.136761 1.300000
v -6.740807 -21.088388 7.700000
v -3.815794 -27.728823 7.700000
v -3.925612 -27.777196 7.700000
v -6.850625 -21.136761 7.700000
f 45 46 47 48
f 49 52 51 50
f 45 49 50 46
f 46 50 51 47
f 47 51 52 48
f 49 45 48 52
g front-support-01
# materialClass=concrete-painted
# confidence=medium-visual/provisional-edge
# evidenceIds=source:legacy:uplb-virtual-campus-2014,source:image:commons-dl-umali-2017,source:reference:arcgis-uplb-memoirs
# notes=Modernist frame proxy; placement follows deterministic provisional facade edge.
v -23.615004 17.299193 0.175000
v -23.445697 16.914829 0.175000
v -23.632388 16.832594 0.175000
v -23.801695 17.216958 0.175000
v -23.615004 17.299193 8.825000
v -23.445697 16.914829 8.825000
v -23.632388 16.832594 8.825000
v -23.801695 17.216958 8.825000
f 53 54 55 56
f 57 60 59 58
f 53 57 58 54
f 54 58 59 55
f 55 59 60 56
f 57 53 56 60
g front-support-02
# materialClass=concrete-painted
# confidence=medium-visual/provisional-edge
# evidenceIds=source:legacy:uplb-virtual-campus-2014,source:image:commons-dl-umali-2017,source:reference:arcgis-uplb-memoirs
# notes=Modernist frame proxy; placement follows deterministic provisional facade edge.
v -19.552485 8.076367 0.175000
v -19.383178 7.692003 0.175000
v -19.569869 7.609768 0.175000
v -19.739176 7.994132 0.175000
v -19.552485 8.076367 8.825000
v -19.383178 7.692003 8.825000
v -19.569869 7.609768 8.825000
v -19.739176 7.994132 8.825000
f 61 62 63 64
f 65 68 67 66
f 61 65 66 62
f 62 66 67 63
f 63 67 68 64
f 65 61 64 68
g front-support-03
# materialClass=concrete-painted
# confidence=medium-visual/provisional-edge
# evidenceIds=source:legacy:uplb-virtual-campus-2014,source:image:commons-dl-umali-2017,source:reference:arcgis-uplb-memoirs
# notes=Modernist frame proxy; placement follows deterministic provisional facade edge.
v -15.489966 -1.146459 0.175000
v -15.320660 -1.530823 0.175000
v -15.507350 -1.613057 0.175000
v -15.676657 -1.228694 0.175000
v -15.489966 -1.146459 8.825000
v -15.320660 -1.530823 8.825000
v -15.507350 -1.613057 8.825000
v -15.676657 -1.228694 8.825000
f 69 70 71 72
f 73 76 75 74
f 69 73 74 70
f 70 74 75 71
f 71 75 76 72
f 73 69 72 76
g front-support-04
# materialClass=concrete-painted
# confidence=medium-visual/provisional-edge
# evidenceIds=source:legacy:uplb-virtual-campus-2014,source:image:commons-dl-umali-2017,source:reference:arcgis-uplb-memoirs
# notes=Modernist frame proxy; placement follows deterministic provisional facade edge.
v -11.427447 -10.369285 0.175000
v -11.258141 -10.753649 0.175000
v -11.444832 -10.835883 0.175000
v -11.614138 -10.451520 0.175000
v -11.427447 -10.369285 8.825000
v -11.258141 -10.753649 8.825000
v -11.444832 -10.835883 8.825000
v -11.614138 -10.451520 8.825000
f 77 78 79 80
f 81 84 83 82
f 77 81 82 78
f 78 82 83 79
f 79 83 84 80
f 81 77 80 84
g front-support-05
# materialClass=concrete-painted
# confidence=medium-visual/provisional-edge
# evidenceIds=source:legacy:uplb-virtual-campus-2014,source:image:commons-dl-umali-2017,source:reference:arcgis-uplb-memoirs
# notes=Modernist frame proxy; placement follows deterministic provisional facade edge.
v -7.364928 -19.592111 0.175000
v -7.195622 -19.976475 0.175000
v -7.382313 -20.058709 0.175000
v -7.551619 -19.674346 0.175000
v -7.364928 -19.592111 8.825000
v -7.195622 -19.976475 8.825000
v -7.382313 -20.058709 8.825000
v -7.551619 -19.674346 8.825000
f 85 86 87 88
f 89 92 91 90
f 85 89 90 86
f 86 90 91 87
f 87 91 92 88
f 89 85 88 92
g front-support-06
# materialClass=concrete-painted
# confidence=medium-visual/provisional-edge
# evidenceIds=source:legacy:uplb-virtual-campus-2014,source:image:commons-dl-umali-2017,source:reference:arcgis-uplb-memoirs
# notes=Modernist frame proxy; placement follows deterministic provisional facade edge.
v -3.302409 -28.814937 0.175000
v -3.133103 -29.199301 0.175000
v -3.319794 -29.281535 0.175000
v -3.489100 -28.897172 0.175000
v -3.302409 -28.814937 8.825000
v -3.133103 -29.199301 8.825000
v -3.319794 -29.281535 8.825000
v -3.489100 -28.897172 8.825000
f 93 94 95 96
f 97 100 99 98
f 93 97 98 94
f 94 98 99 95
f 95 99 100 96
f 97 93 96 100
