# Generated by tools.modeling.assembly
# featureId=uplb:building:physical-sciences
# version=physical-sciences.v0.1-reference-production
# identityStatus=proposed-candidate
# sourceFeatureId=candidate:osm:way/44076412
o uplb_building_physical-sciences
g body-source-footprint
# materialClass=concrete-weathered
# confidence=source-supported-footprint/medium-height
# evidenceIds=source:scan:sketchfab-physci-2025,source:legacy:uplb-virtual-campus-2014,source:index:commons-uplb-buildings
# notes=Footprint comes from the pinned project candidate snapshot. Production ID is not a canonical promotion.
v -45.803263 -2.466429 0.000000
v -8.708651 14.505104 0.000000
v -8.708651 14.505104 10.800000
v -45.803263 -2.466429 10.800000
v -12.735129 23.210224 0.000000
v -12.735129 23.210224 10.800000
v -30.183024 15.916737 0.000000
v -30.183024 15.916737 10.800000
v -35.957168 26.239399 0.000000
v -35.957168 26.239399 10.800000
v -18.601371 34.208531 0.000000
v -18.601371 34.208531 10.800000
v -18.909214 34.907932 0.000000
v -18.909214 34.907932 10.800000
v -19.280836 35.740590 0.000000
v -19.280836 35.740590 10.800000
v -21.117769 39.848399 0.000000
v -21.117769 39.848399 10.800000
v -16.895170 41.443221 0.000000
v -16.895170 41.443221 10.800000
v -13.267009 42.953989 0.000000
v -13.267009 42.953989 10.800000
v -10.807708 44.086266 0.000000
v -10.807708 44.086266 10.800000
v 23.256075 58.590999 0.000000
v 23.256075 58.590999 10.800000
v 27.972771 56.973299 0.000000
v 27.972771 56.973299 10.800000
v 33.673764 45.533649 0.000000
v 33.673764 45.533649 10.800000
v 12.865311 36.417535 0.000000
v 12.865311 36.417535 10.800000
v -7.341492 28.348082 0.000000
v -7.341492 28.348082 10.800000
v -4.586168 22.894525 0.000000
v -4.586168 22.894525 10.800000
v 18.382637 32.149311 0.000000
v 18.382637 32.149311 10.800000
v 30.368598 6.521532 0.000000
v 30.368598 6.521532 10.800000
v 5.800652 -4.336731 0.000000
v 5.800652 -4.336731 10.800000
v 7.810985 -9.795756 0.000000
v 7.810985 -9.795756 10.800000
v 23.961301 -2.769121 0.000000
v 23.961301 -2.769121 10.800000
v 40.638900 -37.671306 0.000000
v 40.638900 -37.671306 10.800000
v 13.748053 -50.182939 0.000000
v 13.748053 -50.182939 10.800000
v 6.243228 -35.974582 0.000000
v 6.243228 -35.974582 10.800000
v 3.933426 -31.575538 0.000000
v 3.933426 -31.575538 10.800000
v -28.659003 -45.659782 0.000000
v -28.659003 -45.659782 10.800000
v -35.685196 -28.102342 0.000000
v -35.685196 -28.102342 10.800000
v -32.716652 -26.730464 0.000000
v -32.716652 -26.730464 10.800000
v 2.751621 -10.676146 0.000000
v 2.751621 -10.676146 10.800000
v -0.509364 -3.547994 0.000000
v -0.509364 -3.547994 10.800000
v -35.566140 -19.439424 0.000000
v -35.566140 -19.439424 10.800000
v -38.619553 -20.611496 0.000000
v -38.619553 -20.611496 10.800000
f 1 2 3 4
f 2 5 6 3
f 5 7 8 6
f 7 9 10 8
f 9 11 12 10
f 11 13 14 12
f 13 15 16 14
f 15 17 18 16
f 17 19 20 18
f 19 21 22 20
f 21 23 24 22
f 23 25 26 24
f 25 27 28 26
f 27 29 30 28
f 29 31 32 30
f 31 33 34 32
f 33 35 36 34
f 35 37 38 36
f 37 39 40 38
f 39 41 42 40
f 41 43 44 42
f 43 45 46 44
f 45 47 48 46
f 47 49 50 48
f 49 51 52 50
f 51 53 54 52
f 53 55 56 54
f 55 57 58 56
f 57 59 60 58
f 59 61 62 60
f 61 63 64 62
f 63 65 66 64
f 65 67 68 66
f 67 1 4 68
f 9 7 11
f 12 8 10
f 19 17 15
f 16 18 20
f 29 25 31
f 32 26 30
f 29 27 25
f 26 28 30
f 21 33 23
f 24 34 22
f 39 37 41
f 42 38 40
f 47 45 51
f 52 46 48
f 51 49 47
f 48 50 52
f 57 55 59
f 60 56 58
f 61 59 53
f 54 60 62
f 67 65 1
f 4 66 68
f 2 1 65
f 66 4 3
f 5 11 7
f 8 12 6
f 19 15 13
f 14 16 20
f 23 31 25
f 26 32 24
f 35 41 37
f 38 42 36
f 51 45 53
f 54 46 52
f 53 59 55
f 56 60 54
f 63 2 65
f 66 3 64
f 13 11 19
f 20 12 14
f 21 19 11
f 12 20 22
f 31 23 33
f 34 24 32
f 61 41 63
f 64 42 62
f 43 53 45
f 46 54 44
f 61 53 43
f 44 54 62
f 33 5 35
f 36 6 34
f 21 11 33
f 34 12 22
f 63 41 2
f 3 42 64
f 41 61 43
f 44 62 42
f 5 33 11
f 12 34 6
f 35 2 41
f 42 3 36
f 2 35 5
f 6 36 3
g floor-band-l01-e00
# materialClass=concrete-painted
# confidence=source-level-count/proxy-detail
# evidenceIds=source:scan:sketchfab-physci-2025,source:legacy:uplb-virtual-campus-2014,source:index:commons-uplb-buildings
# notes=Procedural level break; not a measured facade molding.
v -45.780143 -2.444854 3.520000
v -8.740092 14.501717 3.520000
v -8.814980 14.665399 3.520000
v -45.855030 -2.281172 3.520000
v -45.780143 -2.444854 3.680000
v -8.740092 14.501717 3.680000
v -8.814980 14.665399 3.680000
v -45.855030 -2.281172 3.680000
f 69 70 71 72
f 73 76 75 74
f 69 73 74 70
f 70 74 75 71
f 71 75 76 72
f 73 69 72 76
g floor-band-l01-e01
# materialClass=concrete-painted
# confidence=source-level-count/proxy-detail
# evidenceIds=source:scan:sketchfab-physci-2025,source:legacy:uplb-virtual-campus-2014,source:index:commons-uplb-buildings
# notes=Procedural level break; not a measured facade molding.
v -8.730321 14.528135 3.520000
v -12.731611 23.178797 3.520000
v -12.894981 23.103232 3.520000
v -8.893692 14.452569 3.520000
v -8.730321 14.528135 3.680000
v -12.731611 23.178797 3.680000
v -12.894981 23.103232 3.680000
v -8.893692 14.452569 3.680000
f 77 78 79 80
f 81 84 83 82
f 77 81 82 78
f 78 82 83 79
f 79 83 84 80
f 81 77 80 84
g floor-band-l01-e02
# materialClass=concrete-painted
# confidence=source-level-count/proxy-detail
# evidenceIds=source:scan:sketchfab-physci-2025,source:legacy:uplb-virtual-campus-2014,source:index:commons-uplb-buildings
# notes=Procedural level break; not a measured facade molding.
v -12.758951 23.189427 3.520000
v -30.151488 15.919081 3.520000
v -30.082067 15.753007 3.520000
v -12.689530 23.023353 3.520000
v -12.758951 23.189427 3.680000
v -30.151488 15.919081 3.680000
v -30.082067 15.753007 3.680000
v -12.689530 23.023353 3.680000
f 85 86 87 88
f 89 92 91 90
f 85 89 90 86
f 86 90 91 87
f 87 91 92 88
f 89 85 88 92
g floor-band-l01-e03
# materialClass=concrete-painted
# confidence=source-level-count/proxy-detail
# evidenceIds=source:scan:sketchfab-physci-2025,source:legacy:uplb-virtual-campus-2014,source:index:commons-uplb-buildings
# notes=Procedural level break; not a measured facade molding.
v -30.206397 15.938038 3.520000
v -35.951250 26.208335 3.520000
v -36.108343 26.120462 3.520000
v -30.363490 15.850165 3.520000
v -30.206397 15.938038 3.680000
v -35.951250 26.208335 3.680000
v -36.108343 26.120462 3.680000
v -30.363490 15.850165 3.680000
f 93 94 95 96
f 97 100 99 98
f 93 97 98 94
f 94 98 99 95
f 95 99 100 96
f 97 93 96 100
g floor-band-l01-e04
# materialClass=concrete-painted
# confidence=source-level-count/proxy-detail
# evidenceIds=source:scan:sketchfab-physci-2025,source:legacy:uplb-virtual-campus-2014,source:index:commons-uplb-buildings
# notes=Procedural level break; not a measured facade molding.
v -35.934077 26.261005 3.520000
v -18.632807 34.205100 3.520000
v -18.707917 34.368681 3.520000
v -36.009187 26.424585 3.520000
v -35.934077 26.261005 3.680000
v -18.632807 34.205100 3.680000
v -18.707917 34.368681 3.680000
v -36.009187 26.424585 3.680000
f 101 102 103 104
f 105 108 107 106
f 101 105 106 102
f 102 106 107 103
f 103 107 108 104
f 105 101 104 108
g floor-band-l01-e07
# materialClass=concrete-painted
# confidence=source-level-count/proxy-detail
# evidenceIds=source:scan:sketchfab-physci-2025,source:legacy:uplb-virtual-campus-2014,source:index:commons-uplb-buildings
# notes=Procedural level break; not a measured facade molding.
v -19.302212 35.763894 3.520000
v -21.114651 39.816930 3.520000
v -21.278969 39.743450 3.520000
v -19.466531 35.690414 3.520000
v -19.302212 35.763894 3.680000
v -21.114651 39.816930 3.680000
v -21.278969 39.743450 3.680000
v -19.466531 35.690414 3.680000
f 109 110 111 112
f 113 116 115 114
f 109 113 114 110
f 110 114 115 111
f 111 115 116 112
f 113 109 112 116
g floor-band-l01-e08
# materialClass=concrete-painted
# confidence=source-level-count/proxy-detail
# evidenceIds=source:scan:sketchfab-physci-2025,source:legacy:uplb-virtual-campus-2014,source:index:commons-uplb-buildings
# notes=Procedural level break; not a measured facade molding.
v -21.093237 39.868354 3.520000
v -16.926768 41.441976 3.520000
v -16.990367 41.610366 3.520000
v -21.156836 40.036744 3.520000
v -21.093237 39.868354 3.680000
v -16.926768 41.441976 3.680000
v -16.990367 41.610366 3.680000
v -21.156836 40.036744 3.680000
f 117 118 119 120
f 121 124 123 122
f 117 121 122 118
f 118 122 123 119
f 119 123 124 120
f 121 117 120 124
g floor-band-l01-e09
# materialClass=concrete-painted
# confidence=source-level-count/proxy-detail
# evidenceIds=source:scan:sketchfab-physci-2025,source:legacy:uplb-virtual-campus-2014,source:index:commons-uplb-buildings
# notes=Procedural level break; not a measured facade molding.
v -16.871319 41.463985 3.520000
v -13.298548 42.951689 3.520000
v -13.367741 43.117858 3.520000
v -16.940512 41.630154 3.520000
v -16.871319 41.463985 3.680000
v -13.298548 42.951689 3.680000
v -13.367741 43.117858 3.680000
v -16.940512 41.630154 3.680000
f 125 126 127 128
f 129 132 131 130
f 125 129 130 126
f 126 130 131 127
f 127 131 132 128
f 129 125 128 132
g floor-band-l01-e10
# materialClass=concrete-painted
# confidence=source-level-count/proxy-detail
# evidenceIds=source:scan:sketchfab-physci-2025,source:legacy:uplb-virtual-campus-2014,source:index:commons-uplb-buildings
# notes=Procedural level break; not a measured facade molding.
v -13.243940 42.975619 3.520000
v -10.839141 44.082803 3.520000
v -10.914419 44.246306 3.520000
v -13.319218 43.139122 3.520000
v -13.243940 42.975619 3.680000
v -10.839141 44.082803 3.680000
v -10.914419 44.246306 3.680000
v -13.319218 43.139122 3.680000
f 133 134 135 136
f 137 140 139 138
f 133 137 138 134
f 134 138 139 135
f 135 139 140 136
f 137 133 136 140
g floor-band-l01-e11
# materialClass=concrete-painted
# confidence=source-level-count/proxy-detail
# evidenceIds=source:scan:sketchfab-physci-2025,source:legacy:uplb-virtual-campus-2014,source:index:commons-uplb-buildings
# notes=Procedural level break; not a measured facade molding.
v -10.784024 44.107220 3.520000
v 23.224555 58.588447 3.520000
v 23.154036 58.754058 3.520000
v -10.854543 44.272831 3.520000
v -10.784024 44.107220 3.680000
v 23.224555 58.588447 3.680000
v 23.154036 58.754058 3.680000
v -10.854543 44.272831 3.680000
f 141 142 143 144
f 145 148 147 146
f 141 145 146 142
f 142 146 147 143
f 143 147 148 144
f 145 141 144 148
g floor-band-l01-e12
# materialClass=concrete-painted
# confidence=source-level-count/proxy-detail
# evidenceIds=source:scan:sketchfab-physci-2025,source:legacy:uplb-virtual-campus-2014,source:index:commons-uplb-buildings
# notes=Procedural level break; not a measured facade molding.
v 23.287696 58.590726 3.520000
v 27.947638 56.992491 3.520000
v 28.006034 57.162755 3.520000
v 23.346092 58.760990 3.520000
v 23.287696 58.590726 3.680000
v 27.947638 56.992491 3.680000
v 28.006034 57.162755 3.680000
v 23.346092 58.760990 3.680000
f 149 150 151 152
f 153 156 155 154
f 149 153 154 150
f 150 154 155 151
f 151 155 156 152
f 153 149 152 156
g floor-band-l01-e13
# materialClass=concrete-painted
# confidence=source-level-count/proxy-detail
# evidenceIds=source:scan:sketchfab-physci-2025,source:legacy:uplb-virtual-campus-2014,source:index:commons-uplb-buildings
# notes=Procedural level break; not a measured facade molding.
v 27.995102 56.950909 3.520000
v 33.669333 45.564960 3.520000
v 33.830436 45.645246 3.520000
v 28.156205 57.031195 3.520000
v 27.995102 56.950909 3.680000
v 33.669333 45.564960 3.680000
v 33.830436 45.645246 3.680000
v 28.156205 57.031195 3.680000
f 157 158 159 160
f 161 164 163 162
f 157 161 162 158
f 158 162 163 159
f 159 163 164 160
f 161 157 160 164
g floor-band-l01-e14
# materialClass=concrete-painted
# confidence=source-level-count/proxy-detail
# evidenceIds=source:scan:sketchfab-physci-2025,source:legacy:uplb-virtual-campus-2014,source:index:commons-uplb-buildings
# notes=Procedural level break; not a measured facade molding.
v 33.650298 45.512451 3.520000
v 12.896802 36.420414 3.520000
v 12.969032 36.255542 3.520000
v 33.722528 45.347579 3.520000
v 33.650298 45.512451 3.680000
v 12.896802 36.420414 3.680000
v 12.969032 36.255542 3.680000
v 33.722528 45.347579 3.680000
f 165 166 167 168
f 169 172 171 170
f 165 169 170 166
f 166 170 171 167
f 167 171 172 168
f 169 165 168 172
g floor-band-l01-e15
# materialClass=concrete-painted
# confidence=source-level-count/proxy-detail
# evidenceIds=source:scan:sketchfab-physci-2025,source:legacy:uplb-virtual-campus-2014,source:index:commons-uplb-buildings
# notes=Procedural level break; not a measured facade molding.
v 12.841159 36.397122 3.520000
v -7.309923 28.349922 3.520000
v -7.243167 28.182758 3.520000
v 12.907915 36.229959 3.520000
v 12.841159 36.397122 3.680000
v -7.309923 28.349922 3.680000
v -7.243167 28.182758 3.680000
v 12.907915 36.229959 3.680000
f 173 174 175 176
f 177 180 179 178
f 173 177 178 174
f 174 178 179 175
f 175 179 180 176
f 177 173 176 180
g floor-band-l01-e16
# materialClass=concrete-painted
# confidence=source-level-count/proxy-detail
# evidenceIds=source:scan:sketchfab-physci-2025,source:legacy:uplb-virtual-campus-2014,source:index:commons-uplb-buildings
# notes=Procedural level break; not a measured facade molding.
v -7.319038 28.325815 3.520000
v -4.590771 22.925811 3.520000
v -4.430112 23.006982 3.520000
v -7.158379 28.406986 3.520000
v -7.319038 28.325815 3.680000
v -4.590771 22.925811 3.680000
v -4.430112 23.006982 3.680000
v -7.158379 28.406986 3.680000
f 181 182 183 184
f 185 188 187 186
f 181 185 186 182
f 182 186 187 183
f 183 187 188 184
f 185 181 184 188
g floor-band-l01-e17
# materialClass=concrete-painted
# confidence=source-level-count/proxy-detail
# evidenceIds=source:scan:sketchfab-physci-2025,source:legacy:uplb-virtual-campus-2014,source:index:commons-uplb-buildings
# notes=Procedural level break; not a measured facade molding.
v -4.562079 22.915012 3.520000
v 18.351074 32.147375 3.520000
v 18.283802 32.314332 3.520000
v -4.629351 23.081969 3.520000
v -4.562079 22.915012 3.680000
v 18.351074 32.147375 3.680000
v 18.283802 32.314332 3.680000
v -4.629351 23.081969 3.680000
f 189 190 191 192
f 193 196 195 194
f 189 193 194 190
f 190 194 195 191
f 191 195 196 192
f 193 189 192 196
g floor-band-l01-e18
# materialClass=concrete-painted
# confidence=source-level-count/proxy-detail
# evidenceIds=source:scan:sketchfab-physci-2025,source:legacy:uplb-virtual-campus-2014,source:index:commons-uplb-buildings
# notes=Procedural level break; not a measured facade molding.
v 18.404405 32.126373 3.520000
v 30.364947 6.552944 3.520000
v 30.527995 6.629201 3.520000
v 18.567454 32.202630 3.520000
v 18.404405 32.126373 3.680000
v 30.364947 6.552944 3.680000
v 30.527995 6.629201 3.680000
v 18.567454 32.202630 3.680000
f 197 198 199 200
f 201 204 203 202
f 197 201 202 198
f 198 202 203 199
f 199 203 204 200
f 201 197 200 204
g floor-band-l01-e19
# materialClass=concrete-painted
# confidence=source-level-count/proxy-detail
# evidenceIds=source:scan:sketchfab-physci-2025,source:legacy:uplb-virtual-campus-2014,source:index:commons-uplb-buildings
# notes=Procedural level break; not a measured facade molding.
v 30.345201 6.500259 3.520000
v 5.832134 -4.333751 3.520000
v 5.904898 -4.498388 3.520000
v 30.417965 6.335622 3.520000
v 30.345201 6.500259 3.680000
v 5.832134 -4.333751 3.680000
v 5.904898 -4.498388 3.680000
v 30.417965 6.335622 3.680000
f 205 206 207 208
f 209 212 211 210
f 205 209 210 206
f 206 210 211 207
f 207 211 212 208
f 209 205 208 212
g floor-band-l01-e20
# materialClass=concrete-painted
# confidence=source-level-count/proxy-detail
# evidenceIds=source:scan:sketchfab-physci-2025,source:legacy:uplb-virtual-campus-2014,source:index:commons-uplb-buildings
# notes=Procedural level break; not a measured facade molding.
v 5.820403 -4.361427 3.520000
v 7.810002 -9.764149 3.520000
v 7.978912 -9.701946 3.520000
v 5.989314 -4.299225 3.520000
v 5.820403 -4.361427 3.680000
v 7.810002 -9.764149 3.680000
v 7.978912 -9.701946 3.680000
v 5.989314 -4.299225 3.680000
f 213 214 215 216
f 217 220 219 218
f 213 217 218 214
f 214 218 219 215
f 215 219 220 216
f 217 213 216 220
g floor-band-l01-e21
# materialClass=concrete-painted
# confidence=source-level-count/proxy-detail
# evidenceIds=source:scan:sketchfab-physci-2025,source:legacy:uplb-virtual-campus-2014,source:index:commons-uplb-buildings
# notes=Procedural level break; not a measured facade molding.
v 7.834505 -9.774618 3.520000
v 23.929802 -2.771920 3.520000
v 23.857991 -2.606865 3.520000
v 7.762693 -9.609563 3.520000
v 7.834505 -9.774618 3.680000
v 23.929802 -2.771920 3.680000
v 23.857991 -2.606865 3.680000
v 7.762693 -9.609563 3.680000
f 221 222 223 224
f 225 228 227 226
f 221 225 226 222
f 222 226 227 223
f 223 227 228 224
f 225 221 224 228
g floor-band-l01-e22
# materialClass=concrete-painted
# confidence=source-level-count/proxy-detail
# evidenceIds=source:scan:sketchfab-physci-2025,source:legacy:uplb-virtual-campus-2014,source:index:commons-uplb-buildings
# notes=Procedural level break; not a measured facade molding.
v 23.983258 -2.791878 3.520000
v 40.634989 -37.639926 3.520000
v 40.797400 -37.562320 3.520000
v 24.145669 -2.714272 3.520000
v 23.983258 -2.791878 3.680000
v 40.634989 -37.639926 3.680000
v 40.797400 -37.562320 3.680000
v 24.145669 -2.714272 3.680000
f 229 230 231 232
f 233 236 235 234
f 229 233 234 230
f 230 234 235 231
f 231 235 236 232
f 233 229 232 236
g floor-band-l01-e23
# materialClass=concrete-painted
# confidence=source-level-count/proxy-detail
# evidenceIds=source:scan:sketchfab-physci-2025,source:legacy:uplb-virtual-campus-2014,source:index:commons-uplb-buildings
# notes=Procedural level break; not a measured facade molding.
v 40.615919 -37.693028 3.520000
v 13.779472 -50.179350 3.520000
v 13.855405 -50.342550 3.520000
v 40.691852 -37.856228 3.520000
v 40.615919 -37.693028 3.680000
v 13.779472 -50.179350 3.680000
v 13.855405 -50.342550 3.680000
v 40.691852 -37.856228 3.680000
f 237 238 239 240
f 241 244 243 242
f 237 241 242 238
f 238 242 243 239
f 239 243 244 240
f 241 237 240 244
g floor-band-l01-e24
# materialClass=concrete-painted
# confidence=source-level-count/proxy-detail
# evidenceIds=source:scan:sketchfab-physci-2025,source:legacy:uplb-virtual-campus-2014,source:index:commons-uplb-buildings
# notes=Procedural level break; not a measured facade molding.
v 13.725200 -50.161082 3.520000
v 6.248397 -36.005780 3.520000
v 6.089235 -36.089848 3.520000
v 13.566038 -50.245151 3.520000
v 13.725200 -50.161082 3.680000
v 6.248397 -36.005780 3.680000
v 6.089235 -36.089848 3.680000
v 13.566038 -50.245151 3.680000
f 245 246 247 248
f 249 252 251 250
f 245 249 250 246
f 246 250 251 247
f 247 251 252 248
f 249 245 248 252
g floor-band-l01-e25
# materialClass=concrete-painted
# confidence=source-level-count/proxy-detail
# evidenceIds=source:scan:sketchfab-physci-2025,source:legacy:uplb-virtual-campus-2014,source:index:commons-uplb-buildings
# notes=Procedural level break; not a measured facade molding.
v 6.220427 -35.952670 3.520000
v 3.938519 -31.606748 3.520000
v 3.779152 -31.690427 3.520000
v 6.061060 -36.036349 3.520000
v 6.220427 -35.952670 3.680000
v 3.938519 -31.606748 3.680000
v 3.779152 -31.690427 3.680000
v 6.061060 -36.036349 3.680000
f 253 254 255 256
f 257 260 259 258
f 253 257 258 254
f 254 258 259 255
f 255 259 260 256
f 257 253 256 260
g floor-band-l01-e26
# materialClass=concrete-painted
# confidence=source-level-count/proxy-detail
# evidenceIds=source:scan:sketchfab-physci-2025,source:legacy:uplb-virtual-campus-2014,source:index:commons-uplb-buildings
# notes=Procedural level break; not a measured facade molding.
v 3.909854 -31.596618 3.520000
v -28.627498 -45.657061 3.520000
v -28.556096 -45.822294 3.520000
v 3.981257 -31.761850 3.520000
v 3.909854 -31.596618 3.680000
v -28.627498 -45.657061 3.680000
v -28.556096 -45.822294 3.680000
v 3.981257 -31.761850 3.680000
f 261 262 263 264
f 265 268 267 266
f 261 265 266 262
f 262 266 267 263
f 263 267 268 264
f 265 261 264 268
g floor-band-l01-e27
# materialClass=concrete-painted
# confidence=source-level-count/proxy-detail
# evidenceIds=source:scan:sketchfab-physci-2025,source:legacy:uplb-virtual-campus-2014,source:index:commons-uplb-buildings
# notes=Procedural level break; not a measured facade molding.
v -28.679434 -45.635645 3.520000
v -35.683334 -28.133910 3.520000
v -35.850449 -28.200787 3.520000
v -28.846549 -45.702522 3.520000
v -28.679434 -45.635645 3.680000
v -35.683334 -28.133910 3.680000
v -35.850449 -28.200787 3.680000
v -28.846549 -45.702522 3.680000
f 269 270 271 272
f 273 276 275 274
f 269 273 274 270
f 270 274 275 271
f 271 275 276 272
f 273 269 272 276
g floor-band-l01-e28
# materialClass=concrete-painted
# confidence=source-level-count/proxy-detail
# evidenceIds=source:scan:sketchfab-physci-2025,source:legacy:uplb-virtual-campus-2014,source:index:commons-uplb-buildings
# notes=Procedural level break; not a measured facade molding.
v -35.662158 -28.080680 3.520000
v -32.748080 -26.733972 3.520000
v -32.823591 -26.570577 3.520000
v -35.737669 -27.917284 3.520000
v -35.662158 -28.080680 3.680000
v -32.748080 -26.733972 3.680000
v -32.823591 -26.570577 3.680000
v -35.737669 -27.917284 3.680000
f 277 278 279 280
f 281 284 283 282
f 277 281 282 278
f 278 282 283 279
f 279 283 284 280
f 281 277 280 284
g floor-band-l01-e29
# materialClass=concrete-painted
# confidence=source-level-count/proxy-detail
# evidenceIds=source:scan:sketchfab-physci-2025,source:legacy:uplb-virtual-campus-2014,source:index:commons-uplb-buildings
# notes=Procedural level break; not a measured facade molding.
v -32.693446 -26.708983 3.520000
v 2.720166 -10.679406 3.520000
v 2.645941 -10.515423 3.520000
v -32.767671 -26.545000 3.520000
v -32.693446 -26.708983 3.680000
v 2.720166 -10.679406 3.680000
v 2.645941 -10.515423 3.680000
v -32.767671 -26.545000 3.680000
f 285 286 287 288
f 289 292 291 290
f 285 289 290 286
f 286 290 291 287
f 287 291 292 288
f 289 285 288 292
g floor-band-l01-e30
# materialClass=concrete-painted
# confidence=source-level-count/proxy-detail
# evidenceIds=source:scan:sketchfab-physci-2025,source:legacy:uplb-virtual-campus-2014,source:index:commons-uplb-buildings
# notes=Procedural level break; not a measured facade molding.
v 2.730047 -10.653025 3.520000
v -0.505977 -3.579434 3.520000
v -0.669661 -3.654317 3.520000
v 2.566362 -10.727907 3.520000
v 2.730047 -10.653025 3.680000
v -0.505977 -3.579434 3.680000
v -0.669661 -3.654317 3.680000
v 2.566362 -10.727907 3.680000
f 293 294 295 296
f 297 300 299 298
f 293 297 298 294
f 294 298 299 295
f 295 299 300 296
f 297 293 296 300
g floor-band-l01-e31
# materialClass=concrete-painted
# confidence=source-level-count/proxy-detail
# evidenceIds=source:scan:sketchfab-physci-2025,source:legacy:uplb-virtual-campus-2014,source:index:commons-uplb-buildings
# notes=Procedural level break; not a measured facade molding.
v -0.532559 -3.569487 3.520000
v -35.534687 -19.436146 3.520000
v -35.460371 -19.600089 3.520000
v -0.458243 -3.733430 3.520000
v -0.532559 -3.569487 3.680000
v -35.534687 -19.436146 3.680000
v -35.460371 -19.600089 3.680000
v -0.458243 -3.733430 3.680000
f 301 302 303 304
f 305 308 307 306
f 301 305 306 302
f 302 306 307 303
f 303 307 308 304
f 305 301 304 308
g floor-band-l01-e32
# materialClass=concrete-painted
# confidence=source-level-count/proxy-detail
# evidenceIds=source:scan:sketchfab-physci-2025,source:legacy:uplb-virtual-campus-2014,source:index:commons-uplb-buildings
# notes=Procedural level break; not a measured facade molding.
v -35.590564 -19.459511 3.520000
v -38.587962 -20.610081 3.520000
v -38.523457 -20.778126 3.520000
v -35.526059 -19.627556 3.520000
v -35.590564 -19.459511 3.680000
v -38.587962 -20.610081 3.680000
v -38.523457 -20.778126 3.680000
v -35.526059 -19.627556 3.680000
f 309 310 311 312
f 313 316 315 314
f 309 313 314 310
f 310 314 315 311
f 311 315 316 312
f 313 309 312 316
g floor-band-l01-e33
# materialClass=concrete-painted
# confidence=source-level-count/proxy-detail
# evidenceIds=source:scan:sketchfab-physci-2025,source:legacy:uplb-virtual-campus-2014,source:index:commons-uplb-buildings
# notes=Procedural level break; not a measured facade molding.
v -38.639894 -20.587284 3.520000
v -45.801517 -2.498003 3.520000
v -45.968878 -2.564262 3.520000
v -38.807255 -20.653543 3.520000
v -38.639894 -20.587284 3.680000
v -45.801517 -2.498003 3.680000
v -45.968878 -2.564262 3.680000
v -38.807255 -20.653543 3.680000
f 317 318 319 320
f 321 324 323 322
f 317 321 322 318
f 318 322 323 319
f 319 323 324 320
f 321 317 320 324
g floor-band-l02-e00
# materialClass=concrete-painted
# confidence=source-level-count/proxy-detail
# evidenceIds=source:scan:sketchfab-physci-2025,source:legacy:uplb-virtual-campus-2014,source:index:commons-uplb-buildings
# notes=Procedural level break; not a measured facade molding.
v -45.780143 -2.444854 7.120000
v -8.740092 14.501717 7.120000
v -8.814980 14.665399 7.120000
v -45.855030 -2.281172 7.120000
v -45.780143 -2.444854 7.280000
v -8.740092 14.501717 7.280000
v -8.814980 14.665399 7.280000
v -45.855030 -2.281172 7.280000
f 325 326 327 328
f 329 332 331 330
f 325 329 330 326
f 326 330 331 327
f 327 331 332 328
f 329 325 328 332
g floor-band-l02-e01
# materialClass=concrete-painted
# confidence=source-level-count/proxy-detail
# evidenceIds=source:scan:sketchfab-physci-2025,source:legacy:uplb-virtual-campus-2014,source:index:commons-uplb-buildings
# notes=Procedural level break; not a measured facade molding.
v -8.730321 14.528135 7.120000
v -12.731611 23.178797 7.120000
v -12.894981 23.103232 7.120000
v -8.893692 14.452569 7.120000
v -8.730321 14.528135 7.280000
v -12.731611 23.178797 7.280000
v -12.894981 23.103232 7.280000
v -8.893692 14.452569 7.280000
f 333 334 335 336
f 337 340 339 338
f 333 337 338 334
f 334 338 339 335
f 335 339 340 336
f 337 333 336 340
g floor-band-l02-e02
# materialClass=concrete-painted
# confidence=source-level-count/proxy-detail
# evidenceIds=source:scan:sketchfab-physci-2025,source:legacy:uplb-virtual-campus-2014,source:index:commons-uplb-buildings
# notes=Procedural level break; not a measured facade molding.
v -12.758951 23.189427 7.120000
v -30.151488 15.919081 7.120000
v -30.082067 15.753007 7.120000
v -12.689530 23.023353 7.120000
v -12.758951 23.189427 7.280000
v -30.151488 15.919081 7.280000
v -30.082067 15.753007 7.280000
v -12.689530 23.023353 7.280000
f 341 342 343 344
f 345 348 347 346
f 341 345 346 342
f 342 346 347 343
f 343 347 348 344
f 345 341 344 348
g floor-band-l02-e03
# materialClass=concrete-painted
# confidence=source-level-count/proxy-detail
# evidenceIds=source:scan:sketchfab-physci-2025,source:legacy:uplb-virtual-campus-2014,source:index:commons-uplb-buildings
# notes=Procedural level break; not a measured facade molding.
v -30.206397 15.938038 7.120000
v -35.951250 26.208335 7.120000
v -36.108343 26.120462 7.120000
v -30.363490 15.850165 7.120000
v -30.206397 15.938038 7.280000
v -35.951250 26.208335 7.280000
v -36.108343 26.120462 7.280000
v -30.363490 15.850165 7.280000
f 349 350 351 352
f 353 356 355 354
f 349 353 354 350
f 350 354 355 351
f 351 355 356 352
f 353 349 352 356
g floor-band-l02-e04
# materialClass=concrete-painted
# confidence=source-level-count/proxy-detail
# evidenceIds=source:scan:sketchfab-physci-2025,source:legacy:uplb-virtual-campus-2014,source:index:commons-uplb-buildings
# notes=Procedural level break; not a measured facade molding.
v -35.934077 26.261005 7.120000
v -18.632807 34.205100 7.120000
v -18.707917 34.368681 7.120000
v -36.009187 26.424585 7.120000
v -35.934077 26.261005 7.280000
v -18.632807 34.205100 7.280000
v -18.707917 34.368681 7.280000
v -36.009187 26.424585 7.280000
f 357 358 359 360
f 361 364 363 362
f 357 361 362 358
f 358 362 363 359
f 359 363 364 360
f 361 357 360 364
g floor-band-l02-e07
# materialClass=concrete-painted
# confidence=source-level-count/proxy-detail
# evidenceIds=source:scan:sketchfab-physci-2025,source:legacy:uplb-virtual-campus-2014,source:index:commons-uplb-buildings
# notes=Procedural level break; not a measured facade molding.
v -19.302212 35.763894 7.120000
v -21.114651 39.816930 7.120000
v -21.278969 39.743450 7.120000
v -19.466531 35.690414 7.120000
v -19.302212 35.763894 7.280000
v -21.114651 39.816930 7.280000
v -21.278969 39.743450 7.280000
v -19.466531 35.690414 7.280000
f 365 366 367 368
f 369 372 371 370
f 365 369 370 366
f 366 370 371 367
f 367 371 372 368
f 369 365 368 372
g floor-band-l02-e08
# materialClass=concrete-painted
# confidence=source-level-count/proxy-detail
# evidenceIds=source:scan:sketchfab-physci-2025,source:legacy:uplb-virtual-campus-2014,source:index:commons-uplb-buildings
# notes=Procedural level break; not a measured facade molding.
v -21.093237 39.868354 7.120000
v -16.926768 41.441976 7.120000
v -16.990367 41.610366 7.120000
v -21.156836 40.036744 7.120000
v -21.093237 39.868354 7.280000
v -16.926768 41.441976 7.280000
v -16.990367 41.610366 7.280000
v -21.156836 40.036744 7.280000
f 373 374 375 376
f 377 380 379 378
f 373 377 378 374
f 374 378 379 375
f 375 379 380 376
f 377 373 376 380
g floor-band-l02-e09
# materialClass=concrete-painted
# confidence=source-level-count/proxy-detail
# evidenceIds=source:scan:sketchfab-physci-2025,source:legacy:uplb-virtual-campus-2014,source:index:commons-uplb-buildings
# notes=Procedural level break; not a measured facade molding.
v -16.871319 41.463985 7.120000
v -13.298548 42.951689 7.120000
v -13.367741 43.117858 7.120000
v -16.940512 41.630154 7.120000
v -16.871319 41.463985 7.280000
v -13.298548 42.951689 7.280000
v -13.367741 43.117858 7.280000
v -16.940512 41.630154 7.280000
f 381 382 383 384
f 385 388 387 386
f 381 385 386 382
f 382 386 387 383
f 383 387 388 384
f 385 381 384 388
g floor-band-l02-e10
# materialClass=concrete-painted
# confidence=source-level-count/proxy-detail
# evidenceIds=source:scan:sketchfab-physci-2025,source:legacy:uplb-virtual-campus-2014,source:index:commons-uplb-buildings
# notes=Procedural level break; not a measured facade molding.
v -13.243940 42.975619 7.120000
v -10.839141 44.082803 7.120000
v -10.914419 44.246306 7.120000
v -13.319218 43.139122 7.120000
v -13.243940 42.975619 7.280000
v -10.839141 44.082803 7.280000
v -10.914419 44.246306 7.280000
v -13.319218 43.139122 7.280000
f 389 390 391 392
f 393 396 395 394
f 389 393 394 390
f 390 394 395 391
f 391 395 396 392
f 393 389 392 396
g floor-band-l02-e11
# materialClass=concrete-painted
# confidence=source-level-count/proxy-detail
# evidenceIds=source:scan:sketchfab-physci-2025,source:legacy:uplb-virtual-campus-2014,source:index:commons-uplb-buildings
# notes=Procedural level break; not a measured facade molding.
v -10.784024 44.107220 7.120000
v 23.224555 58.588447 7.120000
v 23.154036 58.754058 7.120000
v -10.854543 44.272831 7.120000
v -10.784024 44.107220 7.280000
v 23.224555 58.588447 7.280000
v 23.154036 58.754058 7.280000
v -10.854543 44.272831 7.280000
f 397 398 399 400
f 401 404 403 402
f 397 401 402 398
f 398 402 403 399
f 399 403 404 400
f 401 397 400 404
g floor-band-l02-e12
# materialClass=concrete-painted
# confidence=source-level-count/proxy-detail
# evidenceIds=source:scan:sketchfab-physci-2025,source:legacy:uplb-virtual-campus-2014,source:index:commons-uplb-buildings
# notes=Procedural level break; not a measured facade molding.
v 23.287696 58.590726 7.120000
v 27.947638 56.992491 7.120000
v 28.006034 57.162755 7.120000
v 23.346092 58.760990 7.120000
v 23.287696 58.590726 7.280000
v 27.947638 56.992491 7.280000
v 28.006034 57.162755 7.280000
v 23.346092 58.760990 7.280000
f 405 406 407 408
f 409 412 411 410
f 405 409 410 406
f 406 410 411 407
f 407 411 412 408
f 409 405 408 412
g floor-band-l02-e13
# materialClass=concrete-painted
# confidence=source-level-count/proxy-detail
# evidenceIds=source:scan:sketchfab-physci-2025,source:legacy:uplb-virtual-campus-2014,source:index:commons-uplb-buildings
# notes=Procedural level break; not a measured facade molding.
v 27.995102 56.950909 7.120000
v 33.669333 45.564960 7.120000
v 33.830436 45.645246 7.120000
v 28.156205 57.031195 7.120000
v 27.995102 56.950909 7.280000
v 33.669333 45.564960 7.280000
v 33.830436 45.645246 7.280000
v 28.156205 57.031195 7.280000
f 413 414 415 416
f 417 420 419 418
f 413 417 418 414
f 414 418 419 415
f 415 419 420 416
f 417 413 416 420
g floor-band-l02-e14
# materialClass=concrete-painted
# confidence=source-level-count/proxy-detail
# evidenceIds=source:scan:sketchfab-physci-2025,source:legacy:uplb-virtual-campus-2014,source:index:commons-uplb-buildings
# notes=Procedural level break; not a measured facade molding.
v 33.650298 45.512451 7.120000
v 12.896802 36.420414 7.120000
v 12.969032 36.255542 7.120000
v 33.722528 45.347579 7.120000
v 33.650298 45.512451 7.280000
v 12.896802 36.420414 7.280000
v 12.969032 36.255542 7.280000
v 33.722528 45.347579 7.280000
f 421 422 423 424
f 425 428 427 426
f 421 425 426 422
f 422 426 427 423
f 423 427 428 424
f 425 421 424 428
g floor-band-l02-e15
# materialClass=concrete-painted
# confidence=source-level-count/proxy-detail
# evidenceIds=source:scan:sketchfab-physci-2025,source:legacy:uplb-virtual-campus-2014,source:index:commons-uplb-buildings
# notes=Procedural level break; not a measured facade molding.
v 12.841159 36.397122 7.120000
v -7.309923 28.349922 7.120000
v -7.243167 28.182758 7.120000
v 12.907915 36.229959 7.120000
v 12.841159 36.397122 7.280000
v -7.309923 28.349922 7.280000
v -7.243167 28.182758 7.280000
v 12.907915 36.229959 7.280000
f 429 430 431 432
f 433 436 435 434
f 429 433 434 430
f 430 434 435 431
f 431 435 436 432
f 433 429 432 436
g floor-band-l02-e16
# materialClass=concrete-painted
# confidence=source-level-count/proxy-detail
# evidenceIds=source:scan:sketchfab-physci-2025,source:legacy:uplb-virtual-campus-2014,source:index:commons-uplb-buildings
# notes=Procedural level break; not a measured facade molding.
v -7.319038 28.325815 7.120000
v -4.590771 22.925811 7.120000
v -4.430112 23.006982 7.120000
v -7.158379 28.406986 7.120000
v -7.319038 28.325815 7.280000
v -4.590771 22.925811 7.280000
v -4.430112 23.006982 7.280000
v -7.158379 28.406986 7.280000
f 437 438 439 440
f 441 444 443 442
f 437 441 442 438
f 438 442 443 439
f 439 443 444 440
f 441 437 440 444
g floor-band-l02-e17
# materialClass=concrete-painted
# confidence=source-level-count/proxy-detail
# evidenceIds=source:scan:sketchfab-physci-2025,source:legacy:uplb-virtual-campus-2014,source:index:commons-uplb-buildings
# notes=Procedural level break; not a measured facade molding.
v -4.562079 22.915012 7.120000
v 18.351074 32.147375 7.120000
v 18.283802 32.314332 7.120000
v -4.629351 23.081969 7.120000
v -4.562079 22.915012 7.280000
v 18.351074 32.147375 7.280000
v 18.283802 32.314332 7.280000
v -4.629351 23.081969 7.280000
f 445 446 447 448
f 449 452 451 450
f 445 449 450 446
f 446 450 451 447
f 447 451 452 448
f 449 445 448 452
g floor-band-l02-e18
# materialClass=concrete-painted
# confidence=source-level-count/proxy-detail
# evidenceIds=source:scan:sketchfab-physci-2025,source:legacy:uplb-virtual-campus-2014,source:index:commons-uplb-buildings
# notes=Procedural level break; not a measured facade molding.
v 18.404405 32.126373 7.120000
v 30.364947 6.552944 7.120000
v 30.527995 6.629201 7.120000
v 18.567454 32.202630 7.120000
v 18.404405 32.126373 7.280000
v 30.364947 6.552944 7.280000
v 30.527995 6.629201 7.280000
v 18.567454 32.202630 7.280000
f 453 454 455 456
f 457 460 459 458
f 453 457 458 454
f 454 458 459 455
f 455 459 460 456
f 457 453 456 460
g floor-band-l02-e19
# materialClass=concrete-painted
# confidence=source-level-count/proxy-detail
# evidenceIds=source:scan:sketchfab-physci-2025,source:legacy:uplb-virtual-campus-2014,source:index:commons-uplb-buildings
# notes=Procedural level break; not a measured facade molding.
v 30.345201 6.500259 7.120000
v 5.832134 -4.333751 7.120000
v 5.904898 -4.498388 7.120000
v 30.417965 6.335622 7.120000
v 30.345201 6.500259 7.280000
v 5.832134 -4.333751 7.280000
v 5.904898 -4.498388 7.280000
v 30.417965 6.335622 7.280000
f 461 462 463 464
f 465 468 467 466
f 461 465 466 462
f 462 466 467 463
f 463 467 468 464
f 465 461 464 468
g floor-band-l02-e20
# materialClass=concrete-painted
# confidence=source-level-count/proxy-detail
# evidenceIds=source:scan:sketchfab-physci-2025,source:legacy:uplb-virtual-campus-2014,source:index:commons-uplb-buildings
# notes=Procedural level break; not a measured facade molding.
v 5.820403 -4.361427 7.120000
v 7.810002 -9.764149 7.120000
v 7.978912 -9.701946 7.120000
v 5.989314 -4.299225 7.120000
v 5.820403 -4.361427 7.280000
v 7.810002 -9.764149 7.280000
v 7.978912 -9.701946 7.280000
v 5.989314 -4.299225 7.280000
f 469 470 471 472
f 473 476 475 474
f 469 473 474 470
f 470 474 475 471
f 471 475 476 472
f 473 469 472 476
g floor-band-l02-e21
# materialClass=concrete-painted
# confidence=source-level-count/proxy-detail
# evidenceIds=source:scan:sketchfab-physci-2025,source:legacy:uplb-virtual-campus-2014,source:index:commons-uplb-buildings
# notes=Procedural level break; not a measured facade molding.
v 7.834505 -9.774618 7.120000
v 23.929802 -2.771920 7.120000
v 23.857991 -2.606865 7.120000
v 7.762693 -9.609563 7.120000
v 7.834505 -9.774618 7.280000
v 23.929802 -2.771920 7.280000
v 23.857991 -2.606865 7.280000
v 7.762693 -9.609563 7.280000
f 477 478 479 480
f 481 484 483 482
f 477 481 482 478
f 478 482 483 479
f 479 483 484 480
f 481 477 480 484
g floor-band-l02-e22
# materialClass=concrete-painted
# confidence=source-level-count/proxy-detail
# evidenceIds=source:scan:sketchfab-physci-2025,source:legacy:uplb-virtual-campus-2014,source:index:commons-uplb-buildings
# notes=Procedural level break; not a measured facade molding.
v 23.983258 -2.791878 7.120000
v 40.634989 -37.639926 7.120000
v 40.797400 -37.562320 7.120000
v 24.145669 -2.714272 7.120000
v 23.983258 -2.791878 7.280000
v 40.634989 -37.639926 7.280000
v 40.797400 -37.562320 7.280000
v 24.145669 -2.714272 7.280000
f 485 486 487 488
f 489 492 491 490
f 485 489 490 486
f 486 490 491 487
f 487 491 492 488
f 489 485 488 492
g floor-band-l02-e23
# materialClass=concrete-painted
# confidence=source-level-count/proxy-detail
# evidenceIds=source:scan:sketchfab-physci-2025,source:legacy:uplb-virtual-campus-2014,source:index:commons-uplb-buildings
# notes=Procedural level break; not a measured facade molding.
v 40.615919 -37.693028 7.120000
v 13.779472 -50.179350 7.120000
v 13.855405 -50.342550 7.120000
v 40.691852 -37.856228 7.120000
v 40.615919 -37.693028 7.280000
v 13.779472 -50.179350 7.280000
v 13.855405 -50.342550 7.280000
v 40.691852 -37.856228 7.280000
f 493 494 495 496
f 497 500 499 498
f 493 497 498 494
f 494 498 499 495
f 495 499 500 496
f 497 493 496 500
g floor-band-l02-e24
# materialClass=concrete-painted
# confidence=source-level-count/proxy-detail
# evidenceIds=source:scan:sketchfab-physci-2025,source:legacy:uplb-virtual-campus-2014,source:index:commons-uplb-buildings
# notes=Procedural level break; not a measured facade molding.
v 13.725200 -50.161082 7.120000
v 6.248397 -36.005780 7.120000
v 6.089235 -36.089848 7.120000
v 13.566038 -50.245151 7.120000
v 13.725200 -50.161082 7.280000
v 6.248397 -36.005780 7.280000
v 6.089235 -36.089848 7.280000
v 13.566038 -50.245151 7.280000
f 501 502 503 504
f 505 508 507 506
f 501 505 506 502
f 502 506 507 503
f 503 507 508 504
f 505 501 504 508
g floor-band-l02-e25
# materialClass=concrete-painted
# confidence=source-level-count/proxy-detail
# evidenceIds=source:scan:sketchfab-physci-2025,source:legacy:uplb-virtual-campus-2014,source:index:commons-uplb-buildings
# notes=Procedural level break; not a measured facade molding.
v 6.220427 -35.952670 7.120000
v 3.938519 -31.606748 7.120000
v 3.779152 -31.690427 7.120000
v 6.061060 -36.036349 7.120000
v 6.220427 -35.952670 7.280000
v 3.938519 -31.606748 7.280000
v 3.779152 -31.690427 7.280000
v 6.061060 -36.036349 7.280000
f 509 510 511 512
f 513 516 515 514
f 509 513 514 510
f 510 514 515 511
f 511 515 516 512
f 513 509 512 516
g floor-band-l02-e26
# materialClass=concrete-painted
# confidence=source-level-count/proxy-detail
# evidenceIds=source:scan:sketchfab-physci-2025,source:legacy:uplb-virtual-campus-2014,source:index:commons-uplb-buildings
# notes=Procedural level break; not a measured facade molding.
v 3.909854 -31.596618 7.120000
v -28.627498 -45.657061 7.120000
v -28.556096 -45.822294 7.120000
v 3.981257 -31.761850 7.120000
v 3.909854 -31.596618 7.280000
v -28.627498 -45.657061 7.280000
v -28.556096 -45.822294 7.280000
v 3.981257 -31.761850 7.280000
f 517 518 519 520
f 521 524 523 522
f 517 521 522 518
f 518 522 523 519
f 519 523 524 520
f 521 517 520 524
g floor-band-l02-e27
# materialClass=concrete-painted
# confidence=source-level-count/proxy-detail
# evidenceIds=source:scan:sketchfab-physci-2025,source:legacy:uplb-virtual-campus-2014,source:index:commons-uplb-buildings
# notes=Procedural level break; not a measured facade molding.
v -28.679434 -45.635645 7.120000
v -35.683334 -28.133910 7.120000
v -35.850449 -28.200787 7.120000
v -28.846549 -45.702522 7.120000
v -28.679434 -45.635645 7.280000
v -35.683334 -28.133910 7.280000
v -35.850449 -28.200787 7.280000
v -28.846549 -45.702522 7.280000
f 525 526 527 528
f 529 532 531 530
f 525 529 530 526
f 526 530 531 527
f 527 531 532 528
f 529 525 528 532
g floor-band-l02-e28
# materialClass=concrete-painted
# confidence=source-level-count/proxy-detail
# evidenceIds=source:scan:sketchfab-physci-2025,source:legacy:uplb-virtual-campus-2014,source:index:commons-uplb-buildings
# notes=Procedural level break; not a measured facade molding.
v -35.662158 -28.080680 7.120000
v -32.748080 -26.733972 7.120000
v -32.823591 -26.570577 7.120000
v -35.737669 -27.917284 7.120000
v -35.662158 -28.080680 7.280000
v -32.748080 -26.733972 7.280000
v -32.823591 -26.570577 7.280000
v -35.737669 -27.917284 7.280000
f 533 534 535 536
f 537 540 539 538
f 533 537 538 534
f 534 538 539 535
f 535 539 540 536
f 537 533 536 540
g floor-band-l02-e29
# materialClass=concrete-painted
# confidence=source-level-count/proxy-detail
# evidenceIds=source:scan:sketchfab-physci-2025,source:legacy:uplb-virtual-campus-2014,source:index:commons-uplb-buildings
# notes=Procedural level break; not a measured facade molding.
v -32.693446 -26.708983 7.120000
v 2.720166 -10.679406 7.120000
v 2.645941 -10.515423 7.120000
v -32.767671 -26.545000 7.120000
v -32.693446 -26.708983 7.280000
v 2.720166 -10.679406 7.280000
v 2.645941 -10.515423 7.280000
v -32.767671 -26.545000 7.280000
f 541 542 543 544
f 545 548 547 546
f 541 545 546 542
f 542 546 547 543
f 543 547 548 544
f 545 541 544 548
g floor-band-l02-e30
# materialClass=concrete-painted
# confidence=source-level-count/proxy-detail
# evidenceIds=source:scan:sketchfab-physci-2025,source:legacy:uplb-virtual-campus-2014,source:index:commons-uplb-buildings
# notes=Procedural level break; not a measured facade molding.
v 2.730047 -10.653025 7.120000
v -0.505977 -3.579434 7.120000
v -0.669661 -3.654317 7.120000
v 2.566362 -10.727907 7.120000
v 2.730047 -10.653025 7.280000
v -0.505977 -3.579434 7.280000
v -0.669661 -3.654317 7.280000
v 2.566362 -10.727907 7.280000
f 549 550 551 552
f 553 556 555 554
f 549 553 554 550
f 550 554 555 551
f 551 555 556 552
f 553 549 552 556
g floor-band-l02-e31
# materialClass=concrete-painted
# confidence=source-level-count/proxy-detail
# evidenceIds=source:scan:sketchfab-physci-2025,source:legacy:uplb-virtual-campus-2014,source:index:commons-uplb-buildings
# notes=Procedural level break; not a measured facade molding.
v -0.532559 -3.569487 7.120000
v -35.534687 -19.436146 7.120000
v -35.460371 -19.600089 7.120000
v -0.458243 -3.733430 7.120000
v -0.532559 -3.569487 7.280000
v -35.534687 -19.436146 7.280000
v -35.460371 -19.600089 7.280000
v -0.458243 -3.733430 7.280000
f 557 558 559 560
f 561 564 563 562
f 557 561 562 558
f 558 562 563 559
f 559 563 564 560
f 561 557 560 564
g floor-band-l02-e32
# materialClass=concrete-painted
# confidence=source-level-count/proxy-detail
# evidenceIds=source:scan:sketchfab-physci-2025,source:legacy:uplb-virtual-campus-2014,source:index:commons-uplb-buildings
# notes=Procedural level break; not a measured facade molding.
v -35.590564 -19.459511 7.120000
v -38.587962 -20.610081 7.120000
v -38.523457 -20.778126 7.120000
v -35.526059 -19.627556 7.120000
v -35.590564 -19.459511 7.280000
v -38.587962 -20.610081 7.280000
v -38.523457 -20.778126 7.280000
v -35.526059 -19.627556 7.280000
f 565 566 567 568
f 569 572 571 570
f 565 569 570 566
f 566 570 571 567
f 567 571 572 568
f 569 565 568 572
g floor-band-l02-e33
# materialClass=concrete-painted
# confidence=source-level-count/proxy-detail
# evidenceIds=source:scan:sketchfab-physci-2025,source:legacy:uplb-virtual-campus-2014,source:index:commons-uplb-buildings
# notes=Procedural level break; not a measured facade molding.
v -38.639894 -20.587284 7.120000
v -45.801517 -2.498003 7.120000
v -45.968878 -2.564262 7.120000
v -38.807255 -20.653543 7.120000
v -38.639894 -20.587284 7.280000
v -45.801517 -2.498003 7.280000
v -45.968878 -2.564262 7.280000
v -38.807255 -20.653543 7.280000
f 573 574 575 576
f 577 580 579 578
f 573 577 578 574
f 574 578 579 575
f 575 579 580 576
f 577 573 576 580
g front-window-f01-b01
# materialClass=painted-metal-glass
# confidence=medium-proxy
# evidenceIds=source:scan:sketchfab-physci-2025,source:legacy:uplb-virtual-campus-2014,source:index:commons-uplb-buildings
# notes=Reference/source-tag-informed facade proxy on provisional front edge; not a measured opening.
v -42.302884 -0.831944 1.255000
v -39.498531 0.451104 1.255000
v -39.531815 0.523851 1.255000
v -42.336168 -0.759197 1.255000
v -42.302884 -0.831944 2.705000
v -39.498531 0.451104 2.705000
v -39.531815 0.523851 2.705000
v -42.336168 -0.759197 2.705000
f 581 582 583 584
f 585 588 587 586
f 581 585 586 582
f 582 586 587 583
f 583 587 588 584
f 585 581 584 588
g front-window-f01-b02
# materialClass=painted-metal-glass
# confidence=medium-proxy
# evidenceIds=source:scan:sketchfab-physci-2025,source:legacy:uplb-virtual-campus-2014,source:index:commons-uplb-buildings
# notes=Reference/source-tag-informed facade proxy on provisional front edge; not a measured opening.
v -38.407950 0.950067 1.255000
v -35.603597 2.233115 1.255000
v -35.636881 2.305862 1.255000
v -38.441233 1.022814 1.255000
v -38.407950 0.950067 2.705000
v -35.603597 2.233115 2.705000
v -35.636881 2.305862 2.705000
v -38.441233 1.022814 2.705000
f 589 590 591 592
f 593 596 595 594
f 589 593 594 590
f 590 594 595 591
f 591 595 596 592
f 593 589 592 596
g front-window-f01-b03
# materialClass=painted-metal-glass
# confidence=medium-proxy
# evidenceIds=source:scan:sketchfab-physci-2025,source:legacy:uplb-virtual-campus-2014,source:index:commons-uplb-buildings
# notes=Reference/source-tag-informed facade proxy on provisional front edge; not a measured opening.
v -34.513016 2.732078 1.255000
v -31.708663 4.015126 1.255000
v -31.741947 4.087873 1.255000
v -34.546299 2.804825 1.255000
v -34.513016 2.732078 2.705000
v -31.708663 4.015126 2.705000
v -31.741947 4.087873 2.705000
v -34.546299 2.804825 2.705000
f 597 598 599 600
f 601 604 603 602
f 597 601 602 598
f 598 602 603 599
f 599 603 604 600
f 601 597 600 604
g front-window-f01-b04
# materialClass=painted-metal-glass
# confidence=medium-proxy
# evidenceIds=source:scan:sketchfab-physci-2025,source:legacy:uplb-virtual-campus-2014,source:index:commons-uplb-buildings
# notes=Reference/source-tag-informed facade proxy on provisional front edge; not a measured opening.
v -30.618082 4.514089 1.255000
v -27.813729 5.797137 1.255000
v -27.847012 5.869884 1.255000
v -30.651365 4.586836 1.255000
v -30.618082 4.514089 2.705000
v -27.813729 5.797137 2.705000
v -27.847012 5.869884 2.705000
v -30.651365 4.586836 2.705000
f 605 606 607 608
f 609 612 611 610
f 605 609 610 606
f 606 610 611 607
f 607 611 612 608
f 609 605 608 612
g front-window-f01-b05
# materialClass=painted-metal-glass
# confidence=medium-proxy
# evidenceIds=source:scan:sketchfab-physci-2025,source:legacy:uplb-virtual-campus-2014,source:index:commons-uplb-buildings
# notes=Reference/source-tag-informed facade proxy on provisional front edge; not a measured opening.
v -26.723147 6.296100 1.255000
v -23.918795 7.579148 1.255000
v -23.952078 7.651895 1.255000
v -26.756431 6.368847 1.255000
v -26.723147 6.296100 2.705000
v -23.918795 7.579148 2.705000
v -23.952078 7.651895 2.705000
v -26.756431 6.368847 2.705000
f 613 614 615 616
f 617 620 619 618
f 613 617 618 614
f 614 618 619 615
f 615 619 620 616
f 617 613 616 620
g front-window-f01-b06
# materialClass=painted-metal-glass
# confidence=medium-proxy
# evidenceIds=source:scan:sketchfab-physci-2025,source:legacy:uplb-virtual-campus-2014,source:index:commons-uplb-buildings
# notes=Reference/source-tag-informed facade proxy on provisional front edge; not a measured opening.
v -22.828213 8.078111 1.255000
v -20.023861 9.361159 1.255000
v -20.057144 9.433906 1.255000
v -22.861497 8.150858 1.255000
v -22.828213 8.078111 2.705000
v -20.023861 9.361159 2.705000
v -20.057144 9.433906 2.705000
v -22.861497 8.150858 2.705000
f 621 622 623 624
f 625 628 627 626
f 621 625 626 622
f 622 626 627 623
f 623 627 628 624
f 625 621 624 628
g front-window-f01-b07
# materialClass=painted-metal-glass
# confidence=medium-proxy
# evidenceIds=source:scan:sketchfab-physci-2025,source:legacy:uplb-virtual-campus-2014,source:index:commons-uplb-buildings
# notes=Reference/source-tag-informed facade proxy on provisional front edge; not a measured opening.
v -18.933279 9.860122 1.255000
v -16.128926 11.143170 1.255000
v -16.162210 11.215917 1.255000
v -18.966562 9.932869 1.255000
v -18.933279 9.860122 2.705000
v -16.128926 11.143170 2.705000
v -16.162210 11.215917 2.705000
v -18.966562 9.932869 2.705000
f 629 630 631 632
f 633 636 635 634
f 629 633 634 630
f 630 634 635 631
f 631 635 636 632
f 633 629 632 636
g front-window-f01-b08
# materialClass=painted-metal-glass
# confidence=medium-proxy
# evidenceIds=source:scan:sketchfab-physci-2025,source:legacy:uplb-virtual-campus-2014,source:index:commons-uplb-buildings
# notes=Reference/source-tag-informed facade proxy on provisional front edge; not a measured opening.
v -15.038345 11.642133 1.255000
v -12.233992 12.925181 1.255000
v -12.267276 12.997928 1.255000
v -15.071628 11.714880 1.255000
v -15.038345 11.642133 2.705000
v -12.233992 12.925181 2.705000
v -12.267276 12.997928 2.705000
v -15.071628 11.714880 2.705000
f 637 638 639 640
f 641 644 643 642
f 637 641 642 638
f 638 642 643 639
f 639 643 644 640
f 641 637 640 644
g front-window-f02-b01
# materialClass=painted-metal-glass
# confidence=medium-proxy
# evidenceIds=source:scan:sketchfab-physci-2025,source:legacy:uplb-virtual-campus-2014,source:index:commons-uplb-buildings
# notes=Reference/source-tag-informed facade proxy on provisional front edge; not a measured opening.
v -42.302884 -0.831944 4.855000
v -39.498531 0.451104 4.855000
v -39.531815 0.523851 4.855000
v -42.336168 -0.759197 4.855000
v -42.302884 -0.831944 6.305000
v -39.498531 0.451104 6.305000
v -39.531815 0.523851 6.305000
v -42.336168 -0.759197 6.305000
f 645 646 647 648
f 649 652 651 650
f 645 649 650 646
f 646 650 651 647
f 647 651 652 648
f 649 645 648 652
g front-window-f02-b02
# materialClass=painted-metal-glass
# confidence=medium-proxy
# evidenceIds=source:scan:sketchfab-physci-2025,source:legacy:uplb-virtual-campus-2014,source:index:commons-uplb-buildings
# notes=Reference/source-tag-informed facade proxy on provisional front edge; not a measured opening.
v -38.407950 0.950067 4.855000
v -35.603597 2.233115 4.855000
v -35.636881 2.305862 4.855000
v -38.441233 1.022814 4.855000
v -38.407950 0.950067 6.305000
v -35.603597 2.233115 6.305000
v -35.636881 2.305862 6.305000
v -38.441233 1.022814 6.305000
f 653 654 655 656
f 657 660 659 658
f 653 657 658 654
f 654 658 659 655
f 655 659 660 656
f 657 653 656 660
g front-window-f02-b03
# materialClass=painted-metal-glass
# confidence=medium-proxy
# evidenceIds=source:scan:sketchfab-physci-2025,source:legacy:uplb-virtual-campus-2014,source:index:commons-uplb-buildings
# notes=Reference/source-tag-informed facade proxy on provisional front edge; not a measured opening.
v -34.513016 2.732078 4.855000
v -31.708663 4.015126 4.855000
v -31.741947 4.087873 4.855000
v -34.546299 2.804825 4.855000
v -34.513016 2.732078 6.305000
v -31.708663 4.015126 6.305000
v -31.741947 4.087873 6.305000
v -34.546299 2.804825 6.305000
f 661 662 663 664
f 665 668 667 666
f 661 665 666 662
f 662 666 667 663
f 663 667 668 664
f 665 661 664 668
g front-window-f02-b04
# materialClass=painted-metal-glass
# confidence=medium-proxy
# evidenceIds=source:scan:sketchfab-physci-2025,source:legacy:uplb-virtual-campus-2014,source:index:commons-uplb-buildings
# notes=Reference/source-tag-informed facade proxy on provisional front edge; not a measured opening.
v -30.618082 4.514089 4.855000
v -27.813729 5.797137 4.855000
v -27.847012 5.869884 4.855000
v -30.651365 4.586836 4.855000
v -30.618082 4.514089 6.305000
v -27.813729 5.797137 6.305000
v -27.847012 5.869884 6.305000
v -30.651365 4.586836 6.305000
f 669 670 671 672
f 673 676 675 674
f 669 673 674 670
f 670 674 675 671
f 671 675 676 672
f 673 669 672 676
g front-window-f02-b05
# materialClass=painted-metal-glass
# confidence=medium-proxy
# evidenceIds=source:scan:sketchfab-physci-2025,source:legacy:uplb-virtual-campus-2014,source:index:commons-uplb-buildings
# notes=Reference/source-tag-informed facade proxy on provisional front edge; not a measured opening.
v -26.723147 6.296100 4.855000
v -23.918795 7.579148 4.855000
v -23.952078 7.651895 4.855000
v -26.756431 6.368847 4.855000
v -26.723147 6.296100 6.305000
v -23.918795 7.579148 6.305000
v -23.952078 7.651895 6.305000
v -26.756431 6.368847 6.305000
f 677 678 679 680
f 681 684 683 682
f 677 681 682 678
f 678 682 683 679
f 679 683 684 680
f 681 677 680 684
g front-window-f02-b06
# materialClass=painted-metal-glass
# confidence=medium-proxy
# evidenceIds=source:scan:sketchfab-physci-2025,source:legacy:uplb-virtual-campus-2014,source:index:commons-uplb-buildings
# notes=Reference/source-tag-informed facade proxy on provisional front edge; not a measured opening.
v -22.828213 8.078111 4.855000
v -20.023861 9.361159 4.855000
v -20.057144 9.433906 4.855000
v -22.861497 8.150858 4.855000
v -22.828213 8.078111 6.305000
v -20.023861 9.361159 6.305000
v -20.057144 9.433906 6.305000
v -22.861497 8.150858 6.305000
f 685 686 687 688
f 689 692 691 690
f 685 689 690 686
f 686 690 691 687
f 687 691 692 688
f 689 685 688 692
g front-window-f02-b07
# materialClass=painted-metal-glass
# confidence=medium-proxy
# evidenceIds=source:scan:sketchfab-physci-2025,source:legacy:uplb-virtual-campus-2014,source:index:commons-uplb-buildings
# notes=Reference/source-tag-informed facade proxy on provisional front edge; not a measured opening.
v -18.933279 9.860122 4.855000
v -16.128926 11.143170 4.855000
v -16.162210 11.215917 4.855000
v -18.966562 9.932869 4.855000
v -18.933279 9.860122 6.305000
v -16.128926 11.143170 6.305000
v -16.162210 11.215917 6.305000
v -18.966562 9.932869 6.305000
f 693 694 695 696
f 697 700 699 698
f 693 697 698 694
f 694 698 699 695
f 695 699 700 696
f 697 693 696 700
g front-window-f02-b08
# materialClass=painted-metal-glass
# confidence=medium-proxy
# evidenceIds=source:scan:sketchfab-physci-2025,source:legacy:uplb-virtual-campus-2014,source:index:commons-uplb-buildings
# notes=Reference/source-tag-informed facade proxy on provisional front edge; not a measured opening.
v -15.038345 11.642133 4.855000
v -12.233992 12.925181 4.855000
v -12.267276 12.997928 4.855000
v -15.071628 11.714880 4.855000
v -15.038345 11.642133 6.305000
v -12.233992 12.925181 6.305000
v -12.267276 12.997928 6.305000
v -15.071628 11.714880 6.305000
f 701 702 703 704
f 705 708 707 706
f 701 705 706 702
f 702 706 707 703
f 703 707 708 704
f 705 701 704 708
g front-window-f03-b01
# materialClass=painted-metal-glass
# confidence=medium-proxy
# evidenceIds=source:scan:sketchfab-physci-2025,source:legacy:uplb-virtual-campus-2014,source:index:commons-uplb-buildings
# notes=Reference/source-tag-informed facade proxy on provisional front edge; not a measured opening.
v -42.302884 -0.831944 8.455000
v -39.498531 0.451104 8.455000
v -39.531815 0.523851 8.455000
v -42.336168 -0.759197 8.455000
v -42.302884 -0.831944 9.905000
v -39.498531 0.451104 9.905000
v -39.531815 0.523851 9.905000
v -42.336168 -0.759197 9.905000
f 709 710 711 712
f 713 716 715 714
f 709 713 714 710
f 710 714 715 711
f 711 715 716 712
f 713 709 712 716
g front-window-f03-b02
# materialClass=painted-metal-glass
# confidence=medium-proxy
# evidenceIds=source:scan:sketchfab-physci-2025,source:legacy:uplb-virtual-campus-2014,source:index:commons-uplb-buildings
# notes=Reference/source-tag-informed facade proxy on provisional front edge; not a measured opening.
v -38.407950 0.950067 8.455000
v -35.603597 2.233115 8.455000
v -35.636881 2.305862 8.455000
v -38.441233 1.022814 8.455000
v -38.407950 0.950067 9.905000
v -35.603597 2.233115 9.905000
v -35.636881 2.305862 9.905000
v -38.441233 1.022814 9.905000
f 717 718 719 720
f 721 724 723 722
f 717 721 722 718
f 718 722 723 719
f 719 723 724 720
f 721 717 720 724
g front-window-f03-b03
# materialClass=painted-metal-glass
# confidence=medium-proxy
# evidenceIds=source:scan:sketchfab-physci-2025,source:legacy:uplb-virtual-campus-2014,source:index:commons-uplb-buildings
# notes=Reference/source-tag-informed facade proxy on provisional front edge; not a measured opening.
v -34.513016 2.732078 8.455000
v -31.708663 4.015126 8.455000
v -31.741947 4.087873 8.455000
v -34.546299 2.804825 8.455000
v -34.513016 2.732078 9.905000
v -31.708663 4.015126 9.905000
v -31.741947 4.087873 9.905000
v -34.546299 2.804825 9.905000
f 725 726 727 728
f 729 732 731 730
f 725 729 730 726
f 726 730 731 727
f 727 731 732 728
f 729 725 728 732
g front-window-f03-b04
# materialClass=painted-metal-glass
# confidence=medium-proxy
# evidenceIds=source:scan:sketchfab-physci-2025,source:legacy:uplb-virtual-campus-2014,source:index:commons-uplb-buildings
# notes=Reference/source-tag-informed facade proxy on provisional front edge; not a measured opening.
v -30.618082 4.514089 8.455000
v -27.813729 5.797137 8.455000
v -27.847012 5.869884 8.455000
v -30.651365 4.586836 8.455000
v -30.618082 4.514089 9.905000
v -27.813729 5.797137 9.905000
v -27.847012 5.869884 9.905000
v -30.651365 4.586836 9.905000
f 733 734 735 736
f 737 740 739 738
f 733 737 738 734
f 734 738 739 735
f 735 739 740 736
f 737 733 736 740
g front-window-f03-b05
# materialClass=painted-metal-glass
# confidence=medium-proxy
# evidenceIds=source:scan:sketchfab-physci-2025,source:legacy:uplb-virtual-campus-2014,source:index:commons-uplb-buildings
# notes=Reference/source-tag-informed facade proxy on provisional front edge; not a measured opening.
v -26.723147 6.296100 8.455000
v -23.918795 7.579148 8.455000
v -23.952078 7.651895 8.455000
v -26.756431 6.368847 8.455000
v -26.723147 6.296100 9.905000
v -23.918795 7.579148 9.905000
v -23.952078 7.651895 9.905000
v -26.756431 6.368847 9.905000
f 741 742 743 744
f 745 748 747 746
f 741 745 746 742
f 742 746 747 743
f 743 747 748 744
f 745 741 744 748
g front-window-f03-b06
# materialClass=painted-metal-glass
# confidence=medium-proxy
# evidenceIds=source:scan:sketchfab-physci-2025,source:legacy:uplb-virtual-campus-2014,source:index:commons-uplb-buildings
# notes=Reference/source-tag-informed facade proxy on provisional front edge; not a measured opening.
v -22.828213 8.078111 8.455000
v -20.023861 9.361159 8.455000
v -20.057144 9.433906 8.455000
v -22.861497 8.150858 8.455000
v -22.828213 8.078111 9.905000
v -20.023861 9.361159 9.905000
v -20.057144 9.433906 9.905000
v -22.861497 8.150858 9.905000
f 749 750 751 752
f 753 756 755 754
f 749 753 754 750
f 750 754 755 751
f 751 755 756 752
f 753 749 752 756
g front-window-f03-b07
# materialClass=painted-metal-glass
# confidence=medium-proxy
# evidenceIds=source:scan:sketchfab-physci-2025,source:legacy:uplb-virtual-campus-2014,source:index:commons-uplb-buildings
# notes=Reference/source-tag-informed facade proxy on provisional front edge; not a measured opening.
v -18.933279 9.860122 8.455000
v -16.128926 11.143170 8.455000
v -16.162210 11.215917 8.455000
v -18.966562 9.932869 8.455000
v -18.933279 9.860122 9.905000
v -16.128926 11.143170 9.905000
v -16.162210 11.215917 9.905000
v -18.966562 9.932869 9.905000
f 757 758 759 760
f 761 764 763 762
f 757 761 762 758
f 758 762 763 759
f 759 763 764 760
f 761 757 760 764
g front-window-f03-b08
# materialClass=painted-metal-glass
# confidence=medium-proxy
# evidenceIds=source:scan:sketchfab-physci-2025,source:legacy:uplb-virtual-campus-2014,source:index:commons-uplb-buildings
# notes=Reference/source-tag-informed facade proxy on provisional front edge; not a measured opening.
v -15.038345 11.642133 8.455000
v -12.233992 12.925181 8.455000
v -12.267276 12.997928 8.455000
v -15.071628 11.714880 8.455000
v -15.038345 11.642133 9.905000
v -12.233992 12.925181 9.905000
v -12.267276 12.997928 9.905000
v -15.071628 11.714880 9.905000
f 765 766 767 768
f 769 772 771 770
f 765 769 770 766
f 766 770 771 767
f 767 771 772 768
f 769 765 768 772
