# Generated by tools.modeling.assembly
# featureId=uplb:building:baker-hall
# version=baker-v0.3-lod2
# identityStatus=canonical
# sourceFeatureId=uplb:building:baker-hall
o uplb_building_baker-hall
g Baker__Shell_A
# materialClass=concrete-painted
# confidence=source-supported-footprint/provisional-height
# evidenceIds=source:canonical:osm-baker-way-37449973
# notes=Canonical footprint preserved; local origin is projected footprint centroid.
v -20.864862 -16.026839 0.000000
v -24.390419 -18.246545 0.000000
v -24.390419 -18.246545 8.200000
v -20.864862 -16.026839 8.200000
v -27.549154 -13.310023 0.000000
v -27.549154 -13.310023 8.200000
v -30.633312 -8.506838 0.000000
v -30.633312 -8.506838 8.200000
v -27.107755 -6.287133 0.000000
v -27.107755 -6.287133 8.200000
v -29.999827 -1.784142 0.000000
v -29.999827 -1.784142 8.200000
v -4.408109 14.543624 0.000000
v -4.408109 14.543624 8.200000
v 15.746726 27.172288 0.000000
v 15.746726 27.172288 8.200000
v 31.583521 2.478320 0.000000
v 31.583521 2.478320 8.200000
v -14.163051 -26.478141 0.000000
v -14.163051 -26.478141 8.200000
f 1 2 3 4
f 2 5 6 3
f 5 7 8 6
f 7 9 10 8
f 9 11 12 10
f 11 13 14 12
f 13 15 16 14
f 15 17 18 16
f 17 19 20 18
f 19 1 4 20
f 5 2 1
f 4 3 6
f 9 7 5
f 6 8 10
f 13 11 9
f 10 12 14
f 17 15 13
f 14 16 18
f 1 19 13
f 14 20 4
f 9 5 1
f 4 6 10
f 17 13 19
f 20 14 18
f 9 1 13
f 14 4 10
g Baker__Roof
# materialClass=corrugated-metal-green
# confidence=medium-low-visual
# evidenceIds=source:image:commons-baker-2009,source:image:commons-baker-2017,source:image:commons-baker-2023
# notes=Roof is a replaceable envelope for multi-angle visual QA; ridge/eave geometry is not survey-derived.
v 10.108040 3.086794 8.150000
v -5.523641 -6.807677 8.150000
v 2.292199 -1.860442 10.200000
v 22.944110 -17.192143 8.150000
v 7.312430 -27.086614 8.150000
v 15.128270 -22.139378 10.200000
f 21 23 22
f 24 25 26
f 21 24 26 23
f 23 26 25 22
f 21 22 25 24
