# Generated by tools.modeling.assembly
# featureId=uplb:building:baker-hall
# version=baker-v0.3-lod0
# identityStatus=canonical
# sourceFeatureId=uplb:building:baker-hall
o uplb_building_baker-hall
g Baker__Shell_A
# materialClass=concrete-painted
# confidence=source-supported-footprint/provisional-height
# evidenceIds=source:canonical:osm-baker-way-37449973
# notes=Canonical footprint preserved; local origin is projected footprint centroid.
v -20.864862 -16.026839 0.000000
v -24.390419 -18.246545 0.000000
v -24.390419 -18.246545 8.200000
v -20.864862 -16.026839 8.200000
v -27.549154 -13.310023 0.000000
v -27.549154 -13.310023 8.200000
v -30.633312 -8.506838 0.000000
v -30.633312 -8.506838 8.200000
v -27.107755 -6.287133 0.000000
v -27.107755 -6.287133 8.200000
v -29.999827 -1.784142 0.000000
v -29.999827 -1.784142 8.200000
v -4.408109 14.543624 0.000000
v -4.408109 14.543624 8.200000
v 15.746726 27.172288 0.000000
v 15.746726 27.172288 8.200000
v 31.583521 2.478320 0.000000
v 31.583521 2.478320 8.200000
v -14.163051 -26.478141 0.000000
v -14.163051 -26.478141 8.200000
f 1 2 3 4
f 2 5 6 3
f 5 7 8 6
f 7 9 10 8
f 9 11 12 10
f 11 13 14 12
f 13 15 16 14
f 15 17 18 16
f 17 19 20 18
f 19 1 4 20
f 5 2 1
f 4 3 6
f 9 7 5
f 6 8 10
f 13 11 9
f 10 12 14
f 17 15 13
f 14 16 18
f 1 19 13
f 14 20 4
f 9 5 1
f 4 6 10
f 17 13 19
f 20 14 18
f 9 1 13
f 14 4 10
g Baker__Portico
# materialClass=concrete-painted
# confidence=high-visual
# evidenceIds=source:image:commons-baker-2008,source:image:commons-baker-2009,source:image:commons-baker-2017,source:image:commons-baker-2023
# notes=Reference-derived front portico silhouette; dimensions remain provisional.
v 15.976854 -7.400318 3.800000
v 1.443616 -16.599502 3.800000
v 2.673739 -18.542900 3.800000
v 17.206977 -9.343716 3.800000
v 15.976854 -7.400318 4.080000
v 1.443616 -16.599502 4.080000
v 2.673739 -18.542900 4.080000
v 17.206977 -9.343716 4.080000
v 14.908183 -10.059113 0.000000
v 14.443457 -10.353273 0.000000
v 14.737617 -10.817999 0.000000
v 15.202343 -10.523839 0.000000
v 14.908183 -10.059113 3.800000
v 14.443457 -10.353273 3.800000
v 14.737617 -10.817999 3.800000
v 15.202343 -10.523839 3.800000
v 14.552514 -10.609704 4.080000
v 14.674313 -10.721967 4.080000
v 14.835925 -10.758291 4.080000
v 14.994047 -10.708942 4.080000
v 15.106311 -10.587143 4.080000
v 15.142635 -10.425531 4.080000
v 15.093286 -10.267408 4.080000
v 14.971487 -10.155145 4.080000
v 14.809874 -10.118821 4.080000
v 14.651752 -10.168170 4.080000
v 14.539489 -10.289969 4.080000
v 14.503165 -10.451581 4.080000
v 14.552514 -10.609704 8.130000
v 14.674313 -10.721967 8.130000
v 14.835925 -10.758291 8.130000
v 14.994047 -10.708942 8.130000
v 15.106311 -10.587143 8.130000
v 15.142635 -10.425531 8.130000
v 15.093286 -10.267408 8.130000
v 14.971487 -10.155145 8.130000
v 14.809874 -10.118821 8.130000
v 14.651752 -10.168170 8.130000
v 14.539489 -10.289969 8.130000
v 14.503165 -10.451581 8.130000
v 11.528360 -12.198458 0.000000
v 11.063634 -12.492618 0.000000
v 11.357794 -12.957344 0.000000
v 11.822520 -12.663184 0.000000
v 11.528360 -12.198458 3.800000
v 11.063634 -12.492618 3.800000
v 11.357794 -12.957344 3.800000
v 11.822520 -12.663184 3.800000
v 11.172691 -12.749049 4.080000
v 11.294490 -12.861312 4.080000
v 11.456102 -12.897636 4.080000
v 11.614225 -12.848287 4.080000
v 11.726488 -12.726488 4.080000
v 11.762812 -12.564876 4.080000
v 11.713463 -12.406753 4.080000
v 11.591664 -12.294490 4.080000
v 11.430052 -12.258166 4.080000
v 11.271929 -12.307515 4.080000
v 11.159666 -12.429314 4.080000
v 11.123342 -12.590926 4.080000
v 11.172691 -12.749049 8.130000
v 11.294490 -12.861312 8.130000
v 11.456102 -12.897636 8.130000
v 11.614225 -12.848287 8.130000
v 11.726488 -12.726488 8.130000
v 11.762812 -12.564876 8.130000
v 11.713463 -12.406753 8.130000
v 11.591664 -12.294490 8.130000
v 11.430052 -12.258166 8.130000
v 11.271929 -12.307515 8.130000
v 11.159666 -12.429314 8.130000
v 11.123342 -12.590926 8.130000
v 8.148537 -14.337803 0.000000
v 7.683811 -14.631963 0.000000
v 7.977971 -15.096689 0.000000
v 8.442697 -14.802529 0.000000
v 8.148537 -14.337803 3.800000
v 7.683811 -14.631963 3.800000
v 7.977971 -15.096689 3.800000
v 8.442697 -14.802529 3.800000
v 7.792868 -14.888394 4.080000
v 7.914667 -15.000657 4.080000
v 8.076279 -15.036981 4.080000
v 8.234402 -14.987632 4.080000
v 8.346665 -14.865833 4.080000
v 8.382989 -14.704221 4.080000
v 8.333640 -14.546099 4.080000
v 8.211841 -14.433835 4.080000
v 8.050229 -14.397511 4.080000
v 7.892106 -14.446860 4.080000
v 7.779843 -14.568659 4.080000
v 7.743519 -14.730272 4.080000
v 7.792868 -14.888394 8.130000
v 7.914667 -15.000657 8.130000
v 8.076279 -15.036981 8.130000
v 8.234402 -14.987632 8.130000
v 8.346665 -14.865833 8.130000
v 8.382989 -14.704221 8.130000
v 8.333640 -14.546099 8.130000
v 8.211841 -14.433835 8.130000
v 8.050229 -14.397511 8.130000
v 7.892106 -14.446860 8.130000
v 7.779843 -14.568659 8.130000
v 7.743519 -14.730272 8.130000
v 4.768714 -16.477149 0.000000
v 4.303988 -16.771309 0.000000
v 4.598148 -17.236034 0.000000
v 5.062874 -16.941874 0.000000
v 4.768714 -16.477149 3.800000
v 4.303988 -16.771309 3.800000
v 4.598148 -17.236034 3.800000
v 5.062874 -16.941874 3.800000
v 4.413045 -17.027739 4.080000
v 4.534844 -17.140002 4.080000
v 4.696457 -17.176326 4.080000
v 4.854579 -17.126977 4.080000
v 4.966842 -17.005179 4.080000
v 5.003166 -16.843566 4.080000
v 4.953817 -16.685444 4.080000
v 4.832018 -16.573180 4.080000
v 4.670406 -16.536857 4.080000
v 4.512284 -16.586206 4.080000
v 4.400020 -16.708004 4.080000
v 4.363696 -16.869617 4.080000
v 4.413045 -17.027739 8.130000
v 4.534844 -17.140002 8.130000
v 4.696457 -17.176326 8.130000
v 4.854579 -17.126977 8.130000
v 4.966842 -17.005179 8.130000
v 5.003166 -16.843566 8.130000
v 4.953817 -16.685444 8.130000
v 4.832018 -16.573180 8.130000
v 4.670406 -16.536857 8.130000
v 4.512284 -16.586206 8.130000
v 4.400020 -16.708004 8.130000
v 4.363696 -16.869617 8.130000
v 17.174887 -9.293019 4.100000
v 2.641649 -18.492203 4.100000
v 2.727223 -18.627396 4.100000
v 17.260461 -9.428212 4.100000
v 17.174887 -9.293019 4.260000
v 2.641649 -18.492203 4.260000
v 2.727223 -18.627396 4.260000
v 17.260461 -9.428212 4.260000
v 17.169539 -9.284569 4.860000
v 2.636301 -18.483753 4.860000
v 2.732571 -18.635845 4.860000
v 17.265809 -9.436661 4.860000
v 17.169539 -9.284569 5.040000
v 2.636301 -18.483753 5.040000
v 2.732571 -18.635845 5.040000
v 17.265809 -9.436661 5.040000
v 16.332477 -7.027280 7.740000
v 0.954283 -16.761301 7.740000
v 2.318116 -18.915938 7.740000
v 17.696310 -9.181917 7.740000
v 16.332477 -7.027280 8.160000
v 0.954283 -16.761301 8.160000
v 2.318116 -18.915938 8.160000
v 17.696310 -9.181917 8.160000
v 16.730858 -9.591830 4.205000
v 16.621014 -9.661359 4.205000
v 16.690543 -9.771203 4.205000
v 16.800387 -9.701675 4.205000
v 16.730858 -9.591830 4.925000
v 16.621014 -9.661359 4.925000
v 16.690543 -9.771203 4.925000
v 16.800387 -9.701675 4.925000
v 15.690913 -10.250091 4.205000
v 15.581069 -10.319619 4.205000
v 15.650597 -10.429463 4.205000
v 15.760442 -10.359935 4.205000
v 15.690913 -10.250091 4.925000
v 15.581069 -10.319619 4.925000
v 15.650597 -10.429463 4.925000
v 15.760442 -10.359935 4.925000
v 14.650967 -10.908351 4.205000
v 14.541123 -10.977879 4.205000
v 14.610652 -11.087724 4.205000
v 14.720496 -11.018195 4.205000
v 14.650967 -10.908351 4.925000
v 14.541123 -10.977879 4.925000
v 14.610652 -11.087724 4.925000
v 14.720496 -11.018195 4.925000
v 13.611022 -11.566611 4.205000
v 13.501178 -11.636139 4.205000
v 13.570706 -11.745984 4.205000
v 13.680551 -11.676455 4.205000
v 13.611022 -11.566611 4.925000
v 13.501178 -11.636139 4.925000
v 13.570706 -11.745984 4.925000
v 13.680551 -11.676455 4.925000
v 12.571076 -12.224871 4.205000
v 12.461232 -12.294399 4.205000
v 12.530761 -12.404244 4.205000
v 12.640605 -12.334715 4.205000
v 12.571076 -12.224871 4.925000
v 12.461232 -12.294399 4.925000
v 12.530761 -12.404244 4.925000
v 12.640605 -12.334715 4.925000
v 11.531131 -12.883131 4.205000
v 11.421287 -12.952659 4.205000
v 11.490815 -13.062504 4.205000
v 11.600660 -12.992975 4.205000
v 11.531131 -12.883131 4.925000
v 11.421287 -12.952659 4.925000
v 11.490815 -13.062504 4.925000
v 11.600660 -12.992975 4.925000
v 10.491185 -13.541391 4.205000
v 10.381341 -13.610919 4.205000
v 10.450870 -13.720764 4.205000
v 10.560714 -13.651235 4.205000
v 10.491185 -13.541391 4.925000
v 10.381341 -13.610919 4.925000
v 10.450870 -13.720764 4.925000
v 10.560714 -13.651235 4.925000
v 9.451240 -14.199651 4.205000
v 9.341396 -14.269180 4.205000
v 9.410924 -14.379024 4.205000
v 9.520769 -14.309495 4.205000
v 9.451240 -14.199651 4.925000
v 9.341396 -14.269180 4.925000
v 9.410924 -14.379024 4.925000
v 9.520769 -14.309495 4.925000
v 8.411294 -14.857911 4.205000
v 8.301450 -14.927440 4.205000
v 8.370979 -15.037284 4.205000
v 8.480823 -14.967755 4.205000
v 8.411294 -14.857911 4.925000
v 8.301450 -14.927440 4.925000
v 8.370979 -15.037284 4.925000
v 8.480823 -14.967755 4.925000
v 7.371349 -15.516171 4.205000
v 7.261505 -15.585700 4.205000
v 7.331033 -15.695544 4.205000
v 7.440878 -15.626015 4.205000
v 7.371349 -15.516171 4.925000
v 7.261505 -15.585700 4.925000
v 7.331033 -15.695544 4.925000
v 7.440878 -15.626015 4.925000
v 6.331403 -16.174431 4.205000
v 6.221559 -16.243960 4.205000
v 6.291088 -16.353804 4.205000
v 6.400932 -16.284275 4.205000
v 6.331403 -16.174431 4.925000
v 6.221559 -16.243960 4.925000
v 6.291088 -16.353804 4.925000
v 6.400932 -16.284275 4.925000
v 5.291458 -16.832691 4.205000
v 5.181614 -16.902220 4.205000
v 5.251142 -17.012064 4.205000
v 5.360987 -16.942535 4.205000
v 5.291458 -16.832691 4.925000
v 5.181614 -16.902220 4.925000
v 5.251142 -17.012064 4.925000
v 5.360987 -16.942535 4.925000
v 4.251513 -17.490951 4.205000
v 4.141668 -17.560480 4.205000
v 4.211197 -17.670324 4.205000
v 4.321041 -17.600795 4.205000
v 4.251513 -17.490951 4.925000
v 4.141668 -17.560480 4.925000
v 4.211197 -17.670324 4.925000
v 4.321041 -17.600795 4.925000
v 3.211567 -18.149211 4.205000
v 3.101723 -18.218740 4.205000
v 3.171252 -18.328584 4.205000
v 3.281096 -18.259055 4.205000
v 3.211567 -18.149211 4.925000
v 3.101723 -18.218740 4.925000
v 3.171252 -18.328584 4.925000
v 3.281096 -18.259055 4.925000
f 21 22 23 24
f 25 28 27 26
f 21 25 26 22
f 22 26 27 23
f 23 27 28 24
f 25 21 24 28
f 29 30 31 32
f 33 36 35 34
f 29 33 34 30
f 30 34 35 31
f 31 35 36 32
f 33 29 32 36
f 37 38 50 49
f 38 39 51 50
f 39 40 52 51
f 40 41 53 52
f 41 42 54 53
f 42 43 55 54
f 43 44 56 55
f 44 45 57 56
f 45 46 58 57
f 46 47 59 58
f 47 48 60 59
f 48 37 49 60
f 48 47 46 45 44 43 42 41 40 39 38 37
f 49 50 51 52 53 54 55 56 57 58 59 60
f 61 62 63 64
f 65 68 67 66
f 61 65 66 62
f 62 66 67 63
f 63 67 68 64
f 65 61 64 68
f 69 70 82 81
f 70 71 83 82
f 71 72 84 83
f 72 73 85 84
f 73 74 86 85
f 74 75 87 86
f 75 76 88 87
f 76 77 89 88
f 77 78 90 89
f 78 79 91 90
f 79 80 92 91
f 80 69 81 92
f 80 79 78 77 76 75 74 73 72 71 70 69
f 81 82 83 84 85 86 87 88 89 90 91 92
f 93 94 95 96
f 97 100 99 98
f 93 97 98 94
f 94 98 99 95
f 95 99 100 96
f 97 93 96 100
f 101 102 114 113
f 102 103 115 114
f 103 104 116 115
f 104 105 117 116
f 105 106 118 117
f 106 107 119 118
f 107 108 120 119
f 108 109 121 120
f 109 110 122 121
f 110 111 123 122
f 111 112 124 123
f 112 101 113 124
f 112 111 110 109 108 107 106 105 104 103 102 101
f 113 114 115 116 117 118 119 120 121 122 123 124
f 125 126 127 128
f 129 132 131 130
f 125 129 130 126
f 126 130 131 127
f 127 131 132 128
f 129 125 128 132
f 133 134 146 145
f 134 135 147 146
f 135 136 148 147
f 136 137 149 148
f 137 138 150 149
f 138 139 151 150
f 139 140 152 151
f 140 141 153 152
f 141 142 154 153
f 142 143 155 154
f 143 144 156 155
f 144 133 145 156
f 144 143 142 141 140 139 138 137 136 135 134 133
f 145 146 147 148 149 150 151 152 153 154 155 156
f 157 158 159 160
f 161 164 163 162
f 157 161 162 158
f 158 162 163 159
f 159 163 164 160
f 161 157 160 164
f 165 166 167 168
f 169 172 171 170
f 165 169 170 166
f 166 170 171 167
f 167 171 172 168
f 169 165 168 172
f 173 174 175 176
f 177 180 179 178
f 173 177 178 174
f 174 178 179 175
f 175 179 180 176
f 177 173 176 180
f 181 182 183 184
f 185 188 187 186
f 181 185 186 182
f 182 186 187 183
f 183 187 188 184
f 185 181 184 188
f 189 190 191 192
f 193 196 195 194
f 189 193 194 190
f 190 194 195 191
f 191 195 196 192
f 193 189 192 196
f 197 198 199 200
f 201 204 203 202
f 197 201 202 198
f 198 202 203 199
f 199 203 204 200
f 201 197 200 204
f 205 206 207 208
f 209 212 211 210
f 205 209 210 206
f 206 210 211 207
f 207 211 212 208
f 209 205 208 212
f 213 214 215 216
f 217 220 219 218
f 213 217 218 214
f 214 218 219 215
f 215 219 220 216
f 217 213 216 220
f 221 222 223 224
f 225 228 227 226
f 221 225 226 222
f 222 226 227 223
f 223 227 228 224
f 225 221 224 228
f 229 230 231 232
f 233 236 235 234
f 229 233 234 230
f 230 234 235 231
f 231 235 236 232
f 233 229 232 236
f 237 238 239 240
f 241 244 243 242
f 237 241 242 238
f 238 242 243 239
f 239 243 244 240
f 241 237 240 244
f 245 246 247 248
f 249 252 251 250
f 245 249 250 246
f 246 250 251 247
f 247 251 252 248
f 249 245 248 252
f 253 254 255 256
f 257 260 259 258
f 253 257 258 254
f 254 258 259 255
f 255 259 260 256
f 257 253 256 260
f 261 262 263 264
f 265 268 267 266
f 261 265 266 262
f 262 266 267 263
f 263 267 268 264
f 265 261 264 268
f 269 270 271 272
f 273 276 275 274
f 269 273 274 270
f 270 274 275 271
f 271 275 276 272
f 273 269 272 276
f 277 278 279 280
f 281 284 283 282
f 277 281 282 278
f 278 282 283 279
f 279 283 284 280
f 281 277 280 284
f 285 286 287 288
f 289 292 291 290
f 285 289 290 286
f 286 290 291 287
f 287 291 292 288
f 289 285 288 292
g Baker__FrontWindows
# materialClass=painted-metal-glass-dark
# confidence=medium-visual
# evidenceIds=source:image:commons-baker-2008,source:image:commons-baker-2009,source:image:commons-baker-2017,source:image:commons-baker-2023
# notes=Opening panels are visual proxies, not measured frames.
v 30.916031 2.043981 1.275000
v 28.676899 0.626665 1.275000
v 28.730382 0.542169 1.275000
v 30.969515 1.959485 1.275000
v 30.916031 2.043981 2.825000
v 28.676899 0.626665 2.825000
v 28.730382 0.542169 2.825000
v 30.969515 1.959485 2.825000
v 27.331223 -0.225115 1.275000
v 25.092090 -1.642431 1.275000
v 25.145574 -1.726927 1.275000
v 27.384707 -0.309611 1.275000
v 27.331223 -0.225115 2.825000
v 25.092090 -1.642431 2.825000
v 25.145574 -1.726927 2.825000
v 27.384707 -0.309611 2.825000
v 23.746415 -2.494211 1.275000
v 21.507282 -3.911527 1.275000
v 21.560766 -3.996023 1.275000
v 23.799898 -2.578707 1.275000
v 23.746415 -2.494211 2.825000
v 21.507282 -3.911527 2.825000
v 21.560766 -3.996023 2.825000
v 23.799898 -2.578707 2.825000
v 20.161606 -4.763307 1.275000
v 17.922474 -6.180623 1.275000
v 17.975957 -6.265119 1.275000
v 20.215090 -4.847803 1.275000
v 20.161606 -4.763307 2.825000
v 17.922474 -6.180623 2.825000
v 17.975957 -6.265119 2.825000
v 20.215090 -4.847803 2.825000
v -0.491307 -17.836096 1.275000
v -2.730440 -19.253412 1.275000
v -2.676956 -19.337908 1.275000
v -0.437824 -17.920592 1.275000
v -0.491307 -17.836096 2.825000
v -2.730440 -19.253412 2.825000
v -2.676956 -19.337908 2.825000
v -0.437824 -17.920592 2.825000
v -4.076116 -20.105192 1.275000
v -6.315248 -21.522508 1.275000
v -6.261765 -21.607004 1.275000
v -4.022632 -20.189688 1.275000
v -4.076116 -20.105192 2.825000
v -6.315248 -21.522508 2.825000
v -6.261765 -21.607004 2.825000
v -4.022632 -20.189688 2.825000
v -7.660924 -22.374288 1.275000
v -9.900057 -23.791604 1.275000
v -9.846573 -23.876100 1.275000
v -7.607440 -22.458784 1.275000
v -7.660924 -22.374288 2.825000
v -9.900057 -23.791604 2.825000
v -9.846573 -23.876100 2.825000
v -7.607440 -22.458784 2.825000
v -11.245732 -24.643384 1.275000
v -13.484865 -26.060700 1.275000
v -13.431381 -26.145196 1.275000
v -11.192249 -24.727880 1.275000
v -11.245732 -24.643384 2.825000
v -13.484865 -26.060700 2.825000
v -13.431381 -26.145196 2.825000
v -11.192249 -24.727880 2.825000
v 30.916031 2.043981 5.175000
v 28.676899 0.626665 5.175000
v 28.730382 0.542169 5.175000
v 30.969515 1.959485 5.175000
v 30.916031 2.043981 6.725000
v 28.676899 0.626665 6.725000
v 28.730382 0.542169 6.725000
v 30.969515 1.959485 6.725000
v 27.331223 -0.225115 5.175000
v 25.092090 -1.642431 5.175000
v 25.145574 -1.726927 5.175000
v 27.384707 -0.309611 5.175000
v 27.331223 -0.225115 6.725000
v 25.092090 -1.642431 6.725000
v 25.145574 -1.726927 6.725000
v 27.384707 -0.309611 6.725000
v 23.746415 -2.494211 5.175000
v 21.507282 -3.911527 5.175000
v 21.560766 -3.996023 5.175000
v 23.799898 -2.578707 5.175000
v 23.746415 -2.494211 6.725000
v 21.507282 -3.911527 6.725000
v 21.560766 -3.996023 6.725000
v 23.799898 -2.578707 6.725000
v 20.161606 -4.763307 5.175000
v 17.922474 -6.180623 5.175000
v 17.975957 -6.265119 5.175000
v 20.215090 -4.847803 5.175000
v 20.161606 -4.763307 6.725000
v 17.922474 -6.180623 6.725000
v 17.975957 -6.265119 6.725000
v 20.215090 -4.847803 6.725000
v -0.491307 -17.836096 5.175000
v -2.730440 -19.253412 5.175000
v -2.676956 -19.337908 5.175000
v -0.437824 -17.920592 5.175000
v -0.491307 -17.836096 6.725000
v -2.730440 -19.253412 6.725000
v -2.676956 -19.337908 6.725000
v -0.437824 -17.920592 6.725000
v -4.076116 -20.105192 5.175000
v -6.315248 -21.522508 5.175000
v -6.261765 -21.607004 5.175000
v -4.022632 -20.189688 5.175000
v -4.076116 -20.105192 6.725000
v -6.315248 -21.522508 6.725000
v -6.261765 -21.607004 6.725000
v -4.022632 -20.189688 6.725000
v -7.660924 -22.374288 5.175000
v -9.900057 -23.791604 5.175000
v -9.846573 -23.876100 5.175000
v -7.607440 -22.458784 5.175000
v -7.660924 -22.374288 6.725000
v -9.900057 -23.791604 6.725000
v -9.846573 -23.876100 6.725000
v -7.607440 -22.458784 6.725000
v -11.245732 -24.643384 5.175000
v -13.484865 -26.060700 5.175000
v -13.431381 -26.145196 5.175000
v -11.192249 -24.727880 5.175000
v -11.245732 -24.643384 6.725000
v -13.484865 -26.060700 6.725000
v -13.431381 -26.145196 6.725000
v -11.192249 -24.727880 6.725000
f 293 294 295 296
f 297 300 299 298
f 293 297 298 294
f 294 298 299 295
f 295 299 300 296
f 297 293 296 300
f 301 302 303 304
f 305 308 307 306
f 301 305 306 302
f 302 306 307 303
f 303 307 308 304
f 305 301 304 308
f 309 310 311 312
f 313 316 315 314
f 309 313 314 310
f 310 314 315 311
f 311 315 316 312
f 313 309 312 316
f 317 318 319 320
f 321 324 323 322
f 317 321 322 318
f 318 322 323 319
f 319 323 324 320
f 321 317 320 324
f 325 326 327 328
f 329 332 331 330
f 325 329 330 326
f 326 330 331 327
f 327 331 332 328
f 329 325 328 332
f 333 334 335 336
f 337 340 339 338
f 333 337 338 334
f 334 338 339 335
f 335 339 340 336
f 337 333 336 340
f 341 342 343 344
f 345 348 347 346
f 341 345 346 342
f 342 346 347 343
f 343 347 348 344
f 345 341 344 348
f 349 350 351 352
f 353 356 355 354
f 349 353 354 350
f 350 354 355 351
f 351 355 356 352
f 353 349 352 356
f 357 358 359 360
f 361 364 363 362
f 357 361 362 358
f 358 362 363 359
f 359 363 364 360
f 361 357 360 364
f 365 366 367 368
f 369 372 371 370
f 365 369 370 366
f 366 370 371 367
f 367 371 372 368
f 369 365 368 372
f 373 374 375 376
f 377 380 379 378
f 373 377 378 374
f 374 378 379 375
f 375 379 380 376
f 377 373 376 380
f 381 382 383 384
f 385 388 387 386
f 381 385 386 382
f 382 386 387 383
f 383 387 388 384
f 385 381 384 388
f 389 390 391 392
f 393 396 395 394
f 389 393 394 390
f 390 394 395 391
f 391 395 396 392
f 393 389 392 396
f 397 398 399 400
f 401 404 403 402
f 397 401 402 398
f 398 402 403 399
f 399 403 404 400
f 401 397 400 404
f 405 406 407 408
f 409 412 411 410
f 405 409 410 406
f 406 410 411 407
f 407 411 412 408
f 409 405 408 412
f 413 414 415 416
f 417 420 419 418
f 413 417 418 414
f 414 418 419 415
f 415 419 420 416
f 417 413 416 420
g Baker__FrontAwnings
# materialClass=painted-metal-green
# confidence=high-visual
# evidenceIds=source:image:commons-baker-2008,source:image:commons-baker-2009,source:image:commons-baker-2017,source:image:commons-baker-2023
# notes=Green awning rhythm is visually supported; exact projection is provisional.
v 31.074595 2.120678 3.060000
v 28.539728 0.516169 3.060000
v 28.956900 -0.142896 3.060000
v 31.491767 1.461613 3.060000
v 31.074595 2.120678 3.180000
v 28.539728 0.516169 3.180000
v 28.956900 -0.142896 3.180000
v 31.491767 1.461613 3.180000
v 27.489787 -0.148418 3.060000
v 24.954920 -1.752927 3.060000
v 25.372092 -2.411992 3.060000
v 27.906959 -0.807483 3.060000
v 27.489787 -0.148418 3.180000
v 24.954920 -1.752927 3.180000
v 25.372092 -2.411992 3.180000
v 27.906959 -0.807483 3.180000
v 23.904979 -2.417514 3.060000
v 21.370111 -4.022023 3.060000
v 21.787284 -4.681088 3.060000
v 24.322151 -3.076579 3.060000
v 23.904979 -2.417514 3.180000
v 21.370111 -4.022023 3.180000
v 21.787284 -4.681088 3.180000
v 24.322151 -3.076579 3.180000
v 20.320170 -4.686610 3.060000
v 17.785303 -6.291119 3.060000
v 18.202475 -6.950184 3.060000
v 20.737342 -5.345675 3.060000
v 20.320170 -4.686610 3.180000
v 17.785303 -6.291119 3.180000
v 18.202475 -6.950184 3.180000
v 20.737342 -5.345675 3.180000
v -0.332743 -17.759399 3.060000
v -2.867611 -19.363908 3.060000
v -2.450438 -20.022973 3.060000
v 0.084429 -18.418464 3.060000
v -0.332743 -17.759399 3.180000
v -2.867611 -19.363908 3.180000
v -2.450438 -20.022973 3.180000
v 0.084429 -18.418464 3.180000
v -3.917552 -20.028495 3.060000
v -6.452419 -21.633004 3.060000
v -6.035247 -22.292069 3.060000
v -3.500379 -20.687560 3.060000
v -3.917552 -20.028495 3.180000
v -6.452419 -21.633004 3.180000
v -6.035247 -22.292069 3.180000
v -3.500379 -20.687560 3.180000
v -7.502360 -22.297591 3.060000
v -10.037227 -23.902100 3.060000
v -9.620055 -24.561165 3.060000
v -7.085188 -22.956656 3.060000
v -7.502360 -22.297591 3.180000
v -10.037227 -23.902100 3.180000
v -9.620055 -24.561165 3.180000
v -7.085188 -22.956656 3.180000
v -11.087168 -24.566687 3.060000
v -13.622036 -26.171196 3.060000
v -13.204863 -26.830261 3.060000
v -10.669996 -25.225752 3.060000
v -11.087168 -24.566687 3.180000
v -13.622036 -26.171196 3.180000
v -13.204863 -26.830261 3.180000
v -10.669996 -25.225752 3.180000
v 31.074595 2.120678 6.990000
v 28.539728 0.516169 6.990000
v 28.956900 -0.142896 6.990000
v 31.491767 1.461613 6.990000
v 31.074595 2.120678 7.110000
v 28.539728 0.516169 7.110000
v 28.956900 -0.142896 7.110000
v 31.491767 1.461613 7.110000
v 27.489787 -0.148418 6.990000
v 24.954920 -1.752927 6.990000
v 25.372092 -2.411992 6.990000
v 27.906959 -0.807483 6.990000
v 27.489787 -0.148418 7.110000
v 24.954920 -1.752927 7.110000
v 25.372092 -2.411992 7.110000
v 27.906959 -0.807483 7.110000
v 23.904979 -2.417514 6.990000
v 21.370111 -4.022023 6.990000
v 21.787284 -4.681088 6.990000
v 24.322151 -3.076579 6.990000
v 23.904979 -2.417514 7.110000
v 21.370111 -4.022023 7.110000
v 21.787284 -4.681088 7.110000
v 24.322151 -3.076579 7.110000
v 20.320170 -4.686610 6.990000
v 17.785303 -6.291119 6.990000
v 18.202475 -6.950184 6.990000
v 20.737342 -5.345675 6.990000
v 20.320170 -4.686610 7.110000
v 17.785303 -6.291119 7.110000
v 18.202475 -6.950184 7.110000
v 20.737342 -5.345675 7.110000
v -0.332743 -17.759399 6.990000
v -2.867611 -19.363908 6.990000
v -2.450438 -20.022973 6.990000
v 0.084429 -18.418464 6.990000
v -0.332743 -17.759399 7.110000
v -2.867611 -19.363908 7.110000
v -2.450438 -20.022973 7.110000
v 0.084429 -18.418464 7.110000
v -3.917552 -20.028495 6.990000
v -6.452419 -21.633004 6.990000
v -6.035247 -22.292069 6.990000
v -3.500379 -20.687560 6.990000
v -3.917552 -20.028495 7.110000
v -6.452419 -21.633004 7.110000
v -6.035247 -22.292069 7.110000
v -3.500379 -20.687560 7.110000
v -7.502360 -22.297591 6.990000
v -10.037227 -23.902100 6.990000
v -9.620055 -24.561165 6.990000
v -7.085188 -22.956656 6.990000
v -7.502360 -22.297591 7.110000
v -10.037227 -23.902100 7.110000
v -9.620055 -24.561165 7.110000
v -7.085188 -22.956656 7.110000
v -11.087168 -24.566687 6.990000
v -13.622036 -26.171196 6.990000
v -13.204863 -26.830261 6.990000
v -10.669996 -25.225752 6.990000
v -11.087168 -24.566687 7.110000
v -13.622036 -26.171196 7.110000
v -13.204863 -26.830261 7.110000
v -10.669996 -25.225752 7.110000
f 421 422 423 424
f 425 428 427 426
f 421 425 426 422
f 422 426 427 423
f 423 427 428 424
f 425 421 424 428
f 429 430 431 432
f 433 436 435 434
f 429 433 434 430
f 430 434 435 431
f 431 435 436 432
f 433 429 432 436
f 437 438 439 440
f 441 444 443 442
f 437 441 442 438
f 438 442 443 439
f 439 443 444 440
f 441 437 440 444
f 445 446 447 448
f 449 452 451 450
f 445 449 450 446
f 446 450 451 447
f 447 451 452 448
f 449 445 448 452
f 453 454 455 456
f 457 460 459 458
f 453 457 458 454
f 454 458 459 455
f 455 459 460 456
f 457 453 456 460
f 461 462 463 464
f 465 468 467 466
f 461 465 466 462
f 462 466 467 463
f 463 467 468 464
f 465 461 464 468
f 469 470 471 472
f 473 476 475 474
f 469 473 474 470
f 470 474 475 471
f 471 475 476 472
f 473 469 472 476
f 477 478 479 480
f 481 484 483 482
f 477 481 482 478
f 478 482 483 479
f 479 483 484 480
f 481 477 480 484
f 485 486 487 488
f 489 492 491 490
f 485 489 490 486
f 486 490 491 487
f 487 491 492 488
f 489 485 488 492
f 493 494 495 496
f 497 500 499 498
f 493 497 498 494
f 494 498 499 495
f 495 499 500 496
f 497 493 496 500
f 501 502 503 504
f 505 508 507 506
f 501 505 506 502
f 502 506 507 503
f 503 507 508 504
f 505 501 504 508
f 509 510 511 512
f 513 516 515 514
f 509 513 514 510
f 510 514 515 511
f 511 515 516 512
f 513 509 512 516
f 517 518 519 520
f 521 524 523 522
f 517 521 522 518
f 518 522 523 519
f 519 523 524 520
f 521 517 520 524
f 525 526 527 528
f 529 532 531 530
f 525 529 530 526
f 526 530 531 527
f 527 531 532 528
f 529 525 528 532
f 533 534 535 536
f 537 540 539 538
f 533 537 538 534
f 534 538 539 535
f 535 539 540 536
f 537 533 536 540
f 541 542 543 544
f 545 548 547 546
f 541 545 546 542
f 542 546 547 543
f 543 547 548 544
f 545 541 544 548
g Baker__Bands
# materialClass=concrete-painted
# confidence=high-visual
# evidenceIds=source:image:commons-baker-2008,source:image:commons-baker-2009,source:image:commons-baker-2017,source:image:commons-baker-2023
# notes=Major horizontal facade bands only.
v 31.752512 2.585288 3.660000
v -14.332042 -26.585108 3.660000
v -14.182288 -26.821695 3.660000
v 31.902266 2.348700 3.660000
v 31.752512 2.585288 3.940000
v -14.332042 -26.585108 3.940000
v -14.182288 -26.821695 3.940000
v 31.902266 2.348700 3.940000
v 31.752512 2.585288 7.690000
v -14.332042 -26.585108 7.690000
v -14.182288 -26.821695 7.690000
v 31.902266 2.348700 7.690000
v 31.752512 2.585288 8.010000
v -14.332042 -26.585108 8.010000
v -14.182288 -26.821695 8.010000
v 31.902266 2.348700 8.010000
f 549 550 551 552
f 553 556 555 554
f 549 553 554 550
f 550 554 555 551
f 551 555 556 552
f 553 549 552 556
f 557 558 559 560
f 561 564 563 562
f 557 561 562 558
f 558 562 563 559
f 559 563 564 560
f 561 557 560 564
g Baker__Parapet
# materialClass=concrete-painted
# confidence=high-visual
# evidenceIds=source:image:commons-baker-2008,source:image:commons-baker-2009,source:image:commons-baker-2017,source:image:commons-baker-2023
# notes=Central raised sign/parapet mass; lettering omitted.
v 16.172048 -7.241260 8.145000
v 1.216332 -16.707863 8.145000
v 1.440963 -17.062744 8.145000
v 16.396679 -7.596142 8.145000
v 16.172048 -7.241260 9.495000
v 1.216332 -16.707863 9.495000
v 1.440963 -17.062744 9.495000
v 16.396679 -7.596142 9.495000
f 565 566 567 568
f 569 572 571 570
f 565 569 570 566
f 566 570 571 567
f 567 571 572 568
f 569 565 568 572
g Baker__Roof
# materialClass=corrugated-metal-green
# confidence=medium-low-visual
# evidenceIds=source:image:commons-baker-2009,source:image:commons-baker-2017,source:image:commons-baker-2023
# notes=Roof is a replaceable envelope for multi-angle visual QA; ridge/eave geometry is not survey-derived.
v 10.108040 3.086794 8.150000
v -5.523641 -6.807677 8.150000
v 2.292199 -1.860442 10.200000
v 22.944110 -17.192143 8.150000
v 7.312430 -27.086614 8.150000
v 15.128270 -22.139378 10.200000
f 573 575 574
f 576 577 578
f 573 576 578 575
f 575 578 577 574
f 573 574 577 576
