# Generated by tools.modeling.mesh
o Baker__FrontAwnings
# featureId=uplb:building:baker-hall
# sourceFeatureId=uplb:building:baker-hall
# lod=lod0
# materialClass=painted-metal-green
# confidence=high-visual
# evidenceIds=source:image:commons-baker-2008,source:image:commons-baker-2009,source:image:commons-baker-2017,source:image:commons-baker-2023
v 31.074595 2.120678 3.060000
v 28.539728 0.516169 3.060000
v 28.956900 -0.142896 3.060000
v 31.491767 1.461613 3.060000
v 31.074595 2.120678 3.180000
v 28.539728 0.516169 3.180000
v 28.956900 -0.142896 3.180000
v 31.491767 1.461613 3.180000
v 27.489787 -0.148418 3.060000
v 24.954920 -1.752927 3.060000
v 25.372092 -2.411992 3.060000
v 27.906959 -0.807483 3.060000
v 27.489787 -0.148418 3.180000
v 24.954920 -1.752927 3.180000
v 25.372092 -2.411992 3.180000
v 27.906959 -0.807483 3.180000
v 23.904979 -2.417514 3.060000
v 21.370111 -4.022023 3.060000
v 21.787284 -4.681088 3.060000
v 24.322151 -3.076579 3.060000
v 23.904979 -2.417514 3.180000
v 21.370111 -4.022023 3.180000
v 21.787284 -4.681088 3.180000
v 24.322151 -3.076579 3.180000
v 20.320170 -4.686610 3.060000
v 17.785303 -6.291119 3.060000
v 18.202475 -6.950184 3.060000
v 20.737342 -5.345675 3.060000
v 20.320170 -4.686610 3.180000
v 17.785303 -6.291119 3.180000
v 18.202475 -6.950184 3.180000
v 20.737342 -5.345675 3.180000
v -0.332743 -17.759399 3.060000
v -2.867611 -19.363908 3.060000
v -2.450438 -20.022973 3.060000
v 0.084429 -18.418464 3.060000
v -0.332743 -17.759399 3.180000
v -2.867611 -19.363908 3.180000
v -2.450438 -20.022973 3.180000
v 0.084429 -18.418464 3.180000
v -3.917552 -20.028495 3.060000
v -6.452419 -21.633004 3.060000
v -6.035247 -22.292069 3.060000
v -3.500379 -20.687560 3.060000
v -3.917552 -20.028495 3.180000
v -6.452419 -21.633004 3.180000
v -6.035247 -22.292069 3.180000
v -3.500379 -20.687560 3.180000
v -7.502360 -22.297591 3.060000
v -10.037227 -23.902100 3.060000
v -9.620055 -24.561165 3.060000
v -7.085188 -22.956656 3.060000
v -7.502360 -22.297591 3.180000
v -10.037227 -23.902100 3.180000
v -9.620055 -24.561165 3.180000
v -7.085188 -22.956656 3.180000
v -11.087168 -24.566687 3.060000
v -13.622036 -26.171196 3.060000
v -13.204863 -26.830261 3.060000
v -10.669996 -25.225752 3.060000
v -11.087168 -24.566687 3.180000
v -13.622036 -26.171196 3.180000
v -13.204863 -26.830261 3.180000
v -10.669996 -25.225752 3.180000
v 31.074595 2.120678 6.990000
v 28.539728 0.516169 6.990000
v 28.956900 -0.142896 6.990000
v 31.491767 1.461613 6.990000
v 31.074595 2.120678 7.110000
v 28.539728 0.516169 7.110000
v 28.956900 -0.142896 7.110000
v 31.491767 1.461613 7.110000
v 27.489787 -0.148418 6.990000
v 24.954920 -1.752927 6.990000
v 25.372092 -2.411992 6.990000
v 27.906959 -0.807483 6.990000
v 27.489787 -0.148418 7.110000
v 24.954920 -1.752927 7.110000
v 25.372092 -2.411992 7.110000
v 27.906959 -0.807483 7.110000
v 23.904979 -2.417514 6.990000
v 21.370111 -4.022023 6.990000
v 21.787284 -4.681088 6.990000
v 24.322151 -3.076579 6.990000
v 23.904979 -2.417514 7.110000
v 21.370111 -4.022023 7.110000
v 21.787284 -4.681088 7.110000
v 24.322151 -3.076579 7.110000
v 20.320170 -4.686610 6.990000
v 17.785303 -6.291119 6.990000
v 18.202475 -6.950184 6.990000
v 20.737342 -5.345675 6.990000
v 20.320170 -4.686610 7.110000
v 17.785303 -6.291119 7.110000
v 18.202475 -6.950184 7.110000
v 20.737342 -5.345675 7.110000
v -0.332743 -17.759399 6.990000
v -2.867611 -19.363908 6.990000
v -2.450438 -20.022973 6.990000
v 0.084429 -18.418464 6.990000
v -0.332743 -17.759399 7.110000
v -2.867611 -19.363908 7.110000
v -2.450438 -20.022973 7.110000
v 0.084429 -18.418464 7.110000
v -3.917552 -20.028495 6.990000
v -6.452419 -21.633004 6.990000
v -6.035247 -22.292069 6.990000
v -3.500379 -20.687560 6.990000
v -3.917552 -20.028495 7.110000
v -6.452419 -21.633004 7.110000
v -6.035247 -22.292069 7.110000
v -3.500379 -20.687560 7.110000
v -7.502360 -22.297591 6.990000
v -10.037227 -23.902100 6.990000
v -9.620055 -24.561165 6.990000
v -7.085188 -22.956656 6.990000
v -7.502360 -22.297591 7.110000
v -10.037227 -23.902100 7.110000
v -9.620055 -24.561165 7.110000
v -7.085188 -22.956656 7.110000
v -11.087168 -24.566687 6.990000
v -13.622036 -26.171196 6.990000
v -13.204863 -26.830261 6.990000
v -10.669996 -25.225752 6.990000
v -11.087168 -24.566687 7.110000
v -13.622036 -26.171196 7.110000
v -13.204863 -26.830261 7.110000
v -10.669996 -25.225752 7.110000
f 1 2 3 4
f 5 8 7 6
f 1 5 6 2
f 2 6 7 3
f 3 7 8 4
f 5 1 4 8
f 9 10 11 12
f 13 16 15 14
f 9 13 14 10
f 10 14 15 11
f 11 15 16 12
f 13 9 12 16
f 17 18 19 20
f 21 24 23 22
f 17 21 22 18
f 18 22 23 19
f 19 23 24 20
f 21 17 20 24
f 25 26 27 28
f 29 32 31 30
f 25 29 30 26
f 26 30 31 27
f 27 31 32 28
f 29 25 28 32
f 33 34 35 36
f 37 40 39 38
f 33 37 38 34
f 34 38 39 35
f 35 39 40 36
f 37 33 36 40
f 41 42 43 44
f 45 48 47 46
f 41 45 46 42
f 42 46 47 43
f 43 47 48 44
f 45 41 44 48
f 49 50 51 52
f 53 56 55 54
f 49 53 54 50
f 50 54 55 51
f 51 55 56 52
f 53 49 52 56
f 57 58 59 60
f 61 64 63 62
f 57 61 62 58
f 58 62 63 59
f 59 63 64 60
f 61 57 60 64
f 65 66 67 68
f 69 72 71 70
f 65 69 70 66
f 66 70 71 67
f 67 71 72 68
f 69 65 68 72
f 73 74 75 76
f 77 80 79 78
f 73 77 78 74
f 74 78 79 75
f 75 79 80 76
f 77 73 76 80
f 81 82 83 84
f 85 88 87 86
f 81 85 86 82
f 82 86 87 83
f 83 87 88 84
f 85 81 84 88
f 89 90 91 92
f 93 96 95 94
f 89 93 94 90
f 90 94 95 91
f 91 95 96 92
f 93 89 92 96
f 97 98 99 100
f 101 104 103 102
f 97 101 102 98
f 98 102 103 99
f 99 103 104 100
f 101 97 100 104
f 105 106 107 108
f 109 112 111 110
f 105 109 110 106
f 106 110 111 107
f 107 111 112 108
f 109 105 108 112
f 113 114 115 116
f 117 120 119 118
f 113 117 118 114
f 114 118 119 115
f 115 119 120 116
f 117 113 116 120
f 121 122 123 124
f 125 128 127 126
f 121 125 126 122
f 122 126 127 123
f 123 127 128 124
f 125 121 124 128
