# Generated by tools.modeling.mesh
o Baker__Bands
# featureId=uplb:building:baker-hall
# sourceFeatureId=uplb:building:baker-hall
# lod=lod0
# materialClass=concrete-painted
# confidence=high-visual
# evidenceIds=source:image:commons-baker-2008,source:image:commons-baker-2009,source:image:commons-baker-2017,source:image:commons-baker-2023
v 31.752512 2.585288 3.660000
v -14.332042 -26.585108 3.660000
v -14.182288 -26.821695 3.660000
v 31.902266 2.348700 3.660000
v 31.752512 2.585288 3.940000
v -14.332042 -26.585108 3.940000
v -14.182288 -26.821695 3.940000
v 31.902266 2.348700 3.940000
v 31.752512 2.585288 7.690000
v -14.332042 -26.585108 7.690000
v -14.182288 -26.821695 7.690000
v 31.902266 2.348700 7.690000
v 31.752512 2.585288 8.010000
v -14.332042 -26.585108 8.010000
v -14.182288 -26.821695 8.010000
v 31.902266 2.348700 8.010000
f 1 2 3 4
f 5 8 7 6
f 1 5 6 2
f 2 6 7 3
f 3 7 8 4
f 5 1 4 8
f 9 10 11 12
f 13 16 15 14
f 9 13 14 10
f 10 14 15 11
f 11 15 16 12
f 13 9 12 16
