# Generated by tools.modeling.mesh
o Baker__FrontWindows
# featureId=uplb:building:baker-hall
# sourceFeatureId=uplb:building:baker-hall
# lod=lod0
# materialClass=painted-metal-glass-dark
# confidence=medium-visual
# evidenceIds=source:image:commons-baker-2008,source:image:commons-baker-2009,source:image:commons-baker-2017,source:image:commons-baker-2023
v 30.916031 2.043981 1.275000
v 28.676899 0.626665 1.275000
v 28.730382 0.542169 1.275000
v 30.969515 1.959485 1.275000
v 30.916031 2.043981 2.825000
v 28.676899 0.626665 2.825000
v 28.730382 0.542169 2.825000
v 30.969515 1.959485 2.825000
v 27.331223 -0.225115 1.275000
v 25.092090 -1.642431 1.275000
v 25.145574 -1.726927 1.275000
v 27.384707 -0.309611 1.275000
v 27.331223 -0.225115 2.825000
v 25.092090 -1.642431 2.825000
v 25.145574 -1.726927 2.825000
v 27.384707 -0.309611 2.825000
v 23.746415 -2.494211 1.275000
v 21.507282 -3.911527 1.275000
v 21.560766 -3.996023 1.275000
v 23.799898 -2.578707 1.275000
v 23.746415 -2.494211 2.825000
v 21.507282 -3.911527 2.825000
v 21.560766 -3.996023 2.825000
v 23.799898 -2.578707 2.825000
v 20.161606 -4.763307 1.275000
v 17.922474 -6.180623 1.275000
v 17.975957 -6.265119 1.275000
v 20.215090 -4.847803 1.275000
v 20.161606 -4.763307 2.825000
v 17.922474 -6.180623 2.825000
v 17.975957 -6.265119 2.825000
v 20.215090 -4.847803 2.825000
v -0.491307 -17.836096 1.275000
v -2.730440 -19.253412 1.275000
v -2.676956 -19.337908 1.275000
v -0.437824 -17.920592 1.275000
v -0.491307 -17.836096 2.825000
v -2.730440 -19.253412 2.825000
v -2.676956 -19.337908 2.825000
v -0.437824 -17.920592 2.825000
v -4.076116 -20.105192 1.275000
v -6.315248 -21.522508 1.275000
v -6.261765 -21.607004 1.275000
v -4.022632 -20.189688 1.275000
v -4.076116 -20.105192 2.825000
v -6.315248 -21.522508 2.825000
v -6.261765 -21.607004 2.825000
v -4.022632 -20.189688 2.825000
v -7.660924 -22.374288 1.275000
v -9.900057 -23.791604 1.275000
v -9.846573 -23.876100 1.275000
v -7.607440 -22.458784 1.275000
v -7.660924 -22.374288 2.825000
v -9.900057 -23.791604 2.825000
v -9.846573 -23.876100 2.825000
v -7.607440 -22.458784 2.825000
v -11.245732 -24.643384 1.275000
v -13.484865 -26.060700 1.275000
v -13.431381 -26.145196 1.275000
v -11.192249 -24.727880 1.275000
v -11.245732 -24.643384 2.825000
v -13.484865 -26.060700 2.825000
v -13.431381 -26.145196 2.825000
v -11.192249 -24.727880 2.825000
v 30.916031 2.043981 5.175000
v 28.676899 0.626665 5.175000
v 28.730382 0.542169 5.175000
v 30.969515 1.959485 5.175000
v 30.916031 2.043981 6.725000
v 28.676899 0.626665 6.725000
v 28.730382 0.542169 6.725000
v 30.969515 1.959485 6.725000
v 27.331223 -0.225115 5.175000
v 25.092090 -1.642431 5.175000
v 25.145574 -1.726927 5.175000
v 27.384707 -0.309611 5.175000
v 27.331223 -0.225115 6.725000
v 25.092090 -1.642431 6.725000
v 25.145574 -1.726927 6.725000
v 27.384707 -0.309611 6.725000
v 23.746415 -2.494211 5.175000
v 21.507282 -3.911527 5.175000
v 21.560766 -3.996023 5.175000
v 23.799898 -2.578707 5.175000
v 23.746415 -2.494211 6.725000
v 21.507282 -3.911527 6.725000
v 21.560766 -3.996023 6.725000
v 23.799898 -2.578707 6.725000
v 20.161606 -4.763307 5.175000
v 17.922474 -6.180623 5.175000
v 17.975957 -6.265119 5.175000
v 20.215090 -4.847803 5.175000
v 20.161606 -4.763307 6.725000
v 17.922474 -6.180623 6.725000
v 17.975957 -6.265119 6.725000
v 20.215090 -4.847803 6.725000
v -0.491307 -17.836096 5.175000
v -2.730440 -19.253412 5.175000
v -2.676956 -19.337908 5.175000
v -0.437824 -17.920592 5.175000
v -0.491307 -17.836096 6.725000
v -2.730440 -19.253412 6.725000
v -2.676956 -19.337908 6.725000
v -0.437824 -17.920592 6.725000
v -4.076116 -20.105192 5.175000
v -6.315248 -21.522508 5.175000
v -6.261765 -21.607004 5.175000
v -4.022632 -20.189688 5.175000
v -4.076116 -20.105192 6.725000
v -6.315248 -21.522508 6.725000
v -6.261765 -21.607004 6.725000
v -4.022632 -20.189688 6.725000
v -7.660924 -22.374288 5.175000
v -9.900057 -23.791604 5.175000
v -9.846573 -23.876100 5.175000
v -7.607440 -22.458784 5.175000
v -7.660924 -22.374288 6.725000
v -9.900057 -23.791604 6.725000
v -9.846573 -23.876100 6.725000
v -7.607440 -22.458784 6.725000
v -11.245732 -24.643384 5.175000
v -13.484865 -26.060700 5.175000
v -13.431381 -26.145196 5.175000
v -11.192249 -24.727880 5.175000
v -11.245732 -24.643384 6.725000
v -13.484865 -26.060700 6.725000
v -13.431381 -26.145196 6.725000
v -11.192249 -24.727880 6.725000
f 1 2 3 4
f 5 8 7 6
f 1 5 6 2
f 2 6 7 3
f 3 7 8 4
f 5 1 4 8
f 9 10 11 12
f 13 16 15 14
f 9 13 14 10
f 10 14 15 11
f 11 15 16 12
f 13 9 12 16
f 17 18 19 20
f 21 24 23 22
f 17 21 22 18
f 18 22 23 19
f 19 23 24 20
f 21 17 20 24
f 25 26 27 28
f 29 32 31 30
f 25 29 30 26
f 26 30 31 27
f 27 31 32 28
f 29 25 28 32
f 33 34 35 36
f 37 40 39 38
f 33 37 38 34
f 34 38 39 35
f 35 39 40 36
f 37 33 36 40
f 41 42 43 44
f 45 48 47 46
f 41 45 46 42
f 42 46 47 43
f 43 47 48 44
f 45 41 44 48
f 49 50 51 52
f 53 56 55 54
f 49 53 54 50
f 50 54 55 51
f 51 55 56 52
f 53 49 52 56
f 57 58 59 60
f 61 64 63 62
f 57 61 62 58
f 58 62 63 59
f 59 63 64 60
f 61 57 60 64
f 65 66 67 68
f 69 72 71 70
f 65 69 70 66
f 66 70 71 67
f 67 71 72 68
f 69 65 68 72
f 73 74 75 76
f 77 80 79 78
f 73 77 78 74
f 74 78 79 75
f 75 79 80 76
f 77 73 76 80
f 81 82 83 84
f 85 88 87 86
f 81 85 86 82
f 82 86 87 83
f 83 87 88 84
f 85 81 84 88
f 89 90 91 92
f 93 96 95 94
f 89 93 94 90
f 90 94 95 91
f 91 95 96 92
f 93 89 92 96
f 97 98 99 100
f 101 104 103 102
f 97 101 102 98
f 98 102 103 99
f 99 103 104 100
f 101 97 100 104
f 105 106 107 108
f 109 112 111 110
f 105 109 110 106
f 106 110 111 107
f 107 111 112 108
f 109 105 108 112
f 113 114 115 116
f 117 120 119 118
f 113 117 118 114
f 114 118 119 115
f 115 119 120 116
f 117 113 116 120
f 121 122 123 124
f 125 128 127 126
f 121 125 126 122
f 122 126 127 123
f 123 127 128 124
f 125 121 124 128
