# Generated by tools.modeling.mesh
o Baker__Roof
# featureId=uplb:building:baker-hall
# sourceFeatureId=uplb:building:baker-hall
# lod=lod0
# materialClass=corrugated-metal-green
# confidence=medium-low-visual
# evidenceIds=source:image:commons-baker-2009,source:image:commons-baker-2017,source:image:commons-baker-2023
v 10.108040 3.086794 8.150000
v -5.523641 -6.807677 8.150000
v 2.292199 -1.860442 10.200000
v 22.944110 -17.192143 8.150000
v 7.312430 -27.086614 8.150000
v 15.128270 -22.139378 10.200000
f 1 3 2
f 4 5 6
f 1 4 6 3
f 3 6 5 2
f 1 2 5 4
