# Generated by tools.modeling.assembly
# featureId=uplb:building:baker-hall
# version=baker-v0.4-collision
# identityStatus=canonical
# sourceFeatureId=uplb:building:baker-hall
o uplb_building_baker-hall
g Baker__Collision
# materialClass=collision-proxy
# confidence=software-derived
# evidenceIds=source:canonical:osm-baker-way-37449973
# notes=Simple footprint collision proxy; not a visible production mesh.
v -20.864862 -16.026839 0.000000
v -24.390419 -18.246545 0.000000
v -24.390419 -18.246545 7.544000
v -20.864862 -16.026839 7.544000
v -27.549154 -13.310023 0.000000
v -27.549154 -13.310023 7.544000
v -30.633312 -8.506838 0.000000
v -30.633312 -8.506838 7.544000
v -27.107755 -6.287133 0.000000
v -27.107755 -6.287133 7.544000
v -29.999827 -1.784142 0.000000
v -29.999827 -1.784142 7.544000
v -4.408109 14.543624 0.000000
v -4.408109 14.543624 7.544000
v 15.746726 27.172288 0.000000
v 15.746726 27.172288 7.544000
v 31.583521 2.478320 0.000000
v 31.583521 2.478320 7.544000
v -14.163051 -26.478141 0.000000
v -14.163051 -26.478141 7.544000
f 1 2 3 4
f 2 5 6 3
f 5 7 8 6
f 7 9 10 8
f 9 11 12 10
f 11 13 14 12
f 13 15 16 14
f 15 17 18 16
f 17 19 20 18
f 19 1 4 20
f 5 2 1
f 4 3 6
f 9 7 5
f 6 8 10
f 13 11 9
f 10 12 14
f 17 15 13
f 14 16 18
f 1 19 13
f 14 20 4
f 9 5 1
f 4 6 10
f 17 13 19
f 20 14 18
f 9 1 13
f 14 4 10
