# Generated by tools.modeling.assembly
# featureId=uplb:building:baker-hall
# version=baker-v0.4-lod0
# identityStatus=canonical
# sourceFeatureId=uplb:building:baker-hall
o uplb_building_baker-hall
g Baker__Shell_A
# materialClass=concrete-painted
# confidence=source-supported-footprint/provisional-height
# evidenceIds=source:canonical:osm-baker-way-37449973
# notes=Canonical footprint preserved; local origin is projected footprint centroid.
v -20.864862 -16.026839 0.000000
v -24.390419 -18.246545 0.000000
v -24.390419 -18.246545 8.200000
v -20.864862 -16.026839 8.200000
v -27.549154 -13.310023 0.000000
v -27.549154 -13.310023 8.200000
v -30.633312 -8.506838 0.000000
v -30.633312 -8.506838 8.200000
v -27.107755 -6.287133 0.000000
v -27.107755 -6.287133 8.200000
v -29.999827 -1.784142 0.000000
v -29.999827 -1.784142 8.200000
v -4.408109 14.543624 0.000000
v -4.408109 14.543624 8.200000
v 15.746726 27.172288 0.000000
v 15.746726 27.172288 8.200000
v 31.583521 2.478320 0.000000
v 31.583521 2.478320 8.200000
v -14.163051 -26.478141 0.000000
v -14.163051 -26.478141 8.200000
f 1 2 3 4
f 2 5 6 3
f 5 7 8 6
f 7 9 10 8
f 9 11 12 10
f 11 13 14 12
f 13 15 16 14
f 15 17 18 16
f 17 19 20 18
f 19 1 4 20
f 5 2 1
f 4 3 6
f 9 7 5
f 6 8 10
f 13 11 9
f 10 12 14
f 17 15 13
f 14 16 18
f 1 19 13
f 14 20 4
f 9 5 1
f 4 6 10
f 17 13 19
f 20 14 18
f 9 1 13
f 14 4 10
g Baker__Portico
# materialClass=concrete-painted
# confidence=high-visual
# evidenceIds=source:image:commons-baker-2008,source:image:commons-baker-2009,source:image:commons-baker-2017,source:image:commons-baker-2023
# notes=Reference-derived front portico silhouette; dimensions remain provisional.
v -17.438796 -21.370331 3.800000
v -26.724082 -6.891952 3.800000
v -28.660145 -8.133589 3.800000
v -19.374858 -22.611968 3.800000
v -17.438796 -21.370331 4.080000
v -26.724082 -6.891952 4.080000
v -28.660145 -8.133589 4.080000
v -19.374858 -22.611968 4.080000
v -20.103888 -20.317460 0.000000
v -20.400801 -19.854489 0.000000
v -20.863772 -20.151402 0.000000
v -20.566859 -20.614373 0.000000
v -20.103888 -20.317460 3.800000
v -20.400801 -19.854489 3.800000
v -20.863772 -20.151402 3.800000
v -20.566859 -20.614373 3.800000
v -20.656579 -19.965066 4.080000
v -20.768118 -20.087529 4.080000
v -20.803482 -20.249354 4.080000
v -20.753195 -20.407181 4.080000
v -20.630732 -20.518719 4.080000
v -20.468907 -20.554083 4.080000
v -20.311080 -20.503796 4.080000
v -20.199542 -20.381333 4.080000
v -20.164178 -20.219508 4.080000
v -20.214465 -20.061681 4.080000
v -20.336928 -19.950143 4.080000
v -20.498753 -19.914779 4.080000
v -20.656579 -19.965066 8.130000
v -20.768118 -20.087529 8.130000
v -20.803482 -20.249354 8.130000
v -20.753195 -20.407181 8.130000
v -20.630732 -20.518719 8.130000
v -20.468907 -20.554083 8.130000
v -20.311080 -20.503796 8.130000
v -20.199542 -20.381333 8.130000
v -20.164178 -20.219508 8.130000
v -20.214465 -20.061681 8.130000
v -20.336928 -19.950143 8.130000
v -20.498753 -19.914779 8.130000
v -22.263257 -16.950395 0.000000
v -22.560170 -16.487424 0.000000
v -23.023141 -16.784337 0.000000
v -22.726228 -17.247308 0.000000
v -22.263257 -16.950395 3.800000
v -22.560170 -16.487424 3.800000
v -23.023141 -16.784337 3.800000
v -22.726228 -17.247308 3.800000
v -22.815948 -16.598001 4.080000
v -22.927487 -16.720464 4.080000
v -22.962851 -16.882289 4.080000
v -22.912564 -17.040116 4.080000
v -22.790101 -17.151654 4.080000
v -22.628276 -17.187018 4.080000
v -22.470449 -17.136731 4.080000
v -22.358911 -17.014268 4.080000
v -22.323547 -16.852443 4.080000
v -22.373834 -16.694617 4.080000
v -22.496296 -16.583078 4.080000
v -22.658122 -16.547714 4.080000
v -22.815948 -16.598001 8.130000
v -22.927487 -16.720464 8.130000
v -22.962851 -16.882289 8.130000
v -22.912564 -17.040116 8.130000
v -22.790101 -17.151654 8.130000
v -22.628276 -17.187018 8.130000
v -22.470449 -17.136731 8.130000
v -22.358911 -17.014268 8.130000
v -22.323547 -16.852443 8.130000
v -22.373834 -16.694617 8.130000
v -22.496296 -16.583078 8.130000
v -22.658122 -16.547714 8.130000
v -24.422625 -13.583330 0.000000
v -24.719539 -13.120359 0.000000
v -25.182510 -13.417272 0.000000
v -24.885597 -13.880244 0.000000
v -24.422625 -13.583330 3.800000
v -24.719539 -13.120359 3.800000
v -25.182510 -13.417272 3.800000
v -24.885597 -13.880244 3.800000
v -24.975317 -13.230936 4.080000
v -25.086856 -13.353399 4.080000
v -25.122220 -13.515224 4.080000
v -25.071933 -13.673051 4.080000
v -24.949470 -13.784589 4.080000
v -24.787645 -13.819953 4.080000
v -24.629818 -13.769666 4.080000
v -24.518280 -13.647204 4.080000
v -24.482916 -13.485378 4.080000
v -24.533203 -13.327552 4.080000
v -24.655665 -13.216013 4.080000
v -24.817491 -13.180649 4.080000
v -24.975317 -13.230936 8.130000
v -25.086856 -13.353399 8.130000
v -25.122220 -13.515224 8.130000
v -25.071933 -13.673051 8.130000
v -24.949470 -13.784589 8.130000
v -24.787645 -13.819953 8.130000
v -24.629818 -13.769666 8.130000
v -24.518280 -13.647204 8.130000
v -24.482916 -13.485378 8.130000
v -24.533203 -13.327552 8.130000
v -24.655665 -13.216013 8.130000
v -24.817491 -13.180649 8.130000
v -26.581994 -10.216265 0.000000
v -26.878907 -9.753294 0.000000
v -27.341879 -10.050207 0.000000
v -27.044966 -10.513179 0.000000
v -26.581994 -10.216265 3.800000
v -26.878907 -9.753294 3.800000
v -27.341879 -10.050207 3.800000
v -27.044966 -10.513179 3.800000
v -27.134686 -9.863871 4.080000
v -27.246225 -9.986334 4.080000
v -27.281588 -10.148159 4.080000
v -27.231302 -10.305986 4.080000
v -27.108839 -10.417524 4.080000
v -26.947014 -10.452888 4.080000
v -26.789187 -10.402601 4.080000
v -26.677649 -10.280139 4.080000
v -26.642285 -10.118313 4.080000
v -26.692571 -9.960487 4.080000
v -26.815034 -9.848948 4.080000
v -26.976859 -9.813584 4.080000
v -27.134686 -9.863871 8.130000
v -27.246225 -9.986334 8.130000
v -27.281588 -10.148159 8.130000
v -27.231302 -10.305986 8.130000
v -27.108839 -10.417524 8.130000
v -26.947014 -10.452888 8.130000
v -26.789187 -10.402601 8.130000
v -26.677649 -10.280139 8.130000
v -26.642285 -10.118313 8.130000
v -26.692571 -9.960487 8.130000
v -26.815034 -9.848948 8.130000
v -26.976859 -9.813584 8.130000
v -19.324352 -22.579577 4.100000
v -28.609639 -8.101198 4.100000
v -28.744321 -8.187573 4.100000
v -19.459035 -22.665952 4.100000
v -19.324352 -22.579577 4.260000
v -28.609639 -8.101198 4.260000
v -28.744321 -8.187573 4.260000
v -19.459035 -22.665952 4.260000
v -19.315935 -22.574179 4.860000
v -28.601221 -8.095800 4.860000
v -28.752739 -8.192972 4.860000
v -19.467453 -22.671351 4.860000
v -19.315935 -22.574179 5.040000
v -28.601221 -8.095800 5.040000
v -28.752739 -8.192972 5.040000
v -19.467453 -22.671351 5.040000
v -17.063654 -21.723734 7.740000
v -26.888783 -6.403588 7.740000
v -29.035286 -7.780186 7.740000
v -19.210158 -23.100331 7.740000
v -17.063654 -21.723734 8.160000
v -26.888783 -6.403588 8.160000
v -29.035286 -7.780186 8.160000
v -19.210158 -23.100331 8.160000
v -19.625794 -22.137330 4.205000
v -19.695974 -22.027901 4.205000
v -19.805404 -22.098080 4.205000
v -19.735224 -22.207510 4.205000
v -19.625794 -22.137330 4.925000
v -19.695974 -22.027901 4.925000
v -19.805404 -22.098080 4.925000
v -19.735224 -22.207510 4.925000
v -20.290216 -21.101310 4.205000
v -20.360395 -20.991881 4.205000
v -20.469825 -21.062060 4.205000
v -20.399645 -21.171490 4.205000
v -20.290216 -21.101310 4.925000
v -20.360395 -20.991881 4.925000
v -20.469825 -21.062060 4.925000
v -20.399645 -21.171490 4.925000
v -20.954637 -20.065290 4.205000
v -21.024816 -19.955861 4.205000
v -21.134246 -20.026040 4.205000
v -21.064066 -20.135470 4.205000
v -20.954637 -20.065290 4.925000
v -21.024816 -19.955861 4.925000
v -21.134246 -20.026040 4.925000
v -21.064066 -20.135470 4.925000
v -21.619058 -19.029270 4.205000
v -21.689238 -18.919841 4.205000
v -21.798667 -18.990020 4.205000
v -21.728488 -19.099450 4.205000
v -21.619058 -19.029270 4.925000
v -21.689238 -18.919841 4.925000
v -21.798667 -18.990020 4.925000
v -21.728488 -19.099450 4.925000
v -22.283479 -17.993250 4.205000
v -22.353659 -17.883821 4.205000
v -22.463088 -17.954000 4.205000
v -22.392909 -18.063430 4.205000
v -22.283479 -17.993250 4.925000
v -22.353659 -17.883821 4.925000
v -22.463088 -17.954000 4.925000
v -22.392909 -18.063430 4.925000
v -22.947900 -16.957230 4.205000
v -23.018080 -16.847801 4.205000
v -23.127510 -16.917980 4.205000
v -23.057330 -17.027410 4.205000
v -22.947900 -16.957230 4.925000
v -23.018080 -16.847801 4.925000
v -23.127510 -16.917980 4.925000
v -23.057330 -17.027410 4.925000
v -23.612322 -15.921210 4.205000
v -23.682501 -15.811781 4.205000
v -23.791931 -15.881960 4.205000
v -23.721751 -15.991390 4.205000
v -23.612322 -15.921210 4.925000
v -23.682501 -15.811781 4.925000
v -23.791931 -15.881960 4.925000
v -23.721751 -15.991390 4.925000
v -24.276743 -14.885190 4.205000
v -24.346922 -14.775761 4.205000
v -24.456352 -14.845940 4.205000
v -24.386172 -14.955370 4.205000
v -24.276743 -14.885190 4.925000
v -24.346922 -14.775761 4.925000
v -24.456352 -14.845940 4.925000
v -24.386172 -14.955370 4.925000
v -24.941164 -13.849170 4.205000
v -25.011344 -13.739741 4.205000
v -25.120773 -13.809920 4.205000
v -25.050594 -13.919350 4.205000
v -24.941164 -13.849170 4.925000
v -25.011344 -13.739741 4.925000
v -25.120773 -13.809920 4.925000
v -25.050594 -13.919350 4.925000
v -25.605585 -12.813150 4.205000
v -25.675765 -12.703721 4.205000
v -25.785194 -12.773900 4.205000
v -25.715015 -12.883330 4.205000
v -25.605585 -12.813150 4.925000
v -25.675765 -12.703721 4.925000
v -25.785194 -12.773900 4.925000
v -25.715015 -12.883330 4.925000
v -26.270006 -11.777130 4.205000
v -26.340186 -11.667701 4.205000
v -26.449616 -11.737880 4.205000
v -26.379436 -11.847310 4.205000
v -26.270006 -11.777130 4.925000
v -26.340186 -11.667701 4.925000
v -26.449616 -11.737880 4.925000
v -26.379436 -11.847310 4.925000
v -26.934428 -10.741110 4.205000
v -27.004607 -10.631681 4.205000
v -27.114037 -10.701860 4.205000
v -27.043857 -10.811290 4.205000
v -26.934428 -10.741110 4.925000
v -27.004607 -10.631681 4.925000
v -27.114037 -10.701860 4.925000
v -27.043857 -10.811290 4.925000
v -27.598849 -9.705091 4.205000
v -27.669028 -9.595661 4.205000
v -27.778458 -9.665840 4.205000
v -27.708278 -9.775270 4.205000
v -27.598849 -9.705091 4.925000
v -27.669028 -9.595661 4.925000
v -27.778458 -9.665840 4.925000
v -27.708278 -9.775270 4.925000
v -28.263270 -8.669071 4.205000
v -28.333449 -8.559641 4.205000
v -28.442879 -8.629820 4.205000
v -28.372700 -8.739250 4.205000
v -28.263270 -8.669071 4.925000
v -28.333449 -8.559641 4.925000
v -28.442879 -8.629820 4.925000
v -28.372700 -8.739250 4.925000
f 21 22 23 24
f 25 28 27 26
f 21 25 26 22
f 22 26 27 23
f 23 27 28 24
f 25 21 24 28
f 29 30 31 32
f 33 36 35 34
f 29 33 34 30
f 30 34 35 31
f 31 35 36 32
f 33 29 32 36
f 37 38 50 49
f 38 39 51 50
f 39 40 52 51
f 40 41 53 52
f 41 42 54 53
f 42 43 55 54
f 43 44 56 55
f 44 45 57 56
f 45 46 58 57
f 46 47 59 58
f 47 48 60 59
f 48 37 49 60
f 48 47 46 45 44 43 42 41 40 39 38 37
f 49 50 51 52 53 54 55 56 57 58 59 60
f 61 62 63 64
f 65 68 67 66
f 61 65 66 62
f 62 66 67 63
f 63 67 68 64
f 65 61 64 68
f 69 70 82 81
f 70 71 83 82
f 71 72 84 83
f 72 73 85 84
f 73 74 86 85
f 74 75 87 86
f 75 76 88 87
f 76 77 89 88
f 77 78 90 89
f 78 79 91 90
f 79 80 92 91
f 80 69 81 92
f 80 79 78 77 76 75 74 73 72 71 70 69
f 81 82 83 84 85 86 87 88 89 90 91 92
f 93 94 95 96
f 97 100 99 98
f 93 97 98 94
f 94 98 99 95
f 95 99 100 96
f 97 93 96 100
f 101 102 114 113
f 102 103 115 114
f 103 104 116 115
f 104 105 117 116
f 105 106 118 117
f 106 107 119 118
f 107 108 120 119
f 108 109 121 120
f 109 110 122 121
f 110 111 123 122
f 111 112 124 123
f 112 101 113 124
f 112 111 110 109 108 107 106 105 104 103 102 101
f 113 114 115 116 117 118 119 120 121 122 123 124
f 125 126 127 128
f 129 132 131 130
f 125 129 130 126
f 126 130 131 127
f 127 131 132 128
f 129 125 128 132
f 133 134 146 145
f 134 135 147 146
f 135 136 148 147
f 136 137 149 148
f 137 138 150 149
f 138 139 151 150
f 139 140 152 151
f 140 141 153 152
f 141 142 154 153
f 142 143 155 154
f 143 144 156 155
f 144 133 145 156
f 144 143 142 141 140 139 138 137 136 135 134 133
f 145 146 147 148 149 150 151 152 153 154 155 156
f 157 158 159 160
f 161 164 163 162
f 157 161 162 158
f 158 162 163 159
f 159 163 164 160
f 161 157 160 164
f 165 166 167 168
f 169 172 171 170
f 165 169 170 166
f 166 170 171 167
f 167 171 172 168
f 169 165 168 172
f 173 174 175 176
f 177 180 179 178
f 173 177 178 174
f 174 178 179 175
f 175 179 180 176
f 177 173 176 180
f 181 182 183 184
f 185 188 187 186
f 181 185 186 182
f 182 186 187 183
f 183 187 188 184
f 185 181 184 188
f 189 190 191 192
f 193 196 195 194
f 189 193 194 190
f 190 194 195 191
f 191 195 196 192
f 193 189 192 196
f 197 198 199 200
f 201 204 203 202
f 197 201 202 198
f 198 202 203 199
f 199 203 204 200
f 201 197 200 204
f 205 206 207 208
f 209 212 211 210
f 205 209 210 206
f 206 210 211 207
f 207 211 212 208
f 209 205 208 212
f 213 214 215 216
f 217 220 219 218
f 213 217 218 214
f 214 218 219 215
f 215 219 220 216
f 217 213 216 220
f 221 222 223 224
f 225 228 227 226
f 221 225 226 222
f 222 226 227 223
f 223 227 228 224
f 225 221 224 228
f 229 230 231 232
f 233 236 235 234
f 229 233 234 230
f 230 234 235 231
f 231 235 236 232
f 233 229 232 236
f 237 238 239 240
f 241 244 243 242
f 237 241 242 238
f 238 242 243 239
f 239 243 244 240
f 241 237 240 244
f 245 246 247 248
f 249 252 251 250
f 245 249 250 246
f 246 250 251 247
f 247 251 252 248
f 249 245 248 252
f 253 254 255 256
f 257 260 259 258
f 253 257 258 254
f 254 258 259 255
f 255 259 260 256
f 257 253 256 260
f 261 262 263 264
f 265 268 267 266
f 261 265 266 262
f 262 266 267 263
f 263 267 268 264
f 265 261 264 268
f 269 270 271 272
f 273 276 275 274
f 269 273 274 270
f 270 274 275 271
f 271 275 276 272
f 273 269 272 276
f 277 278 279 280
f 281 284 283 282
f 277 281 282 278
f 278 282 283 279
f 279 283 284 280
f 281 277 280 284
f 285 286 287 288
f 289 292 291 290
f 285 289 290 286
f 286 290 291 287
f 287 291 292 288
f 289 285 288 292
g Baker__FrontWindows
# materialClass=painted-metal-glass-dark
# confidence=medium-visual
# evidenceIds=source:image:commons-baker-2008,source:image:commons-baker-2009,source:image:commons-baker-2017,source:image:commons-baker-2023
# notes=Opening panels are visual proxies, not measured frames.
v -13.764426 -27.118234 1.275000
v -15.195008 -24.887554 1.275000
v -15.279184 -24.941538 1.275000
v -13.848602 -27.172218 1.275000
v -13.764426 -27.118234 2.825000
v -15.195008 -24.887554 2.825000
v -15.279184 -24.941538 2.825000
v -13.848602 -27.172218 2.825000
v -14.380921 -26.156944 1.275000
v -15.811503 -23.926264 1.275000
v -15.895680 -23.980248 1.275000
v -14.465098 -26.210928 1.275000
v -14.380921 -26.156944 2.825000
v -15.811503 -23.926264 2.825000
v -15.895680 -23.980248 2.825000
v -14.465098 -26.210928 2.825000
v -14.997416 -25.195654 1.275000
v -16.427998 -22.964973 1.275000
v -16.512175 -23.018958 1.275000
v -15.081593 -25.249638 1.275000
v -14.997416 -25.195654 2.825000
v -16.427998 -22.964973 2.825000
v -16.512175 -23.018958 2.825000
v -15.081593 -25.249638 2.825000
v -15.613912 -24.234364 1.275000
v -17.044494 -22.003683 1.275000
v -17.128670 -22.057668 1.275000
v -15.698088 -24.288348 1.275000
v -15.613912 -24.234364 2.825000
v -17.044494 -22.003683 2.825000
v -17.128670 -22.057668 2.825000
v -15.698088 -24.288348 2.825000
v -27.135220 -6.269396 1.275000
v -28.565802 -4.038716 1.275000
v -28.649978 -4.092700 1.275000
v -27.219397 -6.323380 1.275000
v -27.135220 -6.269396 2.825000
v -28.565802 -4.038716 2.825000
v -28.649978 -4.092700 2.825000
v -27.219397 -6.323380 2.825000
v -27.751715 -5.308106 1.275000
v -29.182297 -3.077426 1.275000
v -29.266474 -3.131410 1.275000
v -27.835892 -5.362090 1.275000
v -27.751715 -5.308106 2.825000
v -29.182297 -3.077426 2.825000
v -29.266474 -3.131410 2.825000
v -27.835892 -5.362090 2.825000
v -28.368211 -4.346816 1.275000
v -29.798793 -2.116135 1.275000
v -29.882969 -2.170120 1.275000
v -28.452387 -4.400800 1.275000
v -28.368211 -4.346816 2.825000
v -29.798793 -2.116135 2.825000
v -29.882969 -2.170120 2.825000
v -28.452387 -4.400800 2.825000
v -28.984706 -3.385526 1.275000
v -30.415288 -1.154845 1.275000
v -30.499465 -1.208830 1.275000
v -29.068883 -3.439510 1.275000
v -28.984706 -3.385526 2.825000
v -30.415288 -1.154845 2.825000
v -30.499465 -1.208830 2.825000
v -29.068883 -3.439510 2.825000
v -13.764426 -27.118234 5.175000
v -15.195008 -24.887554 5.175000
v -15.279184 -24.941538 5.175000
v -13.848602 -27.172218 5.175000
v -13.764426 -27.118234 6.725000
v -15.195008 -24.887554 6.725000
v -15.279184 -24.941538 6.725000
v -13.848602 -27.172218 6.725000
v -14.380921 -26.156944 5.175000
v -15.811503 -23.926264 5.175000
v -15.895680 -23.980248 5.175000
v -14.465098 -26.210928 5.175000
v -14.380921 -26.156944 6.725000
v -15.811503 -23.926264 6.725000
v -15.895680 -23.980248 6.725000
v -14.465098 -26.210928 6.725000
v -14.997416 -25.195654 5.175000
v -16.427998 -22.964973 5.175000
v -16.512175 -23.018958 5.175000
v -15.081593 -25.249638 5.175000
v -14.997416 -25.195654 6.725000
v -16.427998 -22.964973 6.725000
v -16.512175 -23.018958 6.725000
v -15.081593 -25.249638 6.725000
v -15.613912 -24.234364 5.175000
v -17.044494 -22.003683 5.175000
v -17.128670 -22.057668 5.175000
v -15.698088 -24.288348 5.175000
v -15.613912 -24.234364 6.725000
v -17.044494 -22.003683 6.725000
v -17.128670 -22.057668 6.725000
v -15.698088 -24.288348 6.725000
v -27.135220 -6.269396 5.175000
v -28.565802 -4.038716 5.175000
v -28.649978 -4.092700 5.175000
v -27.219397 -6.323380 5.175000
v -27.135220 -6.269396 6.725000
v -28.565802 -4.038716 6.725000
v -28.649978 -4.092700 6.725000
v -27.219397 -6.323380 6.725000
v -27.751715 -5.308106 5.175000
v -29.182297 -3.077426 5.175000
v -29.266474 -3.131410 5.175000
v -27.835892 -5.362090 5.175000
v -27.751715 -5.308106 6.725000
v -29.182297 -3.077426 6.725000
v -29.266474 -3.131410 6.725000
v -27.835892 -5.362090 6.725000
v -28.368211 -4.346816 5.175000
v -29.798793 -2.116135 5.175000
v -29.882969 -2.170120 5.175000
v -28.452387 -4.400800 5.175000
v -28.368211 -4.346816 6.725000
v -29.798793 -2.116135 6.725000
v -29.882969 -2.170120 6.725000
v -28.452387 -4.400800 6.725000
v -28.984706 -3.385526 5.175000
v -30.415288 -1.154845 5.175000
v -30.499465 -1.208830 5.175000
v -29.068883 -3.439510 5.175000
v -28.984706 -3.385526 6.725000
v -30.415288 -1.154845 6.725000
v -30.499465 -1.208830 6.725000
v -29.068883 -3.439510 6.725000
f 293 294 295 296
f 297 300 299 298
f 293 297 298 294
f 294 298 299 295
f 295 299 300 296
f 297 293 296 300
f 301 302 303 304
f 305 308 307 306
f 301 305 306 302
f 302 306 307 303
f 303 307 308 304
f 305 301 304 308
f 309 310 311 312
f 313 316 315 314
f 309 313 314 310
f 310 314 315 311
f 311 315 316 312
f 313 309 312 316
f 317 318 319 320
f 321 324 323 322
f 317 321 322 318
f 318 322 323 319
f 319 323 324 320
f 321 317 320 324
f 325 326 327 328
f 329 332 331 330
f 325 329 330 326
f 326 330 331 327
f 327 331 332 328
f 329 325 328 332
f 333 334 335 336
f 337 340 339 338
f 333 337 338 334
f 334 338 339 335
f 335 339 340 336
f 337 333 336 340
f 341 342 343 344
f 345 348 347 346
f 341 345 346 342
f 342 346 347 343
f 343 347 348 344
f 345 341 344 348
f 349 350 351 352
f 353 356 355 354
f 349 353 354 350
f 350 354 355 351
f 351 355 356 352
f 353 349 352 356
f 357 358 359 360
f 361 364 363 362
f 357 361 362 358
f 358 362 363 359
f 359 363 364 360
f 361 357 360 364
f 365 366 367 368
f 369 372 371 370
f 365 369 370 366
f 366 370 371 367
f 367 371 372 368
f 369 365 368 372
f 373 374 375 376
f 377 380 379 378
f 373 377 378 374
f 374 378 379 375
f 375 379 380 376
f 377 373 376 380
f 381 382 383 384
f 385 388 387 386
f 381 385 386 382
f 382 386 387 383
f 383 387 388 384
f 385 381 384 388
f 389 390 391 392
f 393 396 395 394
f 389 393 394 390
f 390 394 395 391
f 391 395 396 392
f 393 389 392 396
f 397 398 399 400
f 401 404 403 402
f 397 401 402 398
f 398 402 403 399
f 399 403 404 400
f 401 397 400 404
f 405 406 407 408
f 409 412 411 410
f 405 409 410 406
f 406 410 411 407
f 407 411 412 408
f 409 405 408 412
f 413 414 415 416
f 417 420 419 418
f 413 417 418 414
f 414 418 419 415
f 415 419 420 416
f 417 413 416 420
g Baker__FrontAwnings
# materialClass=painted-metal-green
# confidence=high-visual
# evidenceIds=source:image:commons-baker-2008,source:image:commons-baker-2009,source:image:commons-baker-2017,source:image:commons-baker-2023
# notes=Green awning rhythm is visually supported; exact projection is provisional.
v -13.686789 -27.276340 3.060000
v -15.306315 -24.751041 3.060000
v -15.962893 -25.172118 3.060000
v -14.343366 -27.697417 3.060000
v -13.686789 -27.276340 3.180000
v -15.306315 -24.751041 3.180000
v -15.962893 -25.172118 3.180000
v -14.343366 -27.697417 3.180000
v -14.303284 -26.315050 3.060000
v -15.922811 -23.789751 3.060000
v -16.579388 -24.210828 3.060000
v -14.959862 -26.736127 3.060000
v -14.303284 -26.315050 3.180000
v -15.922811 -23.789751 3.180000
v -16.579388 -24.210828 3.180000
v -14.959862 -26.736127 3.180000
v -14.919779 -25.353760 3.060000
v -16.539306 -22.828461 3.060000
v -17.195884 -23.249538 3.060000
v -15.576357 -25.774837 3.060000
v -14.919779 -25.353760 3.180000
v -16.539306 -22.828461 3.180000
v -17.195884 -23.249538 3.180000
v -15.576357 -25.774837 3.180000
v -15.536275 -24.392470 3.060000
v -17.155801 -21.867171 3.060000
v -17.812379 -22.288248 3.060000
v -16.192852 -24.813547 3.060000
v -15.536275 -24.392470 3.180000
v -17.155801 -21.867171 3.180000
v -17.812379 -22.288248 3.180000
v -16.192852 -24.813547 3.180000
v -27.057583 -6.427502 3.060000
v -28.677110 -3.902203 3.060000
v -29.333687 -4.323280 3.060000
v -27.714161 -6.848579 3.060000
v -27.057583 -6.427502 3.180000
v -28.677110 -3.902203 3.180000
v -29.333687 -4.323280 3.180000
v -27.714161 -6.848579 3.180000
v -27.674078 -5.466212 3.060000
v -29.293605 -2.940913 3.060000
v -29.950183 -3.361990 3.060000
v -28.330656 -5.887289 3.060000
v -27.674078 -5.466212 3.180000
v -29.293605 -2.940913 3.180000
v -29.950183 -3.361990 3.180000
v -28.330656 -5.887289 3.180000
v -28.290574 -4.504922 3.060000
v -29.910100 -1.979623 3.060000
v -30.566678 -2.400700 3.060000
v -28.947151 -4.925999 3.060000
v -28.290574 -4.504922 3.180000
v -29.910100 -1.979623 3.180000
v -30.566678 -2.400700 3.180000
v -28.947151 -4.925999 3.180000
v -28.907069 -3.543632 3.060000
v -30.526596 -1.018333 3.060000
v -31.183173 -1.439410 3.060000
v -29.563647 -3.964709 3.060000
v -28.907069 -3.543632 3.180000
v -30.526596 -1.018333 3.180000
v -31.183173 -1.439410 3.180000
v -29.563647 -3.964709 3.180000
v -13.686789 -27.276340 6.990000
v -15.306315 -24.751041 6.990000
v -15.962893 -25.172118 6.990000
v -14.343366 -27.697417 6.990000
v -13.686789 -27.276340 7.110000
v -15.306315 -24.751041 7.110000
v -15.962893 -25.172118 7.110000
v -14.343366 -27.697417 7.110000
v -14.303284 -26.315050 6.990000
v -15.922811 -23.789751 6.990000
v -16.579388 -24.210828 6.990000
v -14.959862 -26.736127 6.990000
v -14.303284 -26.315050 7.110000
v -15.922811 -23.789751 7.110000
v -16.579388 -24.210828 7.110000
v -14.959862 -26.736127 7.110000
v -14.919779 -25.353760 6.990000
v -16.539306 -22.828461 6.990000
v -17.195884 -23.249538 6.990000
v -15.576357 -25.774837 6.990000
v -14.919779 -25.353760 7.110000
v -16.539306 -22.828461 7.110000
v -17.195884 -23.249538 7.110000
v -15.576357 -25.774837 7.110000
v -15.536275 -24.392470 6.990000
v -17.155801 -21.867171 6.990000
v -17.812379 -22.288248 6.990000
v -16.192852 -24.813547 6.990000
v -15.536275 -24.392470 7.110000
v -17.155801 -21.867171 7.110000
v -17.812379 -22.288248 7.110000
v -16.192852 -24.813547 7.110000
v -27.057583 -6.427502 6.990000
v -28.677110 -3.902203 6.990000
v -29.333687 -4.323280 6.990000
v -27.714161 -6.848579 6.990000
v -27.057583 -6.427502 7.110000
v -28.677110 -3.902203 7.110000
v -29.333687 -4.323280 7.110000
v -27.714161 -6.848579 7.110000
v -27.674078 -5.466212 6.990000
v -29.293605 -2.940913 6.990000
v -29.950183 -3.361990 6.990000
v -28.330656 -5.887289 6.990000
v -27.674078 -5.466212 7.110000
v -29.293605 -2.940913 7.110000
v -29.950183 -3.361990 7.110000
v -28.330656 -5.887289 7.110000
v -28.290574 -4.504922 6.990000
v -29.910100 -1.979623 6.990000
v -30.566678 -2.400700 6.990000
v -28.947151 -4.925999 6.990000
v -28.290574 -4.504922 7.110000
v -29.910100 -1.979623 7.110000
v -30.566678 -2.400700 7.110000
v -28.947151 -4.925999 7.110000
v -28.907069 -3.543632 6.990000
v -30.526596 -1.018333 6.990000
v -31.183173 -1.439410 6.990000
v -29.563647 -3.964709 6.990000
v -28.907069 -3.543632 7.110000
v -30.526596 -1.018333 7.110000
v -31.183173 -1.439410 7.110000
v -29.563647 -3.964709 7.110000
f 421 422 423 424
f 425 428 427 426
f 421 425 426 422
f 422 426 427 423
f 423 427 428 424
f 425 421 424 428
f 429 430 431 432
f 433 436 435 434
f 429 433 434 430
f 430 434 435 431
f 431 435 436 432
f 433 429 432 436
f 437 438 439 440
f 441 444 443 442
f 437 441 442 438
f 438 442 443 439
f 439 443 444 440
f 441 437 440 444
f 445 446 447 448
f 449 452 451 450
f 445 449 450 446
f 446 450 451 447
f 447 451 452 448
f 449 445 448 452
f 453 454 455 456
f 457 460 459 458
f 453 457 458 454
f 454 458 459 455
f 455 459 460 456
f 457 453 456 460
f 461 462 463 464
f 465 468 467 466
f 461 465 466 462
f 462 466 467 463
f 463 467 468 464
f 465 461 464 468
f 469 470 471 472
f 473 476 475 474
f 469 473 474 470
f 470 474 475 471
f 471 475 476 472
f 473 469 472 476
f 477 478 479 480
f 481 484 483 482
f 477 481 482 478
f 478 482 483 479
f 479 483 484 480
f 481 477 480 484
f 485 486 487 488
f 489 492 491 490
f 485 489 490 486
f 486 490 491 487
f 487 491 492 488
f 489 485 488 492
f 493 494 495 496
f 497 500 499 498
f 493 497 498 494
f 494 498 499 495
f 495 499 500 496
f 497 493 496 500
f 501 502 503 504
f 505 508 507 506
f 501 505 506 502
f 502 506 507 503
f 503 507 508 504
f 505 501 504 508
f 509 510 511 512
f 513 516 515 514
f 509 513 514 510
f 510 514 515 511
f 511 515 516 512
f 513 509 512 516
f 517 518 519 520
f 521 524 523 522
f 517 521 522 518
f 518 522 523 519
f 519 523 524 520
f 521 517 520 524
f 525 526 527 528
f 529 532 531 530
f 525 529 530 526
f 526 530 531 527
f 527 531 532 528
f 529 525 528 532
f 533 534 535 536
f 537 540 539 538
f 533 537 538 534
f 534 538 539 535
f 535 539 540 536
f 537 533 536 540
f 541 542 543 544
f 545 548 547 546
f 541 545 546 542
f 542 546 547 543
f 543 547 548 544
f 545 541 544 548
g Baker__Bands
# materialClass=concrete-painted
# confidence=high-visual
# evidenceIds=source:image:commons-baker-2008,source:image:commons-baker-2009,source:image:commons-baker-2017,source:image:commons-baker-2023
# notes=Major horizontal facade bands only.
v -14.055083 -26.646494 3.660000
v -30.107795 -1.615789 3.660000
v -30.343490 -1.766945 3.660000
v -14.290777 -26.797650 3.660000
v -14.055083 -26.646494 3.940000
v -30.107795 -1.615789 3.940000
v -30.343490 -1.766945 3.940000
v -14.290777 -26.797650 3.940000
v -14.055083 -26.646494 7.690000
v -30.107795 -1.615789 7.690000
v -30.343490 -1.766945 7.690000
v -14.290777 -26.797650 7.690000
v -14.055083 -26.646494 8.010000
v -30.107795 -1.615789 8.010000
v -30.343490 -1.766945 8.010000
v -14.290777 -26.797650 8.010000
f 549 550 551 552
f 553 556 555 554
f 549 553 554 550
f 550 554 555 551
f 551 555 556 552
f 553 549 552 556
f 557 558 559 560
f 561 564 563 562
f 557 561 562 558
f 558 562 563 559
f 559 563 564 560
f 561 557 560 564
g Baker__Parapet
# materialClass=concrete-painted
# confidence=high-visual
# evidenceIds=source:image:commons-baker-2008,source:image:commons-baker-2009,source:image:commons-baker-2017,source:image:commons-baker-2023
# notes=Central raised sign/parapet mass; lettering omitted.
v -17.278582 -21.564577 8.145000
v -26.833790 -6.665315 8.145000
v -27.187332 -6.892049 8.145000
v -17.632124 -21.791311 8.145000
v -17.278582 -21.564577 9.495000
v -26.833790 -6.665315 9.495000
v -27.187332 -6.892049 9.495000
v -17.632124 -21.791311 9.495000
f 565 566 567 568
f 569 572 571 570
f 565 569 570 566
f 566 570 571 567
f 567 571 572 568
f 569 565 568 572
g Baker__Roof
# materialClass=corrugated-metal-green
# confidence=medium-low-visual
# evidenceIds=source:image:commons-baker-2009,source:image:commons-baker-2017,source:image:commons-baker-2023
# notes=Roof is a replaceable envelope for multi-angle visual QA; ridge/eave geometry is not survey-derived.
v -6.986704 -15.439372 8.150000
v -16.973785 0.133303 8.150000
v -11.980244 -7.653035 10.200000
v -27.189093 -28.395586 8.150000
v -37.176174 -12.822910 8.150000
v -32.182634 -20.609248 10.200000
f 573 575 574
f 576 577 578
f 573 576 578 575
f 575 578 577 574
f 573 574 577 576
