# Generated by tools.modeling.mesh
o Baker__Portico
# featureId=uplb:building:baker-hall
# sourceFeatureId=uplb:building:baker-hall
# lod=lod1
# materialClass=concrete-painted
# confidence=high-visual
# evidenceIds=source:image:commons-baker-2008,source:image:commons-baker-2009,source:image:commons-baker-2017,source:image:commons-baker-2023
v -17.438796 -21.370331 3.800000
v -26.724082 -6.891952 3.800000
v -28.660145 -8.133589 3.800000
v -19.374858 -22.611968 3.800000
v -17.438796 -21.370331 4.080000
v -26.724082 -6.891952 4.080000
v -28.660145 -8.133589 4.080000
v -19.374858 -22.611968 4.080000
v -20.103888 -20.317460 0.000000
v -20.400801 -19.854489 0.000000
v -20.863772 -20.151402 0.000000
v -20.566859 -20.614373 0.000000
v -20.103888 -20.317460 3.800000
v -20.400801 -19.854489 3.800000
v -20.863772 -20.151402 3.800000
v -20.566859 -20.614373 3.800000
v -20.656579 -19.965066 4.080000
v -20.768118 -20.087529 4.080000
v -20.803482 -20.249354 4.080000
v -20.753195 -20.407181 4.080000
v -20.630732 -20.518719 4.080000
v -20.468907 -20.554083 4.080000
v -20.311080 -20.503796 4.080000
v -20.199542 -20.381333 4.080000
v -20.164178 -20.219508 4.080000
v -20.214465 -20.061681 4.080000
v -20.336928 -19.950143 4.080000
v -20.498753 -19.914779 4.080000
v -20.656579 -19.965066 8.130000
v -20.768118 -20.087529 8.130000
v -20.803482 -20.249354 8.130000
v -20.753195 -20.407181 8.130000
v -20.630732 -20.518719 8.130000
v -20.468907 -20.554083 8.130000
v -20.311080 -20.503796 8.130000
v -20.199542 -20.381333 8.130000
v -20.164178 -20.219508 8.130000
v -20.214465 -20.061681 8.130000
v -20.336928 -19.950143 8.130000
v -20.498753 -19.914779 8.130000
v -22.263257 -16.950395 0.000000
v -22.560170 -16.487424 0.000000
v -23.023141 -16.784337 0.000000
v -22.726228 -17.247308 0.000000
v -22.263257 -16.950395 3.800000
v -22.560170 -16.487424 3.800000
v -23.023141 -16.784337 3.800000
v -22.726228 -17.247308 3.800000
v -22.815948 -16.598001 4.080000
v -22.927487 -16.720464 4.080000
v -22.962851 -16.882289 4.080000
v -22.912564 -17.040116 4.080000
v -22.790101 -17.151654 4.080000
v -22.628276 -17.187018 4.080000
v -22.470449 -17.136731 4.080000
v -22.358911 -17.014268 4.080000
v -22.323547 -16.852443 4.080000
v -22.373834 -16.694617 4.080000
v -22.496296 -16.583078 4.080000
v -22.658122 -16.547714 4.080000
v -22.815948 -16.598001 8.130000
v -22.927487 -16.720464 8.130000
v -22.962851 -16.882289 8.130000
v -22.912564 -17.040116 8.130000
v -22.790101 -17.151654 8.130000
v -22.628276 -17.187018 8.130000
v -22.470449 -17.136731 8.130000
v -22.358911 -17.014268 8.130000
v -22.323547 -16.852443 8.130000
v -22.373834 -16.694617 8.130000
v -22.496296 -16.583078 8.130000
v -22.658122 -16.547714 8.130000
v -24.422625 -13.583330 0.000000
v -24.719539 -13.120359 0.000000
v -25.182510 -13.417272 0.000000
v -24.885597 -13.880244 0.000000
v -24.422625 -13.583330 3.800000
v -24.719539 -13.120359 3.800000
v -25.182510 -13.417272 3.800000
v -24.885597 -13.880244 3.800000
v -24.975317 -13.230936 4.080000
v -25.086856 -13.353399 4.080000
v -25.122220 -13.515224 4.080000
v -25.071933 -13.673051 4.080000
v -24.949470 -13.784589 4.080000
v -24.787645 -13.819953 4.080000
v -24.629818 -13.769666 4.080000
v -24.518280 -13.647204 4.080000
v -24.482916 -13.485378 4.080000
v -24.533203 -13.327552 4.080000
v -24.655665 -13.216013 4.080000
v -24.817491 -13.180649 4.080000
v -24.975317 -13.230936 8.130000
v -25.086856 -13.353399 8.130000
v -25.122220 -13.515224 8.130000
v -25.071933 -13.673051 8.130000
v -24.949470 -13.784589 8.130000
v -24.787645 -13.819953 8.130000
v -24.629818 -13.769666 8.130000
v -24.518280 -13.647204 8.130000
v -24.482916 -13.485378 8.130000
v -24.533203 -13.327552 8.130000
v -24.655665 -13.216013 8.130000
v -24.817491 -13.180649 8.130000
v -26.581994 -10.216265 0.000000
v -26.878907 -9.753294 0.000000
v -27.341879 -10.050207 0.000000
v -27.044966 -10.513179 0.000000
v -26.581994 -10.216265 3.800000
v -26.878907 -9.753294 3.800000
v -27.341879 -10.050207 3.800000
v -27.044966 -10.513179 3.800000
v -27.134686 -9.863871 4.080000
v -27.246225 -9.986334 4.080000
v -27.281588 -10.148159 4.080000
v -27.231302 -10.305986 4.080000
v -27.108839 -10.417524 4.080000
v -26.947014 -10.452888 4.080000
v -26.789187 -10.402601 4.080000
v -26.677649 -10.280139 4.080000
v -26.642285 -10.118313 4.080000
v -26.692571 -9.960487 4.080000
v -26.815034 -9.848948 4.080000
v -26.976859 -9.813584 4.080000
v -27.134686 -9.863871 8.130000
v -27.246225 -9.986334 8.130000
v -27.281588 -10.148159 8.130000
v -27.231302 -10.305986 8.130000
v -27.108839 -10.417524 8.130000
v -26.947014 -10.452888 8.130000
v -26.789187 -10.402601 8.130000
v -26.677649 -10.280139 8.130000
v -26.642285 -10.118313 8.130000
v -26.692571 -9.960487 8.130000
v -26.815034 -9.848948 8.130000
v -26.976859 -9.813584 8.130000
v -19.324352 -22.579577 4.100000
v -28.609639 -8.101198 4.100000
v -28.744321 -8.187573 4.100000
v -19.459035 -22.665952 4.100000
v -19.324352 -22.579577 4.260000
v -28.609639 -8.101198 4.260000
v -28.744321 -8.187573 4.260000
v -19.459035 -22.665952 4.260000
v -19.315935 -22.574179 4.860000
v -28.601221 -8.095800 4.860000
v -28.752739 -8.192972 4.860000
v -19.467453 -22.671351 4.860000
v -19.315935 -22.574179 5.040000
v -28.601221 -8.095800 5.040000
v -28.752739 -8.192972 5.040000
v -19.467453 -22.671351 5.040000
v -17.063654 -21.723734 7.740000
v -26.888783 -6.403588 7.740000
v -29.035286 -7.780186 7.740000
v -19.210158 -23.100331 7.740000
v -17.063654 -21.723734 8.160000
v -26.888783 -6.403588 8.160000
v -29.035286 -7.780186 8.160000
v -19.210158 -23.100331 8.160000
v -19.625794 -22.137330 4.205000
v -19.695974 -22.027901 4.205000
v -19.805404 -22.098080 4.205000
v -19.735224 -22.207510 4.205000
v -19.625794 -22.137330 4.925000
v -19.695974 -22.027901 4.925000
v -19.805404 -22.098080 4.925000
v -19.735224 -22.207510 4.925000
v -20.290216 -21.101310 4.205000
v -20.360395 -20.991881 4.205000
v -20.469825 -21.062060 4.205000
v -20.399645 -21.171490 4.205000
v -20.290216 -21.101310 4.925000
v -20.360395 -20.991881 4.925000
v -20.469825 -21.062060 4.925000
v -20.399645 -21.171490 4.925000
v -20.954637 -20.065290 4.205000
v -21.024816 -19.955861 4.205000
v -21.134246 -20.026040 4.205000
v -21.064066 -20.135470 4.205000
v -20.954637 -20.065290 4.925000
v -21.024816 -19.955861 4.925000
v -21.134246 -20.026040 4.925000
v -21.064066 -20.135470 4.925000
v -21.619058 -19.029270 4.205000
v -21.689238 -18.919841 4.205000
v -21.798667 -18.990020 4.205000
v -21.728488 -19.099450 4.205000
v -21.619058 -19.029270 4.925000
v -21.689238 -18.919841 4.925000
v -21.798667 -18.990020 4.925000
v -21.728488 -19.099450 4.925000
v -22.283479 -17.993250 4.205000
v -22.353659 -17.883821 4.205000
v -22.463088 -17.954000 4.205000
v -22.392909 -18.063430 4.205000
v -22.283479 -17.993250 4.925000
v -22.353659 -17.883821 4.925000
v -22.463088 -17.954000 4.925000
v -22.392909 -18.063430 4.925000
v -22.947900 -16.957230 4.205000
v -23.018080 -16.847801 4.205000
v -23.127510 -16.917980 4.205000
v -23.057330 -17.027410 4.205000
v -22.947900 -16.957230 4.925000
v -23.018080 -16.847801 4.925000
v -23.127510 -16.917980 4.925000
v -23.057330 -17.027410 4.925000
v -23.612322 -15.921210 4.205000
v -23.682501 -15.811781 4.205000
v -23.791931 -15.881960 4.205000
v -23.721751 -15.991390 4.205000
v -23.612322 -15.921210 4.925000
v -23.682501 -15.811781 4.925000
v -23.791931 -15.881960 4.925000
v -23.721751 -15.991390 4.925000
v -24.276743 -14.885190 4.205000
v -24.346922 -14.775761 4.205000
v -24.456352 -14.845940 4.205000
v -24.386172 -14.955370 4.205000
v -24.276743 -14.885190 4.925000
v -24.346922 -14.775761 4.925000
v -24.456352 -14.845940 4.925000
v -24.386172 -14.955370 4.925000
v -24.941164 -13.849170 4.205000
v -25.011344 -13.739741 4.205000
v -25.120773 -13.809920 4.205000
v -25.050594 -13.919350 4.205000
v -24.941164 -13.849170 4.925000
v -25.011344 -13.739741 4.925000
v -25.120773 -13.809920 4.925000
v -25.050594 -13.919350 4.925000
v -25.605585 -12.813150 4.205000
v -25.675765 -12.703721 4.205000
v -25.785194 -12.773900 4.205000
v -25.715015 -12.883330 4.205000
v -25.605585 -12.813150 4.925000
v -25.675765 -12.703721 4.925000
v -25.785194 -12.773900 4.925000
v -25.715015 -12.883330 4.925000
v -26.270006 -11.777130 4.205000
v -26.340186 -11.667701 4.205000
v -26.449616 -11.737880 4.205000
v -26.379436 -11.847310 4.205000
v -26.270006 -11.777130 4.925000
v -26.340186 -11.667701 4.925000
v -26.449616 -11.737880 4.925000
v -26.379436 -11.847310 4.925000
v -26.934428 -10.741110 4.205000
v -27.004607 -10.631681 4.205000
v -27.114037 -10.701860 4.205000
v -27.043857 -10.811290 4.205000
v -26.934428 -10.741110 4.925000
v -27.004607 -10.631681 4.925000
v -27.114037 -10.701860 4.925000
v -27.043857 -10.811290 4.925000
v -27.598849 -9.705091 4.205000
v -27.669028 -9.595661 4.205000
v -27.778458 -9.665840 4.205000
v -27.708278 -9.775270 4.205000
v -27.598849 -9.705091 4.925000
v -27.669028 -9.595661 4.925000
v -27.778458 -9.665840 4.925000
v -27.708278 -9.775270 4.925000
v -28.263270 -8.669071 4.205000
v -28.333449 -8.559641 4.205000
v -28.442879 -8.629820 4.205000
v -28.372700 -8.739250 4.205000
v -28.263270 -8.669071 4.925000
v -28.333449 -8.559641 4.925000
v -28.442879 -8.629820 4.925000
v -28.372700 -8.739250 4.925000
f 1 2 3 4
f 5 8 7 6
f 1 5 6 2
f 2 6 7 3
f 3 7 8 4
f 5 1 4 8
f 9 10 11 12
f 13 16 15 14
f 9 13 14 10
f 10 14 15 11
f 11 15 16 12
f 13 9 12 16
f 17 18 30 29
f 18 19 31 30
f 19 20 32 31
f 20 21 33 32
f 21 22 34 33
f 22 23 35 34
f 23 24 36 35
f 24 25 37 36
f 25 26 38 37
f 26 27 39 38
f 27 28 40 39
f 28 17 29 40
f 28 27 26 25 24 23 22 21 20 19 18 17
f 29 30 31 32 33 34 35 36 37 38 39 40
f 41 42 43 44
f 45 48 47 46
f 41 45 46 42
f 42 46 47 43
f 43 47 48 44
f 45 41 44 48
f 49 50 62 61
f 50 51 63 62
f 51 52 64 63
f 52 53 65 64
f 53 54 66 65
f 54 55 67 66
f 55 56 68 67
f 56 57 69 68
f 57 58 70 69
f 58 59 71 70
f 59 60 72 71
f 60 49 61 72
f 60 59 58 57 56 55 54 53 52 51 50 49
f 61 62 63 64 65 66 67 68 69 70 71 72
f 73 74 75 76
f 77 80 79 78
f 73 77 78 74
f 74 78 79 75
f 75 79 80 76
f 77 73 76 80
f 81 82 94 93
f 82 83 95 94
f 83 84 96 95
f 84 85 97 96
f 85 86 98 97
f 86 87 99 98
f 87 88 100 99
f 88 89 101 100
f 89 90 102 101
f 90 91 103 102
f 91 92 104 103
f 92 81 93 104
f 92 91 90 89 88 87 86 85 84 83 82 81
f 93 94 95 96 97 98 99 100 101 102 103 104
f 105 106 107 108
f 109 112 111 110
f 105 109 110 106
f 106 110 111 107
f 107 111 112 108
f 109 105 108 112
f 113 114 126 125
f 114 115 127 126
f 115 116 128 127
f 116 117 129 128
f 117 118 130 129
f 118 119 131 130
f 119 120 132 131
f 120 121 133 132
f 121 122 134 133
f 122 123 135 134
f 123 124 136 135
f 124 113 125 136
f 124 123 122 121 120 119 118 117 116 115 114 113
f 125 126 127 128 129 130 131 132 133 134 135 136
f 137 138 139 140
f 141 144 143 142
f 137 141 142 138
f 138 142 143 139
f 139 143 144 140
f 141 137 140 144
f 145 146 147 148
f 149 152 151 150
f 145 149 150 146
f 146 150 151 147
f 147 151 152 148
f 149 145 148 152
f 153 154 155 156
f 157 160 159 158
f 153 157 158 154
f 154 158 159 155
f 155 159 160 156
f 157 153 156 160
f 161 162 163 164
f 165 168 167 166
f 161 165 166 162
f 162 166 167 163
f 163 167 168 164
f 165 161 164 168
f 169 170 171 172
f 173 176 175 174
f 169 173 174 170
f 170 174 175 171
f 171 175 176 172
f 173 169 172 176
f 177 178 179 180
f 181 184 183 182
f 177 181 182 178
f 178 182 183 179
f 179 183 184 180
f 181 177 180 184
f 185 186 187 188
f 189 192 191 190
f 185 189 190 186
f 186 190 191 187
f 187 191 192 188
f 189 185 188 192
f 193 194 195 196
f 197 200 199 198
f 193 197 198 194
f 194 198 199 195
f 195 199 200 196
f 197 193 196 200
f 201 202 203 204
f 205 208 207 206
f 201 205 206 202
f 202 206 207 203
f 203 207 208 204
f 205 201 204 208
f 209 210 211 212
f 213 216 215 214
f 209 213 214 210
f 210 214 215 211
f 211 215 216 212
f 213 209 212 216
f 217 218 219 220
f 221 224 223 222
f 217 221 222 218
f 218 222 223 219
f 219 223 224 220
f 221 217 220 224
f 225 226 227 228
f 229 232 231 230
f 225 229 230 226
f 226 230 231 227
f 227 231 232 228
f 229 225 228 232
f 233 234 235 236
f 237 240 239 238
f 233 237 238 234
f 234 238 239 235
f 235 239 240 236
f 237 233 236 240
f 241 242 243 244
f 245 248 247 246
f 241 245 246 242
f 242 246 247 243
f 243 247 248 244
f 245 241 244 248
f 249 250 251 252
f 253 256 255 254
f 249 253 254 250
f 250 254 255 251
f 251 255 256 252
f 253 249 252 256
f 257 258 259 260
f 261 264 263 262
f 257 261 262 258
f 258 262 263 259
f 259 263 264 260
f 261 257 260 264
f 265 266 267 268
f 269 272 271 270
f 265 269 270 266
f 266 270 271 267
f 267 271 272 268
f 269 265 268 272
