# Generated by tools.modeling.mesh
o Baker__Parapet
# featureId=uplb:building:baker-hall
# sourceFeatureId=uplb:building:baker-hall
# lod=lod1
# materialClass=concrete-painted
# confidence=high-visual
# evidenceIds=source:image:commons-baker-2008,source:image:commons-baker-2009,source:image:commons-baker-2017,source:image:commons-baker-2023
v -17.278582 -21.564577 8.145000
v -26.833790 -6.665315 8.145000
v -27.187332 -6.892049 8.145000
v -17.632124 -21.791311 8.145000
v -17.278582 -21.564577 9.495000
v -26.833790 -6.665315 9.495000
v -27.187332 -6.892049 9.495000
v -17.632124 -21.791311 9.495000
f 1 2 3 4
f 5 8 7 6
f 1 5 6 2
f 2 6 7 3
f 3 7 8 4
f 5 1 4 8
