# Generated by tools.modeling.mesh
o Baker__Bands
# featureId=uplb:building:baker-hall
# sourceFeatureId=uplb:building:baker-hall
# lod=lod0
# materialClass=concrete-painted
# confidence=high-visual
# evidenceIds=source:image:commons-baker-2008,source:image:commons-baker-2009,source:image:commons-baker-2017,source:image:commons-baker-2023
v -14.055083 -26.646494 3.660000
v -30.107795 -1.615789 3.660000
v -30.343490 -1.766945 3.660000
v -14.290777 -26.797650 3.660000
v -14.055083 -26.646494 3.940000
v -30.107795 -1.615789 3.940000
v -30.343490 -1.766945 3.940000
v -14.290777 -26.797650 3.940000
v -14.055083 -26.646494 7.690000
v -30.107795 -1.615789 7.690000
v -30.343490 -1.766945 7.690000
v -14.290777 -26.797650 7.690000
v -14.055083 -26.646494 8.010000
v -30.107795 -1.615789 8.010000
v -30.343490 -1.766945 8.010000
v -14.290777 -26.797650 8.010000
f 1 2 3 4
f 5 8 7 6
f 1 5 6 2
f 2 6 7 3
f 3 7 8 4
f 5 1 4 8
f 9 10 11 12
f 13 16 15 14
f 9 13 14 10
f 10 14 15 11
f 11 15 16 12
f 13 9 12 16
