# Generated by tools.modeling.mesh
o Baker__FrontWindows
# featureId=uplb:building:baker-hall
# sourceFeatureId=uplb:building:baker-hall
# lod=lod0
# materialClass=painted-metal-glass-dark
# confidence=medium-visual
# evidenceIds=source:image:commons-baker-2008,source:image:commons-baker-2009,source:image:commons-baker-2017,source:image:commons-baker-2023
v -13.764426 -27.118234 1.275000
v -15.195008 -24.887554 1.275000
v -15.279184 -24.941538 1.275000
v -13.848602 -27.172218 1.275000
v -13.764426 -27.118234 2.825000
v -15.195008 -24.887554 2.825000
v -15.279184 -24.941538 2.825000
v -13.848602 -27.172218 2.825000
v -14.380921 -26.156944 1.275000
v -15.811503 -23.926264 1.275000
v -15.895680 -23.980248 1.275000
v -14.465098 -26.210928 1.275000
v -14.380921 -26.156944 2.825000
v -15.811503 -23.926264 2.825000
v -15.895680 -23.980248 2.825000
v -14.465098 -26.210928 2.825000
v -14.997416 -25.195654 1.275000
v -16.427998 -22.964973 1.275000
v -16.512175 -23.018958 1.275000
v -15.081593 -25.249638 1.275000
v -14.997416 -25.195654 2.825000
v -16.427998 -22.964973 2.825000
v -16.512175 -23.018958 2.825000
v -15.081593 -25.249638 2.825000
v -15.613912 -24.234364 1.275000
v -17.044494 -22.003683 1.275000
v -17.128670 -22.057668 1.275000
v -15.698088 -24.288348 1.275000
v -15.613912 -24.234364 2.825000
v -17.044494 -22.003683 2.825000
v -17.128670 -22.057668 2.825000
v -15.698088 -24.288348 2.825000
v -27.135220 -6.269396 1.275000
v -28.565802 -4.038716 1.275000
v -28.649978 -4.092700 1.275000
v -27.219397 -6.323380 1.275000
v -27.135220 -6.269396 2.825000
v -28.565802 -4.038716 2.825000
v -28.649978 -4.092700 2.825000
v -27.219397 -6.323380 2.825000
v -27.751715 -5.308106 1.275000
v -29.182297 -3.077426 1.275000
v -29.266474 -3.131410 1.275000
v -27.835892 -5.362090 1.275000
v -27.751715 -5.308106 2.825000
v -29.182297 -3.077426 2.825000
v -29.266474 -3.131410 2.825000
v -27.835892 -5.362090 2.825000
v -28.368211 -4.346816 1.275000
v -29.798793 -2.116135 1.275000
v -29.882969 -2.170120 1.275000
v -28.452387 -4.400800 1.275000
v -28.368211 -4.346816 2.825000
v -29.798793 -2.116135 2.825000
v -29.882969 -2.170120 2.825000
v -28.452387 -4.400800 2.825000
v -28.984706 -3.385526 1.275000
v -30.415288 -1.154845 1.275000
v -30.499465 -1.208830 1.275000
v -29.068883 -3.439510 1.275000
v -28.984706 -3.385526 2.825000
v -30.415288 -1.154845 2.825000
v -30.499465 -1.208830 2.825000
v -29.068883 -3.439510 2.825000
v -13.764426 -27.118234 5.175000
v -15.195008 -24.887554 5.175000
v -15.279184 -24.941538 5.175000
v -13.848602 -27.172218 5.175000
v -13.764426 -27.118234 6.725000
v -15.195008 -24.887554 6.725000
v -15.279184 -24.941538 6.725000
v -13.848602 -27.172218 6.725000
v -14.380921 -26.156944 5.175000
v -15.811503 -23.926264 5.175000
v -15.895680 -23.980248 5.175000
v -14.465098 -26.210928 5.175000
v -14.380921 -26.156944 6.725000
v -15.811503 -23.926264 6.725000
v -15.895680 -23.980248 6.725000
v -14.465098 -26.210928 6.725000
v -14.997416 -25.195654 5.175000
v -16.427998 -22.964973 5.175000
v -16.512175 -23.018958 5.175000
v -15.081593 -25.249638 5.175000
v -14.997416 -25.195654 6.725000
v -16.427998 -22.964973 6.725000
v -16.512175 -23.018958 6.725000
v -15.081593 -25.249638 6.725000
v -15.613912 -24.234364 5.175000
v -17.044494 -22.003683 5.175000
v -17.128670 -22.057668 5.175000
v -15.698088 -24.288348 5.175000
v -15.613912 -24.234364 6.725000
v -17.044494 -22.003683 6.725000
v -17.128670 -22.057668 6.725000
v -15.698088 -24.288348 6.725000
v -27.135220 -6.269396 5.175000
v -28.565802 -4.038716 5.175000
v -28.649978 -4.092700 5.175000
v -27.219397 -6.323380 5.175000
v -27.135220 -6.269396 6.725000
v -28.565802 -4.038716 6.725000
v -28.649978 -4.092700 6.725000
v -27.219397 -6.323380 6.725000
v -27.751715 -5.308106 5.175000
v -29.182297 -3.077426 5.175000
v -29.266474 -3.131410 5.175000
v -27.835892 -5.362090 5.175000
v -27.751715 -5.308106 6.725000
v -29.182297 -3.077426 6.725000
v -29.266474 -3.131410 6.725000
v -27.835892 -5.362090 6.725000
v -28.368211 -4.346816 5.175000
v -29.798793 -2.116135 5.175000
v -29.882969 -2.170120 5.175000
v -28.452387 -4.400800 5.175000
v -28.368211 -4.346816 6.725000
v -29.798793 -2.116135 6.725000
v -29.882969 -2.170120 6.725000
v -28.452387 -4.400800 6.725000
v -28.984706 -3.385526 5.175000
v -30.415288 -1.154845 5.175000
v -30.499465 -1.208830 5.175000
v -29.068883 -3.439510 5.175000
v -28.984706 -3.385526 6.725000
v -30.415288 -1.154845 6.725000
v -30.499465 -1.208830 6.725000
v -29.068883 -3.439510 6.725000
f 1 2 3 4
f 5 8 7 6
f 1 5 6 2
f 2 6 7 3
f 3 7 8 4
f 5 1 4 8
f 9 10 11 12
f 13 16 15 14
f 9 13 14 10
f 10 14 15 11
f 11 15 16 12
f 13 9 12 16
f 17 18 19 20
f 21 24 23 22
f 17 21 22 18
f 18 22 23 19
f 19 23 24 20
f 21 17 20 24
f 25 26 27 28
f 29 32 31 30
f 25 29 30 26
f 26 30 31 27
f 27 31 32 28
f 29 25 28 32
f 33 34 35 36
f 37 40 39 38
f 33 37 38 34
f 34 38 39 35
f 35 39 40 36
f 37 33 36 40
f 41 42 43 44
f 45 48 47 46
f 41 45 46 42
f 42 46 47 43
f 43 47 48 44
f 45 41 44 48
f 49 50 51 52
f 53 56 55 54
f 49 53 54 50
f 50 54 55 51
f 51 55 56 52
f 53 49 52 56
f 57 58 59 60
f 61 64 63 62
f 57 61 62 58
f 58 62 63 59
f 59 63 64 60
f 61 57 60 64
f 65 66 67 68
f 69 72 71 70
f 65 69 70 66
f 66 70 71 67
f 67 71 72 68
f 69 65 68 72
f 73 74 75 76
f 77 80 79 78
f 73 77 78 74
f 74 78 79 75
f 75 79 80 76
f 77 73 76 80
f 81 82 83 84
f 85 88 87 86
f 81 85 86 82
f 82 86 87 83
f 83 87 88 84
f 85 81 84 88
f 89 90 91 92
f 93 96 95 94
f 89 93 94 90
f 90 94 95 91
f 91 95 96 92
f 93 89 92 96
f 97 98 99 100
f 101 104 103 102
f 97 101 102 98
f 98 102 103 99
f 99 103 104 100
f 101 97 100 104
f 105 106 107 108
f 109 112 111 110
f 105 109 110 106
f 106 110 111 107
f 107 111 112 108
f 109 105 108 112
f 113 114 115 116
f 117 120 119 118
f 113 117 118 114
f 114 118 119 115
f 115 119 120 116
f 117 113 116 120
f 121 122 123 124
f 125 128 127 126
f 121 125 126 122
f 122 126 127 123
f 123 127 128 124
f 125 121 124 128
