# Generated by tools.modeling.mesh
o BLDG_Baker_Massing
# FeatureId=uplb:building:baker-hall
# HeightMethod=2 levels × provisional 4.0 m family default
# Status=prototype-not-architectural-truth
v -20.864862 -16.026839 0.000000
v -24.390419 -18.246545 0.000000
v -24.390419 -18.246545 8.000000
v -20.864862 -16.026839 8.000000
v -27.549154 -13.310023 0.000000
v -27.549154 -13.310023 8.000000
v -30.633312 -8.506838 0.000000
v -30.633312 -8.506838 8.000000
v -27.107755 -6.287133 0.000000
v -27.107755 -6.287133 8.000000
v -29.999827 -1.784142 0.000000
v -29.999827 -1.784142 8.000000
v -4.408109 14.543624 0.000000
v -4.408109 14.543624 8.000000
v 15.746726 27.172288 0.000000
v 15.746726 27.172288 8.000000
v 31.583521 2.478320 0.000000
v 31.583521 2.478320 8.000000
v -14.163051 -26.478141 0.000000
v -14.163051 -26.478141 8.000000
f 1 2 3 4
f 2 5 6 3
f 5 7 8 6
f 7 9 10 8
f 9 11 12 10
f 11 13 14 12
f 13 15 16 14
f 15 17 18 16
f 17 19 20 18
f 19 1 4 20
f 13 9 11
f 12 10 14
f 1 9 13
f 14 10 4
f 19 1 13
f 14 4 20
f 17 19 13
f 14 20 18
f 15 17 13
f 14 18 16
f 5 1 2
f 3 4 6
f 9 5 7
f 8 6 10
f 1 5 9
f 10 6 4
