# Generated by tools.modeling.assembly
# featureId=uplb:building:university-library-knowledge-center
# version=main-library-ulck.v0.1-reference-production
# identityStatus=reviewed-candidate
# sourceFeatureId=candidate:osm:way/1098780830
o uplb_building_university-library-knowledge-center
g body-source-footprint
# materialClass=concrete
# confidence=source-supported-footprint/low-placeholder-height
# evidenceIds=source:legacy:uplb-virtual-campus-2014,source:uplb:main-library-pushover-2016,source:image:commons-bienvenido-gonzales-2023,source:index:commons-uplb-buildings
# notes=Footprint comes from the pinned project candidate snapshot. Production ID is not a canonical promotion.
v -37.380452 21.275394 0.000000
v -21.864253 -17.280776 0.000000
v -21.864253 -17.280776 12.000000
v -37.380452 21.275394 12.000000
v -12.283005 -41.064915 0.000000
v -12.283005 -41.064915 12.000000
v 37.400061 -21.322459 0.000000
v 37.400061 -21.322459 12.000000
v 23.452290 13.327025 0.000000
v 23.452290 13.327025 12.000000
v 12.291728 41.017871 0.000000
v 12.291728 41.017871 12.000000
v 0.369643 36.349605 0.000000
v 0.369643 36.349605 12.000000
v -7.426885 33.287927 0.000000
v -7.426885 33.287927 12.000000
v -14.444195 30.474884 0.000000
v -14.444195 30.474884 12.000000
f 1 2 3 4
f 2 5 6 3
f 5 7 8 6
f 7 9 10 8
f 9 11 12 10
f 11 13 14 12
f 13 15 16 14
f 15 17 18 16
f 17 1 4 18
f 15 17 9
f 10 18 16
f 11 13 9
f 10 14 12
f 7 9 2
f 3 10 8
f 2 5 7
f 8 6 3
f 1 2 17
f 18 3 4
f 13 15 9
f 10 16 14
f 2 9 17
f 18 10 3
