# Generated by tools.modeling.mesh
o Baker__Portico
# featureId=uplb:building:baker-hall
# sourceFeatureId=uplb:building:baker-hall
# lod=lod1
# materialClass=concrete-painted
# confidence=high-visual
# evidenceIds=source:image:commons-baker-2008,source:image:commons-baker-2009,source:image:commons-baker-2017,source:image:commons-baker-2023
v 15.976854 -7.400318 3.800000
v 1.443616 -16.599502 3.800000
v 2.673739 -18.542900 3.800000
v 17.206977 -9.343716 3.800000
v 15.976854 -7.400318 4.080000
v 1.443616 -16.599502 4.080000
v 2.673739 -18.542900 4.080000
v 17.206977 -9.343716 4.080000
v 14.908183 -10.059113 0.000000
v 14.443457 -10.353273 0.000000
v 14.737617 -10.817999 0.000000
v 15.202343 -10.523839 0.000000
v 14.908183 -10.059113 3.800000
v 14.443457 -10.353273 3.800000
v 14.737617 -10.817999 3.800000
v 15.202343 -10.523839 3.800000
v 14.552514 -10.609704 4.080000
v 14.674313 -10.721967 4.080000
v 14.835925 -10.758291 4.080000
v 14.994047 -10.708942 4.080000
v 15.106311 -10.587143 4.080000
v 15.142635 -10.425531 4.080000
v 15.093286 -10.267408 4.080000
v 14.971487 -10.155145 4.080000
v 14.809874 -10.118821 4.080000
v 14.651752 -10.168170 4.080000
v 14.539489 -10.289969 4.080000
v 14.503165 -10.451581 4.080000
v 14.552514 -10.609704 8.130000
v 14.674313 -10.721967 8.130000
v 14.835925 -10.758291 8.130000
v 14.994047 -10.708942 8.130000
v 15.106311 -10.587143 8.130000
v 15.142635 -10.425531 8.130000
v 15.093286 -10.267408 8.130000
v 14.971487 -10.155145 8.130000
v 14.809874 -10.118821 8.130000
v 14.651752 -10.168170 8.130000
v 14.539489 -10.289969 8.130000
v 14.503165 -10.451581 8.130000
v 11.528360 -12.198458 0.000000
v 11.063634 -12.492618 0.000000
v 11.357794 -12.957344 0.000000
v 11.822520 -12.663184 0.000000
v 11.528360 -12.198458 3.800000
v 11.063634 -12.492618 3.800000
v 11.357794 -12.957344 3.800000
v 11.822520 -12.663184 3.800000
v 11.172691 -12.749049 4.080000
v 11.294490 -12.861312 4.080000
v 11.456102 -12.897636 4.080000
v 11.614225 -12.848287 4.080000
v 11.726488 -12.726488 4.080000
v 11.762812 -12.564876 4.080000
v 11.713463 -12.406753 4.080000
v 11.591664 -12.294490 4.080000
v 11.430052 -12.258166 4.080000
v 11.271929 -12.307515 4.080000
v 11.159666 -12.429314 4.080000
v 11.123342 -12.590926 4.080000
v 11.172691 -12.749049 8.130000
v 11.294490 -12.861312 8.130000
v 11.456102 -12.897636 8.130000
v 11.614225 -12.848287 8.130000
v 11.726488 -12.726488 8.130000
v 11.762812 -12.564876 8.130000
v 11.713463 -12.406753 8.130000
v 11.591664 -12.294490 8.130000
v 11.430052 -12.258166 8.130000
v 11.271929 -12.307515 8.130000
v 11.159666 -12.429314 8.130000
v 11.123342 -12.590926 8.130000
v 8.148537 -14.337803 0.000000
v 7.683811 -14.631963 0.000000
v 7.977971 -15.096689 0.000000
v 8.442697 -14.802529 0.000000
v 8.148537 -14.337803 3.800000
v 7.683811 -14.631963 3.800000
v 7.977971 -15.096689 3.800000
v 8.442697 -14.802529 3.800000
v 7.792868 -14.888394 4.080000
v 7.914667 -15.000657 4.080000
v 8.076279 -15.036981 4.080000
v 8.234402 -14.987632 4.080000
v 8.346665 -14.865833 4.080000
v 8.382989 -14.704221 4.080000
v 8.333640 -14.546099 4.080000
v 8.211841 -14.433835 4.080000
v 8.050229 -14.397511 4.080000
v 7.892106 -14.446860 4.080000
v 7.779843 -14.568659 4.080000
v 7.743519 -14.730272 4.080000
v 7.792868 -14.888394 8.130000
v 7.914667 -15.000657 8.130000
v 8.076279 -15.036981 8.130000
v 8.234402 -14.987632 8.130000
v 8.346665 -14.865833 8.130000
v 8.382989 -14.704221 8.130000
v 8.333640 -14.546099 8.130000
v 8.211841 -14.433835 8.130000
v 8.050229 -14.397511 8.130000
v 7.892106 -14.446860 8.130000
v 7.779843 -14.568659 8.130000
v 7.743519 -14.730272 8.130000
v 4.768714 -16.477149 0.000000
v 4.303988 -16.771309 0.000000
v 4.598148 -17.236034 0.000000
v 5.062874 -16.941874 0.000000
v 4.768714 -16.477149 3.800000
v 4.303988 -16.771309 3.800000
v 4.598148 -17.236034 3.800000
v 5.062874 -16.941874 3.800000
v 4.413045 -17.027739 4.080000
v 4.534844 -17.140002 4.080000
v 4.696457 -17.176326 4.080000
v 4.854579 -17.126977 4.080000
v 4.966842 -17.005179 4.080000
v 5.003166 -16.843566 4.080000
v 4.953817 -16.685444 4.080000
v 4.832018 -16.573180 4.080000
v 4.670406 -16.536857 4.080000
v 4.512284 -16.586206 4.080000
v 4.400020 -16.708004 4.080000
v 4.363696 -16.869617 4.080000
v 4.413045 -17.027739 8.130000
v 4.534844 -17.140002 8.130000
v 4.696457 -17.176326 8.130000
v 4.854579 -17.126977 8.130000
v 4.966842 -17.005179 8.130000
v 5.003166 -16.843566 8.130000
v 4.953817 -16.685444 8.130000
v 4.832018 -16.573180 8.130000
v 4.670406 -16.536857 8.130000
v 4.512284 -16.586206 8.130000
v 4.400020 -16.708004 8.130000
v 4.363696 -16.869617 8.130000
v 17.174887 -9.293019 4.100000
v 2.641649 -18.492203 4.100000
v 2.727223 -18.627396 4.100000
v 17.260461 -9.428212 4.100000
v 17.174887 -9.293019 4.260000
v 2.641649 -18.492203 4.260000
v 2.727223 -18.627396 4.260000
v 17.260461 -9.428212 4.260000
v 17.169539 -9.284569 4.860000
v 2.636301 -18.483753 4.860000
v 2.732571 -18.635845 4.860000
v 17.265809 -9.436661 4.860000
v 17.169539 -9.284569 5.040000
v 2.636301 -18.483753 5.040000
v 2.732571 -18.635845 5.040000
v 17.265809 -9.436661 5.040000
v 16.332477 -7.027280 7.740000
v 0.954283 -16.761301 7.740000
v 2.318116 -18.915938 7.740000
v 17.696310 -9.181917 7.740000
v 16.332477 -7.027280 8.160000
v 0.954283 -16.761301 8.160000
v 2.318116 -18.915938 8.160000
v 17.696310 -9.181917 8.160000
v 16.730858 -9.591830 4.205000
v 16.621014 -9.661359 4.205000
v 16.690543 -9.771203 4.205000
v 16.800387 -9.701675 4.205000
v 16.730858 -9.591830 4.925000
v 16.621014 -9.661359 4.925000
v 16.690543 -9.771203 4.925000
v 16.800387 -9.701675 4.925000
v 15.690913 -10.250091 4.205000
v 15.581069 -10.319619 4.205000
v 15.650597 -10.429463 4.205000
v 15.760442 -10.359935 4.205000
v 15.690913 -10.250091 4.925000
v 15.581069 -10.319619 4.925000
v 15.650597 -10.429463 4.925000
v 15.760442 -10.359935 4.925000
v 14.650967 -10.908351 4.205000
v 14.541123 -10.977879 4.205000
v 14.610652 -11.087724 4.205000
v 14.720496 -11.018195 4.205000
v 14.650967 -10.908351 4.925000
v 14.541123 -10.977879 4.925000
v 14.610652 -11.087724 4.925000
v 14.720496 -11.018195 4.925000
v 13.611022 -11.566611 4.205000
v 13.501178 -11.636139 4.205000
v 13.570706 -11.745984 4.205000
v 13.680551 -11.676455 4.205000
v 13.611022 -11.566611 4.925000
v 13.501178 -11.636139 4.925000
v 13.570706 -11.745984 4.925000
v 13.680551 -11.676455 4.925000
v 12.571076 -12.224871 4.205000
v 12.461232 -12.294399 4.205000
v 12.530761 -12.404244 4.205000
v 12.640605 -12.334715 4.205000
v 12.571076 -12.224871 4.925000
v 12.461232 -12.294399 4.925000
v 12.530761 -12.404244 4.925000
v 12.640605 -12.334715 4.925000
v 11.531131 -12.883131 4.205000
v 11.421287 -12.952659 4.205000
v 11.490815 -13.062504 4.205000
v 11.600660 -12.992975 4.205000
v 11.531131 -12.883131 4.925000
v 11.421287 -12.952659 4.925000
v 11.490815 -13.062504 4.925000
v 11.600660 -12.992975 4.925000
v 10.491185 -13.541391 4.205000
v 10.381341 -13.610919 4.205000
v 10.450870 -13.720764 4.205000
v 10.560714 -13.651235 4.205000
v 10.491185 -13.541391 4.925000
v 10.381341 -13.610919 4.925000
v 10.450870 -13.720764 4.925000
v 10.560714 -13.651235 4.925000
v 9.451240 -14.199651 4.205000
v 9.341396 -14.269180 4.205000
v 9.410924 -14.379024 4.205000
v 9.520769 -14.309495 4.205000
v 9.451240 -14.199651 4.925000
v 9.341396 -14.269180 4.925000
v 9.410924 -14.379024 4.925000
v 9.520769 -14.309495 4.925000
v 8.411294 -14.857911 4.205000
v 8.301450 -14.927440 4.205000
v 8.370979 -15.037284 4.205000
v 8.480823 -14.967755 4.205000
v 8.411294 -14.857911 4.925000
v 8.301450 -14.927440 4.925000
v 8.370979 -15.037284 4.925000
v 8.480823 -14.967755 4.925000
v 7.371349 -15.516171 4.205000
v 7.261505 -15.585700 4.205000
v 7.331033 -15.695544 4.205000
v 7.440878 -15.626015 4.205000
v 7.371349 -15.516171 4.925000
v 7.261505 -15.585700 4.925000
v 7.331033 -15.695544 4.925000
v 7.440878 -15.626015 4.925000
v 6.331403 -16.174431 4.205000
v 6.221559 -16.243960 4.205000
v 6.291088 -16.353804 4.205000
v 6.400932 -16.284275 4.205000
v 6.331403 -16.174431 4.925000
v 6.221559 -16.243960 4.925000
v 6.291088 -16.353804 4.925000
v 6.400932 -16.284275 4.925000
v 5.291458 -16.832691 4.205000
v 5.181614 -16.902220 4.205000
v 5.251142 -17.012064 4.205000
v 5.360987 -16.942535 4.205000
v 5.291458 -16.832691 4.925000
v 5.181614 -16.902220 4.925000
v 5.251142 -17.012064 4.925000
v 5.360987 -16.942535 4.925000
v 4.251513 -17.490951 4.205000
v 4.141668 -17.560480 4.205000
v 4.211197 -17.670324 4.205000
v 4.321041 -17.600795 4.205000
v 4.251513 -17.490951 4.925000
v 4.141668 -17.560480 4.925000
v 4.211197 -17.670324 4.925000
v 4.321041 -17.600795 4.925000
v 3.211567 -18.149211 4.205000
v 3.101723 -18.218740 4.205000
v 3.171252 -18.328584 4.205000
v 3.281096 -18.259055 4.205000
v 3.211567 -18.149211 4.925000
v 3.101723 -18.218740 4.925000
v 3.171252 -18.328584 4.925000
v 3.281096 -18.259055 4.925000
f 1 2 3 4
f 5 8 7 6
f 1 5 6 2
f 2 6 7 3
f 3 7 8 4
f 5 1 4 8
f 9 10 11 12
f 13 16 15 14
f 9 13 14 10
f 10 14 15 11
f 11 15 16 12
f 13 9 12 16
f 17 18 30 29
f 18 19 31 30
f 19 20 32 31
f 20 21 33 32
f 21 22 34 33
f 22 23 35 34
f 23 24 36 35
f 24 25 37 36
f 25 26 38 37
f 26 27 39 38
f 27 28 40 39
f 28 17 29 40
f 28 27 26 25 24 23 22 21 20 19 18 17
f 29 30 31 32 33 34 35 36 37 38 39 40
f 41 42 43 44
f 45 48 47 46
f 41 45 46 42
f 42 46 47 43
f 43 47 48 44
f 45 41 44 48
f 49 50 62 61
f 50 51 63 62
f 51 52 64 63
f 52 53 65 64
f 53 54 66 65
f 54 55 67 66
f 55 56 68 67
f 56 57 69 68
f 57 58 70 69
f 58 59 71 70
f 59 60 72 71
f 60 49 61 72
f 60 59 58 57 56 55 54 53 52 51 50 49
f 61 62 63 64 65 66 67 68 69 70 71 72
f 73 74 75 76
f 77 80 79 78
f 73 77 78 74
f 74 78 79 75
f 75 79 80 76
f 77 73 76 80
f 81 82 94 93
f 82 83 95 94
f 83 84 96 95
f 84 85 97 96
f 85 86 98 97
f 86 87 99 98
f 87 88 100 99
f 88 89 101 100
f 89 90 102 101
f 90 91 103 102
f 91 92 104 103
f 92 81 93 104
f 92 91 90 89 88 87 86 85 84 83 82 81
f 93 94 95 96 97 98 99 100 101 102 103 104
f 105 106 107 108
f 109 112 111 110
f 105 109 110 106
f 106 110 111 107
f 107 111 112 108
f 109 105 108 112
f 113 114 126 125
f 114 115 127 126
f 115 116 128 127
f 116 117 129 128
f 117 118 130 129
f 118 119 131 130
f 119 120 132 131
f 120 121 133 132
f 121 122 134 133
f 122 123 135 134
f 123 124 136 135
f 124 113 125 136
f 124 123 122 121 120 119 118 117 116 115 114 113
f 125 126 127 128 129 130 131 132 133 134 135 136
f 137 138 139 140
f 141 144 143 142
f 137 141 142 138
f 138 142 143 139
f 139 143 144 140
f 141 137 140 144
f 145 146 147 148
f 149 152 151 150
f 145 149 150 146
f 146 150 151 147
f 147 151 152 148
f 149 145 148 152
f 153 154 155 156
f 157 160 159 158
f 153 157 158 154
f 154 158 159 155
f 155 159 160 156
f 157 153 156 160
f 161 162 163 164
f 165 168 167 166
f 161 165 166 162
f 162 166 167 163
f 163 167 168 164
f 165 161 164 168
f 169 170 171 172
f 173 176 175 174
f 169 173 174 170
f 170 174 175 171
f 171 175 176 172
f 173 169 172 176
f 177 178 179 180
f 181 184 183 182
f 177 181 182 178
f 178 182 183 179
f 179 183 184 180
f 181 177 180 184
f 185 186 187 188
f 189 192 191 190
f 185 189 190 186
f 186 190 191 187
f 187 191 192 188
f 189 185 188 192
f 193 194 195 196
f 197 200 199 198
f 193 197 198 194
f 194 198 199 195
f 195 199 200 196
f 197 193 196 200
f 201 202 203 204
f 205 208 207 206
f 201 205 206 202
f 202 206 207 203
f 203 207 208 204
f 205 201 204 208
f 209 210 211 212
f 213 216 215 214
f 209 213 214 210
f 210 214 215 211
f 211 215 216 212
f 213 209 212 216
f 217 218 219 220
f 221 224 223 222
f 217 221 222 218
f 218 222 223 219
f 219 223 224 220
f 221 217 220 224
f 225 226 227 228
f 229 232 231 230
f 225 229 230 226
f 226 230 231 227
f 227 231 232 228
f 229 225 228 232
f 233 234 235 236
f 237 240 239 238
f 233 237 238 234
f 234 238 239 235
f 235 239 240 236
f 237 233 236 240
f 241 242 243 244
f 245 248 247 246
f 241 245 246 242
f 242 246 247 243
f 243 247 248 244
f 245 241 244 248
f 249 250 251 252
f 253 256 255 254
f 249 253 254 250
f 250 254 255 251
f 251 255 256 252
f 253 249 252 256
f 257 258 259 260
f 261 264 263 262
f 257 261 262 258
f 258 262 263 259
f 259 263 264 260
f 261 257 260 264
f 265 266 267 268
f 269 272 271 270
f 265 269 270 266
f 266 270 271 267
f 267 271 272 268
f 269 265 268 272
