# Generated by tools.modeling.mesh
o Baker__Parapet
# featureId=uplb:building:baker-hall
# sourceFeatureId=uplb:building:baker-hall
# lod=lod1
# materialClass=concrete-painted
# confidence=high-visual
# evidenceIds=source:image:commons-baker-2008,source:image:commons-baker-2009,source:image:commons-baker-2017,source:image:commons-baker-2023
v 16.172048 -7.241260 8.145000
v 1.216332 -16.707863 8.145000
v 1.440963 -17.062744 8.145000
v 16.396679 -7.596142 8.145000
v 16.172048 -7.241260 9.495000
v 1.216332 -16.707863 9.495000
v 1.440963 -17.062744 9.495000
v 16.396679 -7.596142 9.495000
f 1 2 3 4
f 5 8 7 6
f 1 5 6 2
f 2 6 7 3
f 3 7 8 4
f 5 1 4 8
