# Generated by tools.modeling.assembly
# featureId=uplb:building:baker-hall
# version=baker-exterior-v0.2-reference-derived
# identityStatus=canonical
# sourceFeatureId=uplb:building:baker-hall
o uplb_building_baker-hall
g body-canonical-footprint
# materialClass=concrete-painted
# confidence=source-supported-footprint/provisional-height
# evidenceIds=source:canonical:osm-baker-way-37449973
# notes=Canonical footprint is preserved. Height remains reference-derived until surveyed/recovered.
v -20.864862 -16.026839 0.000000
v -24.390419 -18.246545 0.000000
v -24.390419 -18.246545 8.200000
v -20.864862 -16.026839 8.200000
v -27.549154 -13.310023 0.000000
v -27.549154 -13.310023 8.200000
v -30.633312 -8.506838 0.000000
v -30.633312 -8.506838 8.200000
v -27.107755 -6.287133 0.000000
v -27.107755 -6.287133 8.200000
v -29.999827 -1.784142 0.000000
v -29.999827 -1.784142 8.200000
v -4.408109 14.543624 0.000000
v -4.408109 14.543624 8.200000
v 15.746726 27.172288 0.000000
v 15.746726 27.172288 8.200000
v 31.583521 2.478320 0.000000
v 31.583521 2.478320 8.200000
v -14.163051 -26.478141 0.000000
v -14.163051 -26.478141 8.200000
f 1 2 3 4
f 2 5 6 3
f 5 7 8 6
f 7 9 10 8
f 9 11 12 10
f 11 13 14 12
f 13 15 16 14
f 15 17 18 16
f 17 19 20 18
f 19 1 4 20
f 5 2 1
f 4 3 6
f 9 7 5
f 6 8 10
f 13 11 9
f 10 12 14
f 17 15 13
f 14 16 18
f 1 19 13
f 14 20 4
f 9 5 1
f 4 6 10
f 17 13 19
f 20 14 18
f 9 1 13
f 14 4 10
g portico-balcony-slab
# materialClass=concrete-painted
# confidence=high-visual
# evidenceIds=source:image:commons-baker-2017,source:image:commons-baker-2023
v 15.976854 -7.400318 3.800000
v 1.443616 -16.599502 3.800000
v 2.673739 -18.542900 3.800000
v 17.206977 -9.343716 3.800000
v 15.976854 -7.400318 4.080000
v 1.443616 -16.599502 4.080000
v 2.673739 -18.542900 4.080000
v 17.206977 -9.343716 4.080000
f 21 22 23 24
f 25 28 27 26
f 21 25 26 22
f 22 26 27 23
f 23 27 28 24
f 25 21 24 28
g ground-pier-01
# materialClass=concrete-painted
# confidence=medium-visual
# evidenceIds=source:image:commons-baker-2017,source:image:commons-baker-2023
# notes=Square lower supports are simplified from front photographic evidence.
v 14.908183 -10.059113 0.000000
v 14.443457 -10.353273 0.000000
v 14.737617 -10.817999 0.000000
v 15.202343 -10.523839 0.000000
v 14.908183 -10.059113 3.800000
v 14.443457 -10.353273 3.800000
v 14.737617 -10.817999 3.800000
v 15.202343 -10.523839 3.800000
f 29 30 31 32
f 33 36 35 34
f 29 33 34 30
f 30 34 35 31
f 31 35 36 32
f 33 29 32 36
g upper-round-column-01
# materialClass=concrete-painted
# confidence=high-visual
# evidenceIds=source:image:commons-baker-2017,source:image:commons-baker-2023
v 14.552514 -10.609704 4.080000
v 14.638591 -10.700148 4.080000
v 14.752728 -10.750767 4.080000
v 14.877547 -10.753855 4.080000
v 14.994047 -10.708942 4.080000
v 15.084492 -10.622864 4.080000
v 15.135111 -10.508728 4.080000
v 15.138199 -10.383908 4.080000
v 15.093286 -10.267408 4.080000
v 15.007208 -10.176964 4.080000
v 14.893072 -10.126345 4.080000
v 14.768252 -10.123257 4.080000
v 14.651752 -10.168170 4.080000
v 14.561308 -10.254247 4.080000
v 14.510688 -10.368384 4.080000
v 14.507600 -10.493204 4.080000
v 14.552514 -10.609704 8.130000
v 14.638591 -10.700148 8.130000
v 14.752728 -10.750767 8.130000
v 14.877547 -10.753855 8.130000
v 14.994047 -10.708942 8.130000
v 15.084492 -10.622864 8.130000
v 15.135111 -10.508728 8.130000
v 15.138199 -10.383908 8.130000
v 15.093286 -10.267408 8.130000
v 15.007208 -10.176964 8.130000
v 14.893072 -10.126345 8.130000
v 14.768252 -10.123257 8.130000
v 14.651752 -10.168170 8.130000
v 14.561308 -10.254247 8.130000
v 14.510688 -10.368384 8.130000
v 14.507600 -10.493204 8.130000
f 37 38 54 53
f 38 39 55 54
f 39 40 56 55
f 40 41 57 56
f 41 42 58 57
f 42 43 59 58
f 43 44 60 59
f 44 45 61 60
f 45 46 62 61
f 46 47 63 62
f 47 48 64 63
f 48 49 65 64
f 49 50 66 65
f 50 51 67 66
f 51 52 68 67
f 52 37 53 68
f 52 51 50 49 48 47 46 45 44 43 42 41 40 39 38 37
f 53 54 55 56 57 58 59 60 61 62 63 64 65 66 67 68
g ground-pier-02
# materialClass=concrete-painted
# confidence=medium-visual
# evidenceIds=source:image:commons-baker-2017,source:image:commons-baker-2023
# notes=Square lower supports are simplified from front photographic evidence.
v 11.528360 -12.198458 0.000000
v 11.063634 -12.492618 0.000000
v 11.357794 -12.957344 0.000000
v 11.822520 -12.663184 0.000000
v 11.528360 -12.198458 3.800000
v 11.063634 -12.492618 3.800000
v 11.357794 -12.957344 3.800000
v 11.822520 -12.663184 3.800000
f 69 70 71 72
f 73 76 75 74
f 69 73 74 70
f 70 74 75 71
f 71 75 76 72
f 73 69 72 76
g upper-round-column-02
# materialClass=concrete-painted
# confidence=high-visual
# evidenceIds=source:image:commons-baker-2017,source:image:commons-baker-2023
v 11.172691 -12.749049 4.080000
v 11.258768 -12.839493 4.080000
v 11.372905 -12.890112 4.080000
v 11.497725 -12.893200 4.080000
v 11.614225 -12.848287 4.080000
v 11.704669 -12.762210 4.080000
v 11.755288 -12.648073 4.080000
v 11.758376 -12.523253 4.080000
v 11.713463 -12.406753 4.080000
v 11.627385 -12.316309 4.080000
v 11.513249 -12.265690 4.080000
v 11.388429 -12.262602 4.080000
v 11.271929 -12.307515 4.080000
v 11.181485 -12.393593 4.080000
v 11.130866 -12.507729 4.080000
v 11.127778 -12.632549 4.080000
v 11.172691 -12.749049 8.130000
v 11.258768 -12.839493 8.130000
v 11.372905 -12.890112 8.130000
v 11.497725 -12.893200 8.130000
v 11.614225 -12.848287 8.130000
v 11.704669 -12.762210 8.130000
v 11.755288 -12.648073 8.130000
v 11.758376 -12.523253 8.130000
v 11.713463 -12.406753 8.130000
v 11.627385 -12.316309 8.130000
v 11.513249 -12.265690 8.130000
v 11.388429 -12.262602 8.130000
v 11.271929 -12.307515 8.130000
v 11.181485 -12.393593 8.130000
v 11.130866 -12.507729 8.130000
v 11.127778 -12.632549 8.130000
f 77 78 94 93
f 78 79 95 94
f 79 80 96 95
f 80 81 97 96
f 81 82 98 97
f 82 83 99 98
f 83 84 100 99
f 84 85 101 100
f 85 86 102 101
f 86 87 103 102
f 87 88 104 103
f 88 89 105 104
f 89 90 106 105
f 90 91 107 106
f 91 92 108 107
f 92 77 93 108
f 92 91 90 89 88 87 86 85 84 83 82 81 80 79 78 77
f 93 94 95 96 97 98 99 100 101 102 103 104 105 106 107 108
g ground-pier-03
# materialClass=concrete-painted
# confidence=medium-visual
# evidenceIds=source:image:commons-baker-2017,source:image:commons-baker-2023
# notes=Square lower supports are simplified from front photographic evidence.
v 8.148537 -14.337803 0.000000
v 7.683811 -14.631963 0.000000
v 7.977971 -15.096689 0.000000
v 8.442697 -14.802529 0.000000
v 8.148537 -14.337803 3.800000
v 7.683811 -14.631963 3.800000
v 7.977971 -15.096689 3.800000
v 8.442697 -14.802529 3.800000
f 109 110 111 112
f 113 116 115 114
f 109 113 114 110
f 110 114 115 111
f 111 115 116 112
f 113 109 112 116
g upper-round-column-03
# materialClass=concrete-painted
# confidence=high-visual
# evidenceIds=source:image:commons-baker-2017,source:image:commons-baker-2023
v 7.792868 -14.888394 4.080000
v 7.878946 -14.978838 4.080000
v 7.993082 -15.029458 4.080000
v 8.117902 -15.032546 4.080000
v 8.234402 -14.987632 4.080000
v 8.324846 -14.901555 4.080000
v 8.375465 -14.787418 4.080000
v 8.378553 -14.662599 4.080000
v 8.333640 -14.546099 4.080000
v 8.247563 -14.455654 4.080000
v 8.133426 -14.405035 4.080000
v 8.008606 -14.401947 4.080000
v 7.892106 -14.446860 4.080000
v 7.801662 -14.532938 4.080000
v 7.751043 -14.647074 4.080000
v 7.747955 -14.771894 4.080000
v 7.792868 -14.888394 8.130000
v 7.878946 -14.978838 8.130000
v 7.993082 -15.029458 8.130000
v 8.117902 -15.032546 8.130000
v 8.234402 -14.987632 8.130000
v 8.324846 -14.901555 8.130000
v 8.375465 -14.787418 8.130000
v 8.378553 -14.662599 8.130000
v 8.333640 -14.546099 8.130000
v 8.247563 -14.455654 8.130000
v 8.133426 -14.405035 8.130000
v 8.008606 -14.401947 8.130000
v 7.892106 -14.446860 8.130000
v 7.801662 -14.532938 8.130000
v 7.751043 -14.647074 8.130000
v 7.747955 -14.771894 8.130000
f 117 118 134 133
f 118 119 135 134
f 119 120 136 135
f 120 121 137 136
f 121 122 138 137
f 122 123 139 138
f 123 124 140 139
f 124 125 141 140
f 125 126 142 141
f 126 127 143 142
f 127 128 144 143
f 128 129 145 144
f 129 130 146 145
f 130 131 147 146
f 131 132 148 147
f 132 117 133 148
f 132 131 130 129 128 127 126 125 124 123 122 121 120 119 118 117
f 133 134 135 136 137 138 139 140 141 142 143 144 145 146 147 148
g ground-pier-04
# materialClass=concrete-painted
# confidence=medium-visual
# evidenceIds=source:image:commons-baker-2017,source:image:commons-baker-2023
# notes=Square lower supports are simplified from front photographic evidence.
v 4.768714 -16.477149 0.000000
v 4.303988 -16.771309 0.000000
v 4.598148 -17.236034 0.000000
v 5.062874 -16.941874 0.000000
v 4.768714 -16.477149 3.800000
v 4.303988 -16.771309 3.800000
v 4.598148 -17.236034 3.800000
v 5.062874 -16.941874 3.800000
f 149 150 151 152
f 153 156 155 154
f 149 153 154 150
f 150 154 155 151
f 151 155 156 152
f 153 149 152 156
g upper-round-column-04
# materialClass=concrete-painted
# confidence=high-visual
# evidenceIds=source:image:commons-baker-2017,source:image:commons-baker-2023
v 4.413045 -17.027739 4.080000
v 4.499123 -17.118183 4.080000
v 4.613259 -17.168803 4.080000
v 4.738079 -17.171891 4.080000
v 4.854579 -17.126977 4.080000
v 4.945023 -17.040900 4.080000
v 4.995643 -16.926763 4.080000
v 4.998731 -16.801944 4.080000
v 4.953817 -16.685444 4.080000
v 4.867740 -16.594999 4.080000
v 4.753603 -16.544380 4.080000
v 4.628784 -16.541292 4.080000
v 4.512284 -16.586206 4.080000
v 4.421839 -16.672283 4.080000
v 4.371220 -16.786419 4.080000
v 4.368132 -16.911239 4.080000
v 4.413045 -17.027739 8.130000
v 4.499123 -17.118183 8.130000
v 4.613259 -17.168803 8.130000
v 4.738079 -17.171891 8.130000
v 4.854579 -17.126977 8.130000
v 4.945023 -17.040900 8.130000
v 4.995643 -16.926763 8.130000
v 4.998731 -16.801944 8.130000
v 4.953817 -16.685444 8.130000
v 4.867740 -16.594999 8.130000
v 4.753603 -16.544380 8.130000
v 4.628784 -16.541292 8.130000
v 4.512284 -16.586206 8.130000
v 4.421839 -16.672283 8.130000
v 4.371220 -16.786419 8.130000
v 4.368132 -16.911239 8.130000
f 157 158 174 173
f 158 159 175 174
f 159 160 176 175
f 160 161 177 176
f 161 162 178 177
f 162 163 179 178
f 163 164 180 179
f 164 165 181 180
f 165 166 182 181
f 166 167 183 182
f 167 168 184 183
f 168 169 185 184
f 169 170 186 185
f 170 171 187 186
f 171 172 188 187
f 172 157 173 188
f 172 171 170 169 168 167 166 165 164 163 162 161 160 159 158 157
f 173 174 175 176 177 178 179 180 181 182 183 184 185 186 187 188
g balustrade-bottom-rail
# materialClass=concrete-painted
# confidence=high-visual
# evidenceIds=source:image:commons-baker-2017,source:image:commons-baker-2023
v 17.174887 -9.293019 4.100000
v 2.641649 -18.492203 4.100000
v 2.727223 -18.627396 4.100000
v 17.260461 -9.428212 4.100000
v 17.174887 -9.293019 4.260000
v 2.641649 -18.492203 4.260000
v 2.727223 -18.627396 4.260000
v 17.260461 -9.428212 4.260000
f 189 190 191 192
f 193 196 195 194
f 189 193 194 190
f 190 194 195 191
f 191 195 196 192
f 193 189 192 196
g balustrade-top-rail
# materialClass=concrete-painted
# confidence=high-visual
# evidenceIds=source:image:commons-baker-2017,source:image:commons-baker-2023
v 17.169539 -9.284569 4.860000
v 2.636301 -18.483753 4.860000
v 2.732571 -18.635845 4.860000
v 17.265809 -9.436661 4.860000
v 17.169539 -9.284569 5.040000
v 2.636301 -18.483753 5.040000
v 2.732571 -18.635845 5.040000
v 17.265809 -9.436661 5.040000
f 197 198 199 200
f 201 204 203 202
f 197 201 202 198
f 198 202 203 199
f 199 203 204 200
f 201 197 200 204
g baluster-01
# materialClass=concrete-painted
# confidence=medium-visual
# evidenceIds=source:image:commons-baker-2017,source:image:commons-baker-2023
v 16.687060 -9.625471 4.205000
v 16.585665 -9.689652 4.205000
v 16.649846 -9.791046 4.205000
v 16.751240 -9.726866 4.205000
v 16.687060 -9.625471 4.925000
v 16.585665 -9.689652 4.925000
v 16.649846 -9.791046 4.925000
v 16.751240 -9.726866 4.925000
f 205 206 207 208
f 209 212 211 210
f 205 209 210 206
f 206 210 211 207
f 207 211 212 208
f 209 205 208 212
g baluster-02
# materialClass=concrete-painted
# confidence=medium-visual
# evidenceIds=source:image:commons-baker-2017,source:image:commons-baker-2023
v 16.047308 -10.030419 4.205000
v 15.945913 -10.094599 4.205000
v 16.010093 -10.195994 4.205000
v 16.111488 -10.131813 4.205000
v 16.047308 -10.030419 4.925000
v 15.945913 -10.094599 4.925000
v 16.010093 -10.195994 4.925000
v 16.111488 -10.131813 4.925000
f 213 214 215 216
f 217 220 219 218
f 213 217 218 214
f 214 218 219 215
f 215 219 220 216
f 217 213 216 220
g baluster-03
# materialClass=concrete-painted
# confidence=medium-visual
# evidenceIds=source:image:commons-baker-2017,source:image:commons-baker-2023
v 15.407556 -10.435366 4.205000
v 15.306161 -10.499547 4.205000
v 15.370341 -10.600941 4.205000
v 15.471736 -10.536761 4.205000
v 15.407556 -10.435366 4.925000
v 15.306161 -10.499547 4.925000
v 15.370341 -10.600941 4.925000
v 15.471736 -10.536761 4.925000
f 221 222 223 224
f 225 228 227 226
f 221 225 226 222
f 222 226 227 223
f 223 227 228 224
f 225 221 224 228
g baluster-04
# materialClass=concrete-painted
# confidence=medium-visual
# evidenceIds=source:image:commons-baker-2017,source:image:commons-baker-2023
v 14.767803 -10.840314 4.205000
v 14.666409 -10.904494 4.205000
v 14.730589 -11.005889 4.205000
v 14.831984 -10.941708 4.205000
v 14.767803 -10.840314 4.925000
v 14.666409 -10.904494 4.925000
v 14.730589 -11.005889 4.925000
v 14.831984 -10.941708 4.925000
f 229 230 231 232
f 233 236 235 234
f 229 233 234 230
f 230 234 235 231
f 231 235 236 232
f 233 229 232 236
g baluster-05
# materialClass=concrete-painted
# confidence=medium-visual
# evidenceIds=source:image:commons-baker-2017,source:image:commons-baker-2023
v 14.128051 -11.245261 4.205000
v 14.026657 -11.309442 4.205000
v 14.090837 -11.410836 4.205000
v 14.192232 -11.346656 4.205000
v 14.128051 -11.245261 4.925000
v 14.026657 -11.309442 4.925000
v 14.090837 -11.410836 4.925000
v 14.192232 -11.346656 4.925000
f 237 238 239 240
f 241 244 243 242
f 237 241 242 238
f 238 242 243 239
f 239 243 244 240
f 241 237 240 244
g baluster-06
# materialClass=concrete-painted
# confidence=medium-visual
# evidenceIds=source:image:commons-baker-2017,source:image:commons-baker-2023
v 13.488299 -11.650209 4.205000
v 13.386904 -11.714389 4.205000
v 13.451085 -11.815784 4.205000
v 13.552479 -11.751603 4.205000
v 13.488299 -11.650209 4.925000
v 13.386904 -11.714389 4.925000
v 13.451085 -11.815784 4.925000
v 13.552479 -11.751603 4.925000
f 245 246 247 248
f 249 252 251 250
f 245 249 250 246
f 246 250 251 247
f 247 251 252 248
f 249 245 248 252
g baluster-07
# materialClass=concrete-painted
# confidence=medium-visual
# evidenceIds=source:image:commons-baker-2017,source:image:commons-baker-2023
v 12.848547 -12.055156 4.205000
v 12.747152 -12.119336 4.205000
v 12.811333 -12.220731 4.205000
v 12.912727 -12.156551 4.205000
v 12.848547 -12.055156 4.925000
v 12.747152 -12.119336 4.925000
v 12.811333 -12.220731 4.925000
v 12.912727 -12.156551 4.925000
f 253 254 255 256
f 257 260 259 258
f 253 257 258 254
f 254 258 259 255
f 255 259 260 256
f 257 253 256 260
g baluster-08
# materialClass=concrete-painted
# confidence=medium-visual
# evidenceIds=source:image:commons-baker-2017,source:image:commons-baker-2023
v 12.208795 -12.460104 4.205000
v 12.107400 -12.524284 4.205000
v 12.171580 -12.625679 4.205000
v 12.272975 -12.561498 4.205000
v 12.208795 -12.460104 4.925000
v 12.107400 -12.524284 4.925000
v 12.171580 -12.625679 4.925000
v 12.272975 -12.561498 4.925000
f 261 262 263 264
f 265 268 267 266
f 261 265 266 262
f 262 266 267 263
f 263 267 268 264
f 265 261 264 268
g baluster-09
# materialClass=concrete-painted
# confidence=medium-visual
# evidenceIds=source:image:commons-baker-2017,source:image:commons-baker-2023
v 11.569043 -12.865051 4.205000
v 11.467648 -12.929231 4.205000
v 11.531828 -13.030626 4.205000
v 11.633223 -12.966446 4.205000
v 11.569043 -12.865051 4.925000
v 11.467648 -12.929231 4.925000
v 11.531828 -13.030626 4.925000
v 11.633223 -12.966446 4.925000
f 269 270 271 272
f 273 276 275 274
f 269 273 274 270
f 270 274 275 271
f 271 275 276 272
f 273 269 272 276
g baluster-10
# materialClass=concrete-painted
# confidence=medium-visual
# evidenceIds=source:image:commons-baker-2017,source:image:commons-baker-2023
v 10.929290 -13.269999 4.205000
v 10.827896 -13.334179 4.205000
v 10.892076 -13.435574 4.205000
v 10.993471 -13.371393 4.205000
v 10.929290 -13.269999 4.925000
v 10.827896 -13.334179 4.925000
v 10.892076 -13.435574 4.925000
v 10.993471 -13.371393 4.925000
f 277 278 279 280
f 281 284 283 282
f 277 281 282 278
f 278 282 283 279
f 279 283 284 280
f 281 277 280 284
g baluster-11
# materialClass=concrete-painted
# confidence=medium-visual
# evidenceIds=source:image:commons-baker-2017,source:image:commons-baker-2023
v 10.289538 -13.674946 4.205000
v 10.188143 -13.739126 4.205000
v 10.252324 -13.840521 4.205000
v 10.353719 -13.776341 4.205000
v 10.289538 -13.674946 4.925000
v 10.188143 -13.739126 4.925000
v 10.252324 -13.840521 4.925000
v 10.353719 -13.776341 4.925000
f 285 286 287 288
f 289 292 291 290
f 285 289 290 286
f 286 290 291 287
f 287 291 292 288
f 289 285 288 292
g baluster-12
# materialClass=concrete-painted
# confidence=medium-visual
# evidenceIds=source:image:commons-baker-2017,source:image:commons-baker-2023
v 9.649786 -14.079893 4.205000
v 9.548391 -14.144074 4.205000
v 9.612572 -14.245469 4.205000
v 9.713966 -14.181288 4.205000
v 9.649786 -14.079893 4.925000
v 9.548391 -14.144074 4.925000
v 9.612572 -14.245469 4.925000
v 9.713966 -14.181288 4.925000
f 293 294 295 296
f 297 300 299 298
f 293 297 298 294
f 294 298 299 295
f 295 299 300 296
f 297 293 296 300
g baluster-13
# materialClass=concrete-painted
# confidence=medium-visual
# evidenceIds=source:image:commons-baker-2017,source:image:commons-baker-2023
v 9.010034 -14.484841 4.205000
v 8.908639 -14.549021 4.205000
v 8.972819 -14.650416 4.205000
v 9.074214 -14.586236 4.205000
v 9.010034 -14.484841 4.925000
v 8.908639 -14.549021 4.925000
v 8.972819 -14.650416 4.925000
v 9.074214 -14.586236 4.925000
f 301 302 303 304
f 305 308 307 306
f 301 305 306 302
f 302 306 307 303
f 303 307 308 304
f 305 301 304 308
g baluster-14
# materialClass=concrete-painted
# confidence=medium-visual
# evidenceIds=source:image:commons-baker-2017,source:image:commons-baker-2023
v 8.370282 -14.889788 4.205000
v 8.268887 -14.953969 4.205000
v 8.333067 -15.055363 4.205000
v 8.434462 -14.991183 4.205000
v 8.370282 -14.889788 4.925000
v 8.268887 -14.953969 4.925000
v 8.333067 -15.055363 4.925000
v 8.434462 -14.991183 4.925000
f 309 310 311 312
f 313 316 315 314
f 309 313 314 310
f 310 314 315 311
f 311 315 316 312
f 313 309 312 316
g baluster-15
# materialClass=concrete-painted
# confidence=medium-visual
# evidenceIds=source:image:commons-baker-2017,source:image:commons-baker-2023
v 7.730529 -15.294736 4.205000
v 7.629135 -15.358916 4.205000
v 7.693315 -15.460311 4.205000
v 7.794710 -15.396131 4.205000
v 7.730529 -15.294736 4.925000
v 7.629135 -15.358916 4.925000
v 7.693315 -15.460311 4.925000
v 7.794710 -15.396131 4.925000
f 317 318 319 320
f 321 324 323 322
f 317 321 322 318
f 318 322 323 319
f 319 323 324 320
f 321 317 320 324
g baluster-16
# materialClass=concrete-painted
# confidence=medium-visual
# evidenceIds=source:image:commons-baker-2017,source:image:commons-baker-2023
v 7.090777 -15.699683 4.205000
v 6.989383 -15.763864 4.205000
v 7.053563 -15.865258 4.205000
v 7.154958 -15.801078 4.205000
v 7.090777 -15.699683 4.925000
v 6.989383 -15.763864 4.925000
v 7.053563 -15.865258 4.925000
v 7.154958 -15.801078 4.925000
f 325 326 327 328
f 329 332 331 330
f 325 329 330 326
f 326 330 331 327
f 327 331 332 328
f 329 325 328 332
g baluster-17
# materialClass=concrete-painted
# confidence=medium-visual
# evidenceIds=source:image:commons-baker-2017,source:image:commons-baker-2023
v 6.451025 -16.104631 4.205000
v 6.349630 -16.168811 4.205000
v 6.413811 -16.270206 4.205000
v 6.515205 -16.206026 4.205000
v 6.451025 -16.104631 4.925000
v 6.349630 -16.168811 4.925000
v 6.413811 -16.270206 4.925000
v 6.515205 -16.206026 4.925000
f 333 334 335 336
f 337 340 339 338
f 333 337 338 334
f 334 338 339 335
f 335 339 340 336
f 337 333 336 340
g baluster-18
# materialClass=concrete-painted
# confidence=medium-visual
# evidenceIds=source:image:commons-baker-2017,source:image:commons-baker-2023
v 5.811273 -16.509578 4.205000
v 5.709878 -16.573759 4.205000
v 5.774059 -16.675153 4.205000
v 5.875453 -16.610973 4.205000
v 5.811273 -16.509578 4.925000
v 5.709878 -16.573759 4.925000
v 5.774059 -16.675153 4.925000
v 5.875453 -16.610973 4.925000
f 341 342 343 344
f 345 348 347 346
f 341 345 346 342
f 342 346 347 343
f 343 347 348 344
f 345 341 344 348
g baluster-19
# materialClass=concrete-painted
# confidence=medium-visual
# evidenceIds=source:image:commons-baker-2017,source:image:commons-baker-2023
v 5.171521 -16.914526 4.205000
v 5.070126 -16.978706 4.205000
v 5.134306 -17.080101 4.205000
v 5.235701 -17.015921 4.205000
v 5.171521 -16.914526 4.925000
v 5.070126 -16.978706 4.925000
v 5.134306 -17.080101 4.925000
v 5.235701 -17.015921 4.925000
f 349 350 351 352
f 353 356 355 354
f 349 353 354 350
f 350 354 355 351
f 351 355 356 352
f 353 349 352 356
g baluster-20
# materialClass=concrete-painted
# confidence=medium-visual
# evidenceIds=source:image:commons-baker-2017,source:image:commons-baker-2023
v 4.531769 -17.319473 4.205000
v 4.430374 -17.383654 4.205000
v 4.494554 -17.485048 4.205000
v 4.595949 -17.420868 4.205000
v 4.531769 -17.319473 4.925000
v 4.430374 -17.383654 4.925000
v 4.494554 -17.485048 4.925000
v 4.595949 -17.420868 4.925000
f 357 358 359 360
f 361 364 363 362
f 357 361 362 358
f 358 362 363 359
f 359 363 364 360
f 361 357 360 364
g baluster-21
# materialClass=concrete-painted
# confidence=medium-visual
# evidenceIds=source:image:commons-baker-2017,source:image:commons-baker-2023
v 3.892016 -17.724421 4.205000
v 3.790622 -17.788601 4.205000
v 3.854802 -17.889996 4.205000
v 3.956197 -17.825815 4.205000
v 3.892016 -17.724421 4.925000
v 3.790622 -17.788601 4.925000
v 3.854802 -17.889996 4.925000
v 3.956197 -17.825815 4.925000
f 365 366 367 368
f 369 372 371 370
f 365 369 370 366
f 366 370 371 367
f 367 371 372 368
f 369 365 368 372
g baluster-22
# materialClass=concrete-painted
# confidence=medium-visual
# evidenceIds=source:image:commons-baker-2017,source:image:commons-baker-2023
v 3.252264 -18.129368 4.205000
v 3.150870 -18.193549 4.205000
v 3.215050 -18.294943 4.205000
v 3.316445 -18.230763 4.205000
v 3.252264 -18.129368 4.925000
v 3.150870 -18.193549 4.925000
v 3.215050 -18.294943 4.925000
v 3.316445 -18.230763 4.925000
f 373 374 375 376
f 377 380 379 378
f 373 377 378 374
f 374 378 379 375
f 375 379 380 376
f 377 373 376 380
g wing-window-f1-01
# materialClass=painted-metal-glass
# confidence=medium-visual
# evidenceIds=source:image:commons-baker-2017,source:image:commons-baker-2023
# notes=Window opening is a reference-derived panel, not a surveyed frame profile.
v 31.018524 2.108856 1.275000
v 28.779391 0.691540 1.275000
v 28.832875 0.607045 1.275000
v 31.072008 2.024361 1.275000
v 31.018524 2.108856 2.825000
v 28.779391 0.691540 2.825000
v 28.832875 0.607045 2.825000
v 31.072008 2.024361 2.825000
f 381 382 383 384
f 385 388 387 386
f 381 385 386 382
f 382 386 387 383
f 383 387 388 384
f 385 381 384 388
g wing-awning-f1-01
# materialClass=painted-metal
# confidence=high-visual
# evidenceIds=source:image:commons-baker-2017,source:image:commons-baker-2023
v 31.177088 2.185554 3.060000
v 28.642221 0.581045 3.060000
v 29.059393 -0.078021 3.060000
v 31.594260 1.526488 3.060000
v 31.177088 2.185554 3.180000
v 28.642221 0.581045 3.180000
v 29.059393 -0.078021 3.180000
v 31.594260 1.526488 3.180000
f 389 390 391 392
f 393 396 395 394
f 389 393 394 390
f 390 394 395 391
f 391 395 396 392
f 393 389 392 396
g wing-window-f1-02
# materialClass=painted-metal-glass
# confidence=medium-visual
# evidenceIds=source:image:commons-baker-2017,source:image:commons-baker-2023
# notes=Window opening is a reference-derived panel, not a surveyed frame profile.
v 26.886579 -0.506564 1.275000
v 24.647446 -1.923880 1.275000
v 24.700930 -2.008376 1.275000
v 26.940063 -0.591059 1.275000
v 26.886579 -0.506564 2.825000
v 24.647446 -1.923880 2.825000
v 24.700930 -2.008376 2.825000
v 26.940063 -0.591059 2.825000
f 397 398 399 400
f 401 404 403 402
f 397 401 402 398
f 398 402 403 399
f 399 403 404 400
f 401 397 400 404
g wing-awning-f1-02
# materialClass=painted-metal
# confidence=high-visual
# evidenceIds=source:image:commons-baker-2017,source:image:commons-baker-2023
v 27.045143 -0.429867 3.060000
v 24.510276 -2.034375 3.060000
v 24.927448 -2.693441 3.060000
v 27.462315 -1.088932 3.060000
v 27.045143 -0.429867 3.180000
v 24.510276 -2.034375 3.180000
v 24.927448 -2.693441 3.180000
v 27.462315 -1.088932 3.180000
f 405 406 407 408
f 409 412 411 410
f 405 409 410 406
f 406 410 411 407
f 407 411 412 408
f 409 405 408 412
g wing-window-f1-03
# materialClass=painted-metal-glass
# confidence=medium-visual
# evidenceIds=source:image:commons-baker-2017,source:image:commons-baker-2023
# notes=Window opening is a reference-derived panel, not a surveyed frame profile.
v 22.754634 -3.121984 1.275000
v 20.515501 -4.539300 1.275000
v 20.568985 -4.623796 1.275000
v 22.808117 -3.206480 1.275000
v 22.754634 -3.121984 2.825000
v 20.515501 -4.539300 2.825000
v 20.568985 -4.623796 2.825000
v 22.808117 -3.206480 2.825000
f 413 414 415 416
f 417 420 419 418
f 413 417 418 414
f 414 418 419 415
f 415 419 420 416
f 417 413 416 420
g wing-awning-f1-03
# materialClass=painted-metal
# confidence=high-visual
# evidenceIds=source:image:commons-baker-2017,source:image:commons-baker-2023
v 22.913198 -3.045287 3.060000
v 20.378331 -4.649796 3.060000
v 20.795503 -5.308861 3.060000
v 23.330370 -3.704352 3.060000
v 22.913198 -3.045287 3.180000
v 20.378331 -4.649796 3.180000
v 20.795503 -5.308861 3.180000
v 23.330370 -3.704352 3.180000
f 421 422 423 424
f 425 428 427 426
f 421 425 426 422
f 422 426 427 423
f 423 427 428 424
f 425 421 424 428
g wing-window-f1-04
# materialClass=painted-metal-glass
# confidence=medium-visual
# evidenceIds=source:image:commons-baker-2017,source:image:commons-baker-2023
# notes=Window opening is a reference-derived panel, not a surveyed frame profile.
v 18.622689 -5.737404 1.275000
v 16.383556 -7.154720 1.275000
v 16.437040 -7.239216 1.275000
v 18.676172 -5.821900 1.275000
v 18.622689 -5.737404 2.825000
v 16.383556 -7.154720 2.825000
v 16.437040 -7.239216 2.825000
v 18.676172 -5.821900 2.825000
f 429 430 431 432
f 433 436 435 434
f 429 433 434 430
f 430 434 435 431
f 431 435 436 432
f 433 429 432 436
g wing-awning-f1-04
# materialClass=painted-metal
# confidence=high-visual
# evidenceIds=source:image:commons-baker-2017,source:image:commons-baker-2023
v 18.781253 -5.660707 3.060000
v 16.246386 -7.265216 3.060000
v 16.663558 -7.924281 3.060000
v 19.198425 -6.319772 3.060000
v 18.781253 -5.660707 3.180000
v 16.246386 -7.265216 3.180000
v 16.663558 -7.924281 3.180000
v 19.198425 -6.319772 3.180000
f 437 438 439 440
f 441 444 443 442
f 437 441 442 438
f 438 442 443 439
f 439 443 444 440
f 441 437 440 444
g wing-window-f1-05
# materialClass=painted-metal-glass
# confidence=medium-visual
# evidenceIds=source:image:commons-baker-2017,source:image:commons-baker-2023
# notes=Window opening is a reference-derived panel, not a surveyed frame profile.
v 1.047610 -16.861999 1.275000
v -1.191523 -18.279315 1.275000
v -1.138039 -18.363811 1.275000
v 1.101094 -16.946495 1.275000
v 1.047610 -16.861999 2.825000
v -1.191523 -18.279315 2.825000
v -1.138039 -18.363811 2.825000
v 1.101094 -16.946495 2.825000
f 445 446 447 448
f 449 452 451 450
f 445 449 450 446
f 446 450 451 447
f 447 451 452 448
f 449 445 448 452
g wing-awning-f1-05
# materialClass=painted-metal
# confidence=high-visual
# evidenceIds=source:image:commons-baker-2017,source:image:commons-baker-2023
v 1.206174 -16.785302 3.060000
v -1.328693 -18.389811 3.060000
v -0.911521 -19.048876 3.060000
v 1.623346 -17.444367 3.060000
v 1.206174 -16.785302 3.180000
v -1.328693 -18.389811 3.180000
v -0.911521 -19.048876 3.180000
v 1.623346 -17.444367 3.180000
f 453 454 455 456
f 457 460 459 458
f 453 457 458 454
f 454 458 459 455
f 455 459 460 456
f 457 453 456 460
g wing-window-f1-06
# materialClass=painted-metal-glass
# confidence=medium-visual
# evidenceIds=source:image:commons-baker-2017,source:image:commons-baker-2023
# notes=Window opening is a reference-derived panel, not a surveyed frame profile.
v -3.084335 -19.477419 1.275000
v -5.323468 -20.894735 1.275000
v -5.269984 -20.979231 1.275000
v -3.030851 -19.561915 1.275000
v -3.084335 -19.477419 2.825000
v -5.323468 -20.894735 2.825000
v -5.269984 -20.979231 2.825000
v -3.030851 -19.561915 2.825000
f 461 462 463 464
f 465 468 467 466
f 461 465 466 462
f 462 466 467 463
f 463 467 468 464
f 465 461 464 468
g wing-awning-f1-06
# materialClass=painted-metal
# confidence=high-visual
# evidenceIds=source:image:commons-baker-2017,source:image:commons-baker-2023
v -2.925771 -19.400722 3.060000
v -5.460638 -21.005231 3.060000
v -5.043466 -21.664296 3.060000
v -2.508599 -20.059787 3.060000
v -2.925771 -19.400722 3.180000
v -5.460638 -21.005231 3.180000
v -5.043466 -21.664296 3.180000
v -2.508599 -20.059787 3.180000
f 469 470 471 472
f 473 476 475 474
f 469 473 474 470
f 470 474 475 471
f 471 475 476 472
f 473 469 472 476
g wing-window-f1-07
# materialClass=painted-metal-glass
# confidence=medium-visual
# evidenceIds=source:image:commons-baker-2017,source:image:commons-baker-2023
# notes=Window opening is a reference-derived panel, not a surveyed frame profile.
v -7.216280 -22.092839 1.275000
v -9.455413 -23.510155 1.275000
v -9.401929 -23.594651 1.275000
v -7.162796 -22.177335 1.275000
v -7.216280 -22.092839 2.825000
v -9.455413 -23.510155 2.825000
v -9.401929 -23.594651 2.825000
v -7.162796 -22.177335 2.825000
f 477 478 479 480
f 481 484 483 482
f 477 481 482 478
f 478 482 483 479
f 479 483 484 480
f 481 477 480 484
g wing-awning-f1-07
# materialClass=painted-metal
# confidence=high-visual
# evidenceIds=source:image:commons-baker-2017,source:image:commons-baker-2023
v -7.057716 -22.016142 3.060000
v -9.592583 -23.620651 3.060000
v -9.175411 -24.279716 3.060000
v -6.640544 -22.675207 3.060000
v -7.057716 -22.016142 3.180000
v -9.592583 -23.620651 3.180000
v -9.175411 -24.279716 3.180000
v -6.640544 -22.675207 3.180000
f 485 486 487 488
f 489 492 491 490
f 485 489 490 486
f 486 490 491 487
f 487 491 492 488
f 489 485 488 492
g wing-window-f1-08
# materialClass=painted-metal-glass
# confidence=medium-visual
# evidenceIds=source:image:commons-baker-2017,source:image:commons-baker-2023
# notes=Window opening is a reference-derived panel, not a surveyed frame profile.
v -11.348225 -24.708259 1.275000
v -13.587358 -26.125576 1.275000
v -13.533874 -26.210071 1.275000
v -11.294742 -24.792755 1.275000
v -11.348225 -24.708259 2.825000
v -13.587358 -26.125576 2.825000
v -13.533874 -26.210071 2.825000
v -11.294742 -24.792755 2.825000
f 493 494 495 496
f 497 500 499 498
f 493 497 498 494
f 494 498 499 495
f 495 499 500 496
f 497 493 496 500
g wing-awning-f1-08
# materialClass=painted-metal
# confidence=high-visual
# evidenceIds=source:image:commons-baker-2017,source:image:commons-baker-2023
v -11.189661 -24.631562 3.060000
v -13.724528 -26.236071 3.060000
v -13.307356 -26.895136 3.060000
v -10.772489 -25.290628 3.060000
v -11.189661 -24.631562 3.180000
v -13.724528 -26.236071 3.180000
v -13.307356 -26.895136 3.180000
v -10.772489 -25.290628 3.180000
f 501 502 503 504
f 505 508 507 506
f 501 505 506 502
f 502 506 507 503
f 503 507 508 504
f 505 501 504 508
g wing-window-f2-01
# materialClass=painted-metal-glass
# confidence=medium-visual
# evidenceIds=source:image:commons-baker-2017,source:image:commons-baker-2023
# notes=Window opening is a reference-derived panel, not a surveyed frame profile.
v 31.018524 2.108856 5.175000
v 28.779391 0.691540 5.175000
v 28.832875 0.607045 5.175000
v 31.072008 2.024361 5.175000
v 31.018524 2.108856 6.725000
v 28.779391 0.691540 6.725000
v 28.832875 0.607045 6.725000
v 31.072008 2.024361 6.725000
f 509 510 511 512
f 513 516 515 514
f 509 513 514 510
f 510 514 515 511
f 511 515 516 512
f 513 509 512 516
g wing-awning-f2-01
# materialClass=painted-metal
# confidence=high-visual
# evidenceIds=source:image:commons-baker-2017,source:image:commons-baker-2023
v 31.177088 2.185554 6.990000
v 28.642221 0.581045 6.990000
v 29.059393 -0.078021 6.990000
v 31.594260 1.526488 6.990000
v 31.177088 2.185554 7.110000
v 28.642221 0.581045 7.110000
v 29.059393 -0.078021 7.110000
v 31.594260 1.526488 7.110000
f 517 518 519 520
f 521 524 523 522
f 517 521 522 518
f 518 522 523 519
f 519 523 524 520
f 521 517 520 524
g wing-window-f2-02
# materialClass=painted-metal-glass
# confidence=medium-visual
# evidenceIds=source:image:commons-baker-2017,source:image:commons-baker-2023
# notes=Window opening is a reference-derived panel, not a surveyed frame profile.
v 26.886579 -0.506564 5.175000
v 24.647446 -1.923880 5.175000
v 24.700930 -2.008376 5.175000
v 26.940063 -0.591059 5.175000
v 26.886579 -0.506564 6.725000
v 24.647446 -1.923880 6.725000
v 24.700930 -2.008376 6.725000
v 26.940063 -0.591059 6.725000
f 525 526 527 528
f 529 532 531 530
f 525 529 530 526
f 526 530 531 527
f 527 531 532 528
f 529 525 528 532
g wing-awning-f2-02
# materialClass=painted-metal
# confidence=high-visual
# evidenceIds=source:image:commons-baker-2017,source:image:commons-baker-2023
v 27.045143 -0.429867 6.990000
v 24.510276 -2.034375 6.990000
v 24.927448 -2.693441 6.990000
v 27.462315 -1.088932 6.990000
v 27.045143 -0.429867 7.110000
v 24.510276 -2.034375 7.110000
v 24.927448 -2.693441 7.110000
v 27.462315 -1.088932 7.110000
f 533 534 535 536
f 537 540 539 538
f 533 537 538 534
f 534 538 539 535
f 535 539 540 536
f 537 533 536 540
g wing-window-f2-03
# materialClass=painted-metal-glass
# confidence=medium-visual
# evidenceIds=source:image:commons-baker-2017,source:image:commons-baker-2023
# notes=Window opening is a reference-derived panel, not a surveyed frame profile.
v 22.754634 -3.121984 5.175000
v 20.515501 -4.539300 5.175000
v 20.568985 -4.623796 5.175000
v 22.808117 -3.206480 5.175000
v 22.754634 -3.121984 6.725000
v 20.515501 -4.539300 6.725000
v 20.568985 -4.623796 6.725000
v 22.808117 -3.206480 6.725000
f 541 542 543 544
f 545 548 547 546
f 541 545 546 542
f 542 546 547 543
f 543 547 548 544
f 545 541 544 548
g wing-awning-f2-03
# materialClass=painted-metal
# confidence=high-visual
# evidenceIds=source:image:commons-baker-2017,source:image:commons-baker-2023
v 22.913198 -3.045287 6.990000
v 20.378331 -4.649796 6.990000
v 20.795503 -5.308861 6.990000
v 23.330370 -3.704352 6.990000
v 22.913198 -3.045287 7.110000
v 20.378331 -4.649796 7.110000
v 20.795503 -5.308861 7.110000
v 23.330370 -3.704352 7.110000
f 549 550 551 552
f 553 556 555 554
f 549 553 554 550
f 550 554 555 551
f 551 555 556 552
f 553 549 552 556
g wing-window-f2-04
# materialClass=painted-metal-glass
# confidence=medium-visual
# evidenceIds=source:image:commons-baker-2017,source:image:commons-baker-2023
# notes=Window opening is a reference-derived panel, not a surveyed frame profile.
v 18.622689 -5.737404 5.175000
v 16.383556 -7.154720 5.175000
v 16.437040 -7.239216 5.175000
v 18.676172 -5.821900 5.175000
v 18.622689 -5.737404 6.725000
v 16.383556 -7.154720 6.725000
v 16.437040 -7.239216 6.725000
v 18.676172 -5.821900 6.725000
f 557 558 559 560
f 561 564 563 562
f 557 561 562 558
f 558 562 563 559
f 559 563 564 560
f 561 557 560 564
g wing-awning-f2-04
# materialClass=painted-metal
# confidence=high-visual
# evidenceIds=source:image:commons-baker-2017,source:image:commons-baker-2023
v 18.781253 -5.660707 6.990000
v 16.246386 -7.265216 6.990000
v 16.663558 -7.924281 6.990000
v 19.198425 -6.319772 6.990000
v 18.781253 -5.660707 7.110000
v 16.246386 -7.265216 7.110000
v 16.663558 -7.924281 7.110000
v 19.198425 -6.319772 7.110000
f 565 566 567 568
f 569 572 571 570
f 565 569 570 566
f 566 570 571 567
f 567 571 572 568
f 569 565 568 572
g wing-window-f2-05
# materialClass=painted-metal-glass
# confidence=medium-visual
# evidenceIds=source:image:commons-baker-2017,source:image:commons-baker-2023
# notes=Window opening is a reference-derived panel, not a surveyed frame profile.
v 1.047610 -16.861999 5.175000
v -1.191523 -18.279315 5.175000
v -1.138039 -18.363811 5.175000
v 1.101094 -16.946495 5.175000
v 1.047610 -16.861999 6.725000
v -1.191523 -18.279315 6.725000
v -1.138039 -18.363811 6.725000
v 1.101094 -16.946495 6.725000
f 573 574 575 576
f 577 580 579 578
f 573 577 578 574
f 574 578 579 575
f 575 579 580 576
f 577 573 576 580
g wing-awning-f2-05
# materialClass=painted-metal
# confidence=high-visual
# evidenceIds=source:image:commons-baker-2017,source:image:commons-baker-2023
v 1.206174 -16.785302 6.990000
v -1.328693 -18.389811 6.990000
v -0.911521 -19.048876 6.990000
v 1.623346 -17.444367 6.990000
v 1.206174 -16.785302 7.110000
v -1.328693 -18.389811 7.110000
v -0.911521 -19.048876 7.110000
v 1.623346 -17.444367 7.110000
f 581 582 583 584
f 585 588 587 586
f 581 585 586 582
f 582 586 587 583
f 583 587 588 584
f 585 581 584 588
g wing-window-f2-06
# materialClass=painted-metal-glass
# confidence=medium-visual
# evidenceIds=source:image:commons-baker-2017,source:image:commons-baker-2023
# notes=Window opening is a reference-derived panel, not a surveyed frame profile.
v -3.084335 -19.477419 5.175000
v -5.323468 -20.894735 5.175000
v -5.269984 -20.979231 5.175000
v -3.030851 -19.561915 5.175000
v -3.084335 -19.477419 6.725000
v -5.323468 -20.894735 6.725000
v -5.269984 -20.979231 6.725000
v -3.030851 -19.561915 6.725000
f 589 590 591 592
f 593 596 595 594
f 589 593 594 590
f 590 594 595 591
f 591 595 596 592
f 593 589 592 596
g wing-awning-f2-06
# materialClass=painted-metal
# confidence=high-visual
# evidenceIds=source:image:commons-baker-2017,source:image:commons-baker-2023
v -2.925771 -19.400722 6.990000
v -5.460638 -21.005231 6.990000
v -5.043466 -21.664296 6.990000
v -2.508599 -20.059787 6.990000
v -2.925771 -19.400722 7.110000
v -5.460638 -21.005231 7.110000
v -5.043466 -21.664296 7.110000
v -2.508599 -20.059787 7.110000
f 597 598 599 600
f 601 604 603 602
f 597 601 602 598
f 598 602 603 599
f 599 603 604 600
f 601 597 600 604
g wing-window-f2-07
# materialClass=painted-metal-glass
# confidence=medium-visual
# evidenceIds=source:image:commons-baker-2017,source:image:commons-baker-2023
# notes=Window opening is a reference-derived panel, not a surveyed frame profile.
v -7.216280 -22.092839 5.175000
v -9.455413 -23.510155 5.175000
v -9.401929 -23.594651 5.175000
v -7.162796 -22.177335 5.175000
v -7.216280 -22.092839 6.725000
v -9.455413 -23.510155 6.725000
v -9.401929 -23.594651 6.725000
v -7.162796 -22.177335 6.725000
f 605 606 607 608
f 609 612 611 610
f 605 609 610 606
f 606 610 611 607
f 607 611 612 608
f 609 605 608 612
g wing-awning-f2-07
# materialClass=painted-metal
# confidence=high-visual
# evidenceIds=source:image:commons-baker-2017,source:image:commons-baker-2023
v -7.057716 -22.016142 6.990000
v -9.592583 -23.620651 6.990000
v -9.175411 -24.279716 6.990000
v -6.640544 -22.675207 6.990000
v -7.057716 -22.016142 7.110000
v -9.592583 -23.620651 7.110000
v -9.175411 -24.279716 7.110000
v -6.640544 -22.675207 7.110000
f 613 614 615 616
f 617 620 619 618
f 613 617 618 614
f 614 618 619 615
f 615 619 620 616
f 617 613 616 620
g wing-window-f2-08
# materialClass=painted-metal-glass
# confidence=medium-visual
# evidenceIds=source:image:commons-baker-2017,source:image:commons-baker-2023
# notes=Window opening is a reference-derived panel, not a surveyed frame profile.
v -11.348225 -24.708259 5.175000
v -13.587358 -26.125576 5.175000
v -13.533874 -26.210071 5.175000
v -11.294742 -24.792755 5.175000
v -11.348225 -24.708259 6.725000
v -13.587358 -26.125576 6.725000
v -13.533874 -26.210071 6.725000
v -11.294742 -24.792755 6.725000
f 621 622 623 624
f 625 628 627 626
f 621 625 626 622
f 622 626 627 623
f 623 627 628 624
f 625 621 624 628
g wing-awning-f2-08
# materialClass=painted-metal
# confidence=high-visual
# evidenceIds=source:image:commons-baker-2017,source:image:commons-baker-2023
v -11.189661 -24.631562 6.990000
v -13.724528 -26.236071 6.990000
v -13.307356 -26.895136 6.990000
v -10.772489 -25.290628 6.990000
v -11.189661 -24.631562 7.110000
v -13.724528 -26.236071 7.110000
v -13.307356 -26.895136 7.110000
v -10.772489 -25.290628 7.110000
f 629 630 631 632
f 633 636 635 634
f 629 633 634 630
f 630 634 635 631
f 631 635 636 632
f 633 629 632 636
g front-pilaster-01
# materialClass=concrete-painted
# confidence=medium-visual
# evidenceIds=source:image:commons-baker-2017,source:image:commons-baker-2023
v 31.386080 2.341510 0.000000
v 31.031198 2.116879 0.000000
v 31.159559 1.914090 0.000000
v 31.514440 2.138721 0.000000
v 31.386080 2.341510 7.850000
v 31.031198 2.116879 7.850000
v 31.159559 1.914090 7.850000
v 31.514440 2.138721 7.850000
f 637 638 639 640
f 641 644 643 642
f 637 641 642 638
f 638 642 643 639
f 639 643 644 640
f 641 637 640 644
g front-pilaster-02
# materialClass=concrete-painted
# confidence=medium-visual
# evidenceIds=source:image:commons-baker-2017,source:image:commons-baker-2023
v 24.186722 -2.215507 0.000000
v 23.831841 -2.440138 0.000000
v 23.960201 -2.642928 0.000000
v 24.315083 -2.418296 0.000000
v 24.186722 -2.215507 7.850000
v 23.831841 -2.440138 7.850000
v 23.960201 -2.642928 7.850000
v 24.315083 -2.418296 7.850000
f 645 646 647 648
f 649 652 651 650
f 645 649 650 646
f 646 650 651 647
f 647 651 652 648
f 649 645 648 652
g front-pilaster-03
# materialClass=concrete-painted
# confidence=medium-visual
# evidenceIds=source:image:commons-baker-2017,source:image:commons-baker-2023
v 20.384421 -4.622270 0.000000
v 20.029540 -4.846902 0.000000
v 20.157901 -5.049691 0.000000
v 20.512782 -4.825060 0.000000
v 20.384421 -4.622270 7.850000
v 20.029540 -4.846902 7.850000
v 20.157901 -5.049691 7.850000
v 20.512782 -4.825060 7.850000
f 653 654 655 656
f 657 660 659 658
f 653 657 658 654
f 654 658 659 655
f 655 659 660 656
f 657 653 656 660
g front-pilaster-04
# materialClass=concrete-painted
# confidence=medium-visual
# evidenceIds=source:image:commons-baker-2017,source:image:commons-baker-2023
v 16.624368 -7.002292 0.000000
v 16.269487 -7.226923 0.000000
v 16.397848 -7.429713 0.000000
v 16.752729 -7.205081 0.000000
v 16.624368 -7.002292 7.850000
v 16.269487 -7.226923 7.850000
v 16.397848 -7.429713 7.850000
v 16.752729 -7.205081 7.850000
f 661 662 663 664
f 665 668 667 666
f 661 665 666 662
f 662 666 667 663
f 663 667 668 664
f 665 661 664 668
g front-pilaster-05
# materialClass=concrete-painted
# confidence=medium-visual
# evidenceIds=source:image:commons-baker-2017,source:image:commons-baker-2023
v 1.161679 -16.789796 0.000000
v 0.806798 -17.014427 0.000000
v 0.935158 -17.217217 0.000000
v 1.290040 -16.992585 0.000000
v 1.161679 -16.789796 7.850000
v 0.806798 -17.014427 7.850000
v 0.935158 -17.217217 7.850000
v 1.290040 -16.992585 7.850000
f 669 670 671 672
f 673 676 675 674
f 669 673 674 670
f 670 674 675 671
f 671 675 676 672
f 673 669 672 676
g front-pilaster-06
# materialClass=concrete-painted
# confidence=medium-visual
# evidenceIds=source:image:commons-baker-2017,source:image:commons-baker-2023
v -2.598374 -19.169818 0.000000
v -2.953255 -19.394449 0.000000
v -2.824894 -19.597238 0.000000
v -2.470013 -19.372607 0.000000
v -2.598374 -19.169818 7.850000
v -2.953255 -19.394449 7.850000
v -2.824894 -19.597238 7.850000
v -2.470013 -19.372607 7.850000
f 677 678 679 680
f 681 684 683 682
f 677 681 682 678
f 678 682 683 679
f 679 683 684 680
f 681 677 680 684
g front-pilaster-07
# materialClass=concrete-painted
# confidence=medium-visual
# evidenceIds=source:image:commons-baker-2017,source:image:commons-baker-2023
v -6.400674 -21.576581 0.000000
v -6.755556 -21.801212 0.000000
v -6.627195 -22.004001 0.000000
v -6.272314 -21.779370 0.000000
v -6.400674 -21.576581 7.850000
v -6.755556 -21.801212 7.850000
v -6.627195 -22.004001 7.850000
v -6.272314 -21.779370 7.850000
f 685 686 687 688
f 689 692 691 690
f 685 689 690 686
f 686 690 691 687
f 687 691 692 688
f 689 685 688 692
g front-pilaster-08
# materialClass=concrete-painted
# confidence=medium-visual
# evidenceIds=source:image:commons-baker-2017,source:image:commons-baker-2023
v -13.600032 -26.133598 0.000000
v -13.954914 -26.358229 0.000000
v -13.826553 -26.561019 0.000000
v -13.471671 -26.336387 0.000000
v -13.600032 -26.133598 7.850000
v -13.954914 -26.358229 7.850000
v -13.826553 -26.561019 7.850000
v -13.471671 -26.336387 7.850000
f 693 694 695 696
f 697 700 699 698
f 693 697 698 694
f 694 698 699 695
f 695 699 700 696
f 697 693 696 700
g floor-string-course
# materialClass=concrete-painted
# confidence=high-visual
# evidenceIds=source:image:commons-baker-2017,source:image:commons-baker-2023
v 31.752512 2.585288 3.660000
v -14.332042 -26.585108 3.660000
v -14.182288 -26.821695 3.660000
v 31.902266 2.348700 3.660000
v 31.752512 2.585288 3.940000
v -14.332042 -26.585108 3.940000
v -14.182288 -26.821695 3.940000
v 31.902266 2.348700 3.940000
f 701 702 703 704
f 705 708 707 706
f 701 705 706 702
f 702 706 707 703
f 703 707 708 704
f 705 701 704 708
g upper-cornice
# materialClass=concrete-painted
# confidence=high-visual
# evidenceIds=source:image:commons-baker-2017,source:image:commons-baker-2023
v 31.752512 2.585288 7.690000
v -14.332042 -26.585108 7.690000
v -14.182288 -26.821695 7.690000
v 31.902266 2.348700 7.690000
v 31.752512 2.585288 8.010000
v -14.332042 -26.585108 8.010000
v -14.182288 -26.821695 8.010000
v 31.902266 2.348700 8.010000
f 709 710 711 712
f 713 716 715 714
f 709 713 714 710
f 710 714 715 711
f 711 715 716 712
f 713 709 712 716
g central-door-01
# materialClass=wood-metal
# confidence=medium-visual
# evidenceIds=source:image:commons-baker-2017,source:image:commons-baker-2023
v 12.454512 -9.641709 0.150000
v 10.384371 -10.952058 0.150000
v 10.427158 -11.019654 0.150000
v 12.497299 -9.709305 0.150000
v 12.454512 -9.641709 2.950000
v 10.384371 -10.952058 2.950000
v 10.427158 -11.019654 2.950000
v 12.497299 -9.709305 2.950000
f 717 718 719 720
f 721 724 723 722
f 717 721 722 718
f 718 722 723 719
f 719 723 724 720
f 721 717 720 724
g central-upper-opening-01
# materialClass=painted-metal-glass
# confidence=medium-visual
# evidenceIds=source:image:commons-baker-2017,source:image:commons-baker-2023
v 12.454512 -9.641709 4.800000
v 10.384371 -10.952058 4.800000
v 10.427158 -11.019654 4.800000
v 12.497299 -9.709305 4.800000
v 12.454512 -9.641709 7.100000
v 10.384371 -10.952058 7.100000
v 10.427158 -11.019654 7.100000
v 12.497299 -9.709305 7.100000
f 725 726 727 728
f 729 732 731 730
f 725 729 730 726
f 726 730 731 727
f 727 731 732 728
f 729 725 728 732
g central-door-02
# materialClass=wood-metal
# confidence=medium-visual
# evidenceIds=source:image:commons-baker-2017,source:image:commons-baker-2023
v 9.750654 -11.353185 0.150000
v 7.680512 -12.663534 0.150000
v 7.723299 -12.731131 0.150000
v 9.793441 -11.420782 0.150000
v 9.750654 -11.353185 2.950000
v 7.680512 -12.663534 2.950000
v 7.723299 -12.731131 2.950000
v 9.793441 -11.420782 2.950000
f 733 734 735 736
f 737 740 739 738
f 733 737 738 734
f 734 738 739 735
f 735 739 740 736
f 737 733 736 740
g central-upper-opening-02
# materialClass=painted-metal-glass
# confidence=medium-visual
# evidenceIds=source:image:commons-baker-2017,source:image:commons-baker-2023
v 9.750654 -11.353185 4.800000
v 7.680512 -12.663534 4.800000
v 7.723299 -12.731131 4.800000
v 9.793441 -11.420782 4.800000
v 9.750654 -11.353185 7.100000
v 7.680512 -12.663534 7.100000
v 7.723299 -12.731131 7.100000
v 9.793441 -11.420782 7.100000
f 741 742 743 744
f 745 748 747 746
f 741 745 746 742
f 742 746 747 743
f 743 747 748 744
f 745 741 744 748
g central-door-03
# materialClass=wood-metal
# confidence=medium-visual
# evidenceIds=source:image:commons-baker-2017,source:image:commons-baker-2023
v 7.046796 -13.064661 0.150000
v 4.976654 -14.375010 0.150000
v 5.019441 -14.442607 0.150000
v 7.089582 -13.132258 0.150000
v 7.046796 -13.064661 2.950000
v 4.976654 -14.375010 2.950000
v 5.019441 -14.442607 2.950000
v 7.089582 -13.132258 2.950000
f 749 750 751 752
f 753 756 755 754
f 749 753 754 750
f 750 754 755 751
f 751 755 756 752
f 753 749 752 756
g central-upper-opening-03
# materialClass=painted-metal-glass
# confidence=medium-visual
# evidenceIds=source:image:commons-baker-2017,source:image:commons-baker-2023
v 7.046796 -13.064661 4.800000
v 4.976654 -14.375010 4.800000
v 5.019441 -14.442607 4.800000
v 7.089582 -13.132258 4.800000
v 7.046796 -13.064661 7.100000
v 4.976654 -14.375010 7.100000
v 5.019441 -14.442607 7.100000
v 7.089582 -13.132258 7.100000
f 757 758 759 760
f 761 764 763 762
f 757 761 762 758
f 758 762 763 759
f 759 763 764 760
f 761 757 760 764
g portico-entablature
# materialClass=concrete-painted
# confidence=high-visual
# evidenceIds=source:image:commons-baker-2017,source:image:commons-baker-2023
v 16.332477 -7.027280 7.740000
v 0.954283 -16.761301 7.740000
v 2.318116 -18.915938 7.740000
v 17.696310 -9.181917 7.740000
v 16.332477 -7.027280 8.160000
v 0.954283 -16.761301 8.160000
v 2.318116 -18.915938 8.160000
v 17.696310 -9.181917 8.160000
f 765 766 767 768
f 769 772 771 770
f 765 769 770 766
f 766 770 771 767
f 767 771 772 768
f 769 765 768 772
g central-sign-parapet
# materialClass=concrete-painted
# confidence=high-visual
# evidenceIds=source:image:commons-baker-2017,source:image:commons-baker-2023
# notes=Sign lettering is intentionally omitted from geometry v0.2.
v 16.172048 -7.241260 8.145000
v 1.216332 -16.707863 8.145000
v 1.440963 -17.062744 8.145000
v 16.396679 -7.596142 8.145000
v 16.172048 -7.241260 9.495000
v 1.216332 -16.707863 9.495000
v 1.440963 -17.062744 9.495000
v 16.396679 -7.596142 9.495000
f 773 774 775 776
f 777 780 779 778
f 773 777 778 774
f 774 778 779 775
f 775 779 780 776
f 777 773 776 780
g central-sign-parapet-cap
# materialClass=concrete-painted
# confidence=medium-visual
# evidenceIds=source:image:commons-baker-2017,source:image:commons-baker-2023
v 16.356545 -7.065303 9.480000
v 0.978351 -16.799324 9.480000
v 1.277859 -17.272499 9.480000
v 16.656053 -7.538479 9.480000
v 16.356545 -7.065303 9.660000
v 0.978351 -16.799324 9.660000
v 1.277859 -17.272499 9.660000
v 16.656053 -7.538479 9.660000
f 781 782 783 784
f 785 788 787 786
f 781 785 786 782
f 782 786 787 783
f 783 787 788 784
f 785 781 784 788
g central-provisional-gable-roof
# materialClass=corrugated-metal
# confidence=medium-low-visual
# evidenceIds=source:image:commons-baker-2017,source:image:commons-baker-2023
# notes=Provisional low-poly roof inferred from visible roof silhouette; replace after recovered model/survey evidence.
v 3.957422 12.803785 8.150000
v -11.674258 2.909313 8.150000
v -3.858418 7.856549 10.200000
v 16.793493 -7.475152 8.150000
v 1.161813 -17.369624 8.150000
v 8.977653 -12.422388 10.200000
f 789 791 790
f 792 793 794
f 789 792 794 791
f 791 794 793 790
f 789 790 793 792
