# Generated by tools.modeling.mesh
o Baker__Roof
# featureId=uplb:building:baker-hall
# sourceFeatureId=uplb:building:baker-hall
# lod=lod2
# materialClass=corrugated-metal-green
# confidence=medium-low-visual
# evidenceIds=source:image:commons-baker-2009,source:image:commons-baker-2017,source:image:commons-baker-2023
v -6.986704 -15.439372 8.150000
v -16.973785 0.133303 8.150000
v -11.980244 -7.653035 10.200000
v -27.189093 -28.395586 8.150000
v -37.176174 -12.822910 8.150000
v -32.182634 -20.609248 10.200000
f 1 3 2
f 4 5 6
f 1 4 6 3
f 3 6 5 2
f 1 2 5 4
