# Generated by tools.modeling.assembly
# featureId=uplb:building:student-union
# version=student-union.v0.1-reference-production
# identityStatus=proposed-candidate
# sourceFeatureId=candidate:osm:way/37450035
o uplb_building_student-union
g body-source-footprint
# materialClass=concrete-painted
# confidence=source-supported-footprint/medium-height
# evidenceIds=source:legacy:uplb-virtual-campus-2014,source:news:cinterlabs-2014,source:image:commons-student-union-2023,source:reference:arcgis-uplb-memoirs
# notes=Footprint comes from the pinned project candidate snapshot. Production ID is not a canonical promotion.
v -30.121844 40.461392 0.000000
v -43.218047 18.905797 0.000000
v -43.218047 18.905797 10.800000
v -30.121844 40.461392 10.800000
v -36.156146 14.725523 0.000000
v -36.156146 14.725523 10.800000
v -29.397775 10.381559 0.000000
v -29.397775 10.381559 10.800000
v -25.167630 7.229473 0.000000
v -25.167630 7.229473 10.800000
v -21.144186 3.868707 0.000000
v -21.144186 3.868707 10.800000
v -13.742805 -2.549219 0.000000
v -13.742805 -2.549219 10.800000
v -7.754854 -8.845875 0.000000
v -7.754854 -8.845875 10.800000
v -0.257809 -16.902119 0.000000
v -0.257809 -16.902119 10.800000
v 5.001003 -23.967836 0.000000
v 5.001003 -23.967836 10.800000
v 10.155423 -31.995412 0.000000
v 10.155423 -31.995412 10.800000
v 16.270917 -42.873885 0.000000
v 16.270917 -42.873885 10.800000
v 39.265068 -31.705090 0.000000
v 39.265068 -31.705090 10.800000
v 36.920230 -24.782984 0.000000
v 36.920230 -24.782984 10.800000
v 33.430528 -17.918668 0.000000
v 33.430528 -17.918668 10.800000
v 29.358098 -11.016778 0.000000
v 29.358098 -11.016778 10.800000
v 21.470167 -0.379486 0.000000
v 21.470167 -0.379486 10.800000
v 16.164267 6.166531 0.000000
v 16.164267 6.166531 10.800000
v 11.087899 11.648595 0.000000
v 11.087899 11.648595 10.800000
v 4.217429 18.317017 0.000000
v 4.217429 18.317017 10.800000
v -3.324878 24.658543 0.000000
v -3.324878 24.658543 10.800000
v -11.143812 30.105894 0.000000
v -11.143812 30.105894 10.800000
v -19.839955 35.194697 0.000000
v -19.839955 35.194697 10.800000
f 1 2 3 4
f 2 5 6 3
f 5 7 8 6
f 7 9 10 8
f 9 11 12 10
f 11 13 14 12
f 13 15 16 14
f 15 17 18 16
f 17 19 20 18
f 19 21 22 20
f 21 23 24 22
f 23 25 26 24
f 25 27 28 26
f 27 29 30 28
f 29 31 32 30
f 31 33 34 32
f 33 35 36 34
f 35 37 38 36
f 37 39 40 38
f 39 41 42 40
f 41 43 44 42
f 43 45 46 44
f 45 1 4 46
f 11 41 9
f 10 42 12
f 39 41 13
f 14 42 40
f 33 35 17
f 18 36 34
f 21 31 19
f 20 32 22
f 23 27 21
f 22 28 24
f 23 25 27
f 28 26 24
f 1 2 5
f 6 3 4
f 37 39 13
f 14 40 38
f 35 37 15
f 16 38 36
f 29 21 27
f 28 22 30
f 1 5 45
f 46 6 4
f 11 13 41
f 42 14 12
f 31 21 29
f 30 22 32
f 7 45 5
f 6 46 8
f 33 19 31
f 32 20 34
f 45 7 43
f 44 8 46
f 19 33 17
f 18 34 20
f 9 43 7
f 8 44 10
f 15 17 35
f 36 18 16
f 43 9 41
f 42 10 44
f 13 15 37
f 38 16 14
g floor-band-l01-e00
# materialClass=concrete-painted
# confidence=source-level-count/proxy-detail
# evidenceIds=source:legacy:uplb-virtual-campus-2014,source:news:cinterlabs-2014,source:image:commons-student-union-2023,source:reference:arcgis-uplb-memoirs
# notes=Procedural level break; not a measured facade molding.
v -30.145968 40.440945 3.520000
v -43.211016 18.936628 3.520000
v -43.381942 19.040475 3.520000
v -30.316894 40.544793 3.520000
v -30.145968 40.440945 3.680000
v -43.211016 18.936628 3.680000
v -43.381942 19.040475 3.680000
v -30.316894 40.544793 3.680000
f 47 48 49 50
f 51 54 53 52
f 47 51 52 48
f 48 52 53 49
f 49 53 54 50
f 51 47 50 54
g floor-band-l01-e01
# materialClass=concrete-painted
# confidence=source-level-count/proxy-detail
# evidenceIds=source:legacy:uplb-virtual-campus-2014,source:news:cinterlabs-2014,source:image:commons-student-union-2023,source:reference:arcgis-uplb-memoirs
# notes=Procedural level break; not a measured facade molding.
v -43.197324 18.881910 3.520000
v -36.187056 14.732200 3.520000
v -36.288934 14.560093 3.520000
v -43.299203 18.709803 3.520000
v -43.197324 18.881910 3.680000
v -36.187056 14.732200 3.680000
v -36.288934 14.560093 3.680000
v -43.299203 18.709803 3.680000
f 55 56 57 58
f 59 62 61 60
f 55 59 60 56
f 56 60 61 57
f 57 61 62 58
f 59 55 58 62
g floor-band-l01-e02
# materialClass=concrete-painted
# confidence=source-level-count/proxy-detail
# evidenceIds=source:legacy:uplb-virtual-campus-2014,source:news:cinterlabs-2014,source:image:commons-student-union-2023,source:reference:arcgis-uplb-memoirs
# notes=Procedural level break; not a measured facade molding.
v -36.136316 14.700890 3.520000
v -29.428419 10.389368 3.520000
v -29.536558 10.221124 3.520000
v -36.244455 14.532646 3.520000
v -36.136316 14.700890 3.680000
v -29.428419 10.389368 3.680000
v -29.536558 10.221124 3.680000
v -36.244455 14.532646 3.680000
f 63 64 65 66
f 67 70 69 68
f 63 67 68 64
f 64 68 69 65
f 65 69 70 66
f 67 63 66 70
g floor-band-l01-e03
# materialClass=concrete-painted
# confidence=source-level-count/proxy-detail
# evidenceIds=source:legacy:uplb-virtual-campus-2014,source:news:cinterlabs-2014,source:image:commons-student-union-2023,source:reference:arcgis-uplb-memoirs
# notes=Procedural level break; not a measured facade molding.
v -29.379695 10.355615 3.520000
v -25.197661 7.239379 3.520000
v -25.317163 7.079007 3.520000
v -29.499196 10.195242 3.520000
v -29.379695 10.355615 3.680000
v -25.197661 7.239379 3.680000
v -25.317163 7.079007 3.680000
v -29.499196 10.195242 3.680000
f 71 72 73 74
f 75 78 77 76
f 71 75 76 72
f 72 76 77 73
f 73 77 78 74
f 75 71 74 78
g floor-band-l01-e04
# materialClass=concrete-painted
# confidence=source-level-count/proxy-detail
# evidenceIds=source:legacy:uplb-virtual-campus-2014,source:news:cinterlabs-2014,source:image:commons-student-union-2023,source:reference:arcgis-uplb-memoirs
# notes=Procedural level break; not a measured facade molding.
v -25.151017 7.202566 3.520000
v -21.173621 3.880265 3.520000
v -21.301836 3.726769 3.520000
v -25.279231 7.049070 3.520000
v -25.151017 7.202566 3.680000
v -21.173621 3.880265 3.680000
v -21.301836 3.726769 3.680000
v -25.279231 7.049070 3.680000
f 79 80 81 82
f 83 86 85 84
f 79 83 84 80
f 80 84 85 81
f 81 85 86 82
f 83 79 82 86
g floor-band-l01-e05
# materialClass=concrete-painted
# confidence=source-level-count/proxy-detail
# evidenceIds=source:legacy:uplb-virtual-campus-2014,source:news:cinterlabs-2014,source:image:commons-student-union-2023,source:reference:arcgis-uplb-memoirs
# notes=Procedural level break; not a measured facade molding.
v -21.128072 3.841498 3.520000
v -13.772022 -2.537120 3.520000
v -13.903047 -2.688224 3.520000
v -21.259098 3.690395 3.520000
v -21.128072 3.841498 3.680000
v -13.772022 -2.537120 3.680000
v -13.903047 -2.688224 3.680000
v -21.259098 3.690395 3.680000
f 87 88 89 90
f 91 94 93 92
f 87 91 92 88
f 88 92 93 89
f 89 93 94 90
f 91 87 90 94
g floor-band-l01-e06
# materialClass=concrete-painted
# confidence=source-level-count/proxy-detail
# evidenceIds=source:legacy:uplb-virtual-campus-2014,source:news:cinterlabs-2014,source:image:commons-student-union-2023,source:reference:arcgis-uplb-memoirs
# notes=Procedural level break; not a measured facade molding.
v -13.729378 -2.577850 3.520000
v -7.782774 -8.831026 3.520000
v -7.927704 -8.968850 3.520000
v -13.874307 -2.715674 3.520000
v -13.729378 -2.577850 3.680000
v -7.782774 -8.831026 3.680000
v -7.927704 -8.968850 3.680000
v -13.874307 -2.715674 3.680000
f 95 96 97 98
f 99 102 101 100
f 95 99 100 96
f 96 100 101 97
f 97 101 102 98
f 99 95 98 102
g floor-band-l01-e07
# materialClass=concrete-painted
# confidence=source-level-count/proxy-detail
# evidenceIds=source:legacy:uplb-virtual-campus-2014,source:news:cinterlabs-2014,source:image:commons-student-union-2023,source:reference:arcgis-uplb-memoirs
# notes=Procedural level break; not a measured facade molding.
v -7.741738 -8.874649 3.520000
v -0.285567 -16.886970 3.520000
v -0.431978 -17.023219 3.520000
v -7.888149 -9.010897 3.520000
v -7.741738 -8.874649 3.680000
v -0.285567 -16.886970 3.680000
v -0.431978 -17.023219 3.680000
v -7.888149 -9.010897 3.680000
f 103 104 105 106
f 107 110 109 108
f 103 107 108 104
f 104 108 109 105
f 105 109 110 106
f 107 103 106 110
g floor-band-l01-e08
# materialClass=concrete-painted
# confidence=source-level-count/proxy-detail
# evidenceIds=source:legacy:uplb-virtual-campus-2014,source:news:cinterlabs-2014,source:image:commons-student-union-2023,source:reference:arcgis-uplb-memoirs
# notes=Procedural level break; not a measured facade molding.
v -0.247919 -16.932156 3.520000
v 4.975069 -23.949740 3.520000
v 4.814629 -24.069151 3.520000
v -0.408360 -17.051567 3.520000
v -0.247919 -16.932156 3.680000
v 4.975069 -23.949740 3.680000
v 4.814629 -24.069151 3.680000
v -0.408360 -17.051567 3.680000
f 111 112 113 114
f 115 118 117 116
f 111 115 116 112
f 112 116 117 113
f 113 117 118 114
f 115 111 114 118
g floor-band-l01-e09
# materialClass=concrete-painted
# confidence=source-level-count/proxy-detail
# evidenceIds=source:legacy:uplb-virtual-campus-2014,source:news:cinterlabs-2014,source:image:commons-student-union-2023,source:reference:arcgis-uplb-memoirs
# notes=Procedural level break; not a measured facade molding.
v 5.008797 -23.998483 3.520000
v 10.130800 -31.975571 3.520000
v 9.962505 -32.083631 3.520000
v 4.840503 -24.106543 3.520000
v 5.008797 -23.998483 3.680000
v 10.130800 -31.975571 3.680000
v 9.962505 -32.083631 3.680000
v 4.840503 -24.106543 3.680000
f 119 120 121 122
f 123 126 125 124
f 119 123 124 120
f 120 124 125 121
f 121 125 126 122
f 123 119 122 126
g floor-band-l01-e10
# materialClass=concrete-painted
# confidence=source-level-count/proxy-detail
# evidenceIds=source:legacy:uplb-virtual-campus-2014,source:news:cinterlabs-2014,source:image:commons-student-union-2023,source:reference:arcgis-uplb-memoirs
# notes=Procedural level break; not a measured facade molding.
v 10.161408 -32.026464 3.520000
v 16.247499 -42.852634 3.520000
v 16.073158 -42.950642 3.520000
v 9.987068 -32.124472 3.520000
v 10.161408 -32.026464 3.680000
v 16.247499 -42.852634 3.680000
v 16.073158 -42.950642 3.680000
v 9.987068 -32.124472 3.680000
f 127 128 129 130
f 131 134 133 132
f 127 131 132 128
f 128 132 133 129
f 129 133 134 130
f 131 127 130 134
g floor-band-l01-e11
# materialClass=concrete-painted
# confidence=source-level-count/proxy-detail
# evidenceIds=source:legacy:uplb-virtual-campus-2014,source:news:cinterlabs-2014,source:image:commons-student-union-2023,source:reference:arcgis-uplb-memoirs
# notes=Procedural level break; not a measured facade molding.
v 16.302271 -42.869773 3.520000
v 39.242452 -31.727193 3.520000
v 39.329834 -31.907094 3.520000
v 16.389653 -43.049674 3.520000
v 16.302271 -42.869773 3.680000
v 39.242452 -31.727193 3.680000
v 39.329834 -31.907094 3.680000
v 16.389653 -43.049674 3.680000
f 135 136 137 138
f 139 142 141 140
f 135 139 140 136
f 136 140 141 137
f 137 141 142 138
f 139 135 138 142
g floor-band-l01-e12
# materialClass=concrete-painted
# confidence=source-level-count/proxy-detail
# evidenceIds=source:legacy:uplb-virtual-campus-2014,source:news:cinterlabs-2014,source:image:commons-student-union-2023,source:reference:arcgis-uplb-memoirs
# notes=Procedural level break; not a measured facade molding.
v 39.264914 -31.673468 3.520000
v 36.939327 -24.808190 3.520000
v 37.128754 -24.744022 3.520000
v 39.454341 -31.609300 3.520000
v 39.264914 -31.673468 3.680000
v 36.939327 -24.808190 3.680000
v 37.128754 -24.744022 3.680000
v 39.454341 -31.609300 3.680000
f 143 144 145 146
f 147 150 149 148
f 143 147 148 144
f 144 148 149 145
f 145 149 150 146
f 147 143 146 150
g floor-band-l01-e13
# materialClass=concrete-painted
# confidence=source-level-count/proxy-detail
# evidenceIds=source:legacy:uplb-virtual-campus-2014,source:news:cinterlabs-2014,source:image:commons-student-union-2023,source:reference:arcgis-uplb-memoirs
# notes=Procedural level break; not a measured facade molding.
v 36.915549 -24.751710 3.520000
v 33.453038 -17.940878 3.520000
v 33.631321 -17.850242 3.520000
v 37.093833 -24.661074 3.520000
v 36.915549 -24.751710 3.680000
v 33.453038 -17.940878 3.680000
v 33.631321 -17.850242 3.680000
v 37.093833 -24.661074 3.680000
f 151 152 153 154
f 155 158 157 156
f 151 155 156 152
f 152 156 157 153
f 153 157 158 154
f 155 151 154 158
g floor-band-l01-e14
# materialClass=concrete-painted
# confidence=source-level-count/proxy-detail
# evidenceIds=source:legacy:uplb-virtual-campus-2014,source:news:cinterlabs-2014,source:image:commons-student-union-2023,source:reference:arcgis-uplb-memoirs
# notes=Procedural level break; not a measured facade molding.
v 33.423895 -17.887748 3.520000
v 29.381956 -11.037534 3.520000
v 29.554206 -10.935898 3.520000
v 33.596146 -17.786113 3.520000
v 33.423895 -17.887748 3.680000
v 29.381956 -11.037534 3.680000
v 29.554206 -10.935898 3.680000
v 33.596146 -17.786113 3.680000
f 159 160 161 162
f 163 166 165 164
f 159 163 164 160
f 160 164 165 161
f 161 165 166 162
f 163 159 162 166
g floor-band-l01-e15
# materialClass=concrete-painted
# confidence=source-level-count/proxy-detail
# evidenceIds=source:legacy:uplb-virtual-campus-2014,source:news:cinterlabs-2014,source:image:commons-student-union-2023,source:reference:arcgis-uplb-memoirs
# notes=Procedural level break; not a measured facade molding.
v 29.348261 -10.986724 3.520000
v 21.496069 -0.397627 3.520000
v 21.656719 -0.278499 3.520000
v 29.508911 -10.867596 3.520000
v 29.348261 -10.986724 3.680000
v 21.496069 -0.397627 3.680000
v 21.656719 -0.278499 3.680000
v 29.508911 -10.867596 3.680000
f 167 168 169 170
f 171 174 173 172
f 167 171 172 168
f 168 172 173 169
f 169 173 174 170
f 171 167 170 174
g floor-band-l01-e16
# materialClass=concrete-painted
# confidence=source-level-count/proxy-detail
# evidenceIds=source:legacy:uplb-virtual-campus-2014,source:news:cinterlabs-2014,source:image:commons-student-union-2023,source:reference:arcgis-uplb-memoirs
# notes=Procedural level break; not a measured facade molding.
v 21.459045 -0.349884 3.520000
v 16.190926 6.149522 3.520000
v 16.346296 6.275458 3.520000
v 21.614416 -0.223947 3.520000
v 21.459045 -0.349884 3.680000
v 16.190926 6.149522 3.680000
v 16.346296 6.275458 3.680000
v 21.614416 -0.223947 3.680000
f 175 176 177 178
f 179 182 181 180
f 175 179 180 176
f 176 180 181 177
f 177 181 182 178
f 179 175 178 182
g floor-band-l01-e17
# materialClass=concrete-painted
# confidence=source-level-count/proxy-detail
# evidenceIds=source:legacy:uplb-virtual-campus-2014,source:news:cinterlabs-2014,source:image:commons-student-union-2023,source:reference:arcgis-uplb-memoirs
# notes=Procedural level break; not a measured facade molding.
v 16.151221 6.195337 3.520000
v 11.115620 11.633377 3.520000
v 11.262367 11.769264 3.520000
v 16.297968 6.331224 3.520000
v 16.151221 6.195337 3.680000
v 11.115620 11.633377 3.680000
v 11.262367 11.769264 3.680000
v 16.297968 6.331224 3.680000
f 183 184 185 186
f 187 190 189 188
f 183 187 188 184
f 184 188 189 185
f 185 189 190 186
f 187 183 186 190
g floor-band-l01-e18
# materialClass=concrete-painted
# confidence=source-level-count/proxy-detail
# evidenceIds=source:legacy:uplb-virtual-campus-2014,source:news:cinterlabs-2014,source:image:commons-student-union-2023,source:reference:arcgis-uplb-memoirs
# notes=Procedural level break; not a measured facade molding.
v 11.073337 11.676665 3.520000
v 4.245921 18.303299 3.520000
v 4.385216 18.446815 3.520000
v 11.212632 11.820181 3.520000
v 11.073337 11.676665 3.680000
v 4.245921 18.303299 3.680000
v 4.385216 18.446815 3.680000
v 11.212632 11.820181 3.680000
f 191 192 193 194
f 195 198 197 196
f 191 195 196 192
f 192 196 197 193
f 193 197 198 194
f 195 191 194 198
g floor-band-l01-e19
# materialClass=concrete-painted
# confidence=source-level-count/proxy-detail
# evidenceIds=source:legacy:uplb-virtual-campus-2014,source:news:cinterlabs-2014,source:image:commons-student-union-2023,source:reference:arcgis-uplb-memoirs
# notes=Procedural level break; not a measured facade molding.
v 4.200902 18.343978 3.520000
v -3.295480 24.646891 3.520000
v -3.166771 24.799972 3.520000
v 4.329612 18.497059 3.520000
v 4.200902 18.343978 3.680000
v -3.295480 24.646891 3.680000
v -3.166771 24.799972 3.680000
v 4.329612 18.497059 3.680000
f 199 200 201 202
f 203 206 205 204
f 199 203 204 200
f 200 204 205 201
f 201 205 206 202
f 203 199 202 206
g floor-band-l01-e20
# materialClass=concrete-painted
# confidence=source-level-count/proxy-detail
# evidenceIds=source:legacy:uplb-virtual-campus-2014,source:news:cinterlabs-2014,source:image:commons-student-union-2023,source:reference:arcgis-uplb-memoirs
# notes=Procedural level break; not a measured facade molding.
v -3.343777 24.683898 3.520000
v -11.113481 30.096950 3.520000
v -10.999154 30.261051 3.520000
v -3.229450 24.847999 3.520000
v -3.343777 24.683898 3.680000
v -11.113481 30.096950 3.680000
v -10.999154 30.261051 3.680000
v -3.229450 24.847999 3.680000
f 207 208 209 210
f 211 214 213 212
f 207 211 212 208
f 208 212 213 209
f 209 213 214 210
f 211 207 210 214
g floor-band-l01-e21
# materialClass=concrete-painted
# confidence=source-level-count/proxy-detail
# evidenceIds=source:legacy:uplb-virtual-campus-2014,source:news:cinterlabs-2014,source:image:commons-student-union-2023,source:reference:arcgis-uplb-memoirs
# notes=Procedural level break; not a measured facade molding.
v -11.164654 30.129676 3.520000
v -19.809012 35.188176 3.520000
v -19.708000 35.360793 3.520000
v -11.063643 30.302293 3.520000
v -11.164654 30.129676 3.680000
v -19.809012 35.188176 3.680000
v -19.708000 35.360793 3.680000
v -11.063643 30.302293 3.680000
f 215 216 217 218
f 219 222 221 220
f 215 219 220 216
f 216 220 221 217
f 217 221 222 218
f 219 215 218 222
g floor-band-l01-e22
# materialClass=concrete-painted
# confidence=source-level-count/proxy-detail
# evidenceIds=source:legacy:uplb-virtual-campus-2014,source:news:cinterlabs-2014,source:image:commons-student-union-2023,source:reference:arcgis-uplb-memoirs
# notes=Procedural level break; not a measured facade molding.
v -19.862097 35.217274 3.520000
v -30.090584 40.456615 3.520000
v -29.999404 40.634621 3.520000
v -19.770917 35.395280 3.520000
v -19.862097 35.217274 3.680000
v -30.090584 40.456615 3.680000
v -29.999404 40.634621 3.680000
v -19.770917 35.395280 3.680000
f 223 224 225 226
f 227 230 229 228
f 223 227 228 224
f 224 228 229 225
f 225 229 230 226
f 227 223 226 230
g floor-band-l02-e00
# materialClass=concrete-painted
# confidence=source-level-count/proxy-detail
# evidenceIds=source:legacy:uplb-virtual-campus-2014,source:news:cinterlabs-2014,source:image:commons-student-union-2023,source:reference:arcgis-uplb-memoirs
# notes=Procedural level break; not a measured facade molding.
v -30.145968 40.440945 7.120000
v -43.211016 18.936628 7.120000
v -43.381942 19.040475 7.120000
v -30.316894 40.544793 7.120000
v -30.145968 40.440945 7.280000
v -43.211016 18.936628 7.280000
v -43.381942 19.040475 7.280000
v -30.316894 40.544793 7.280000
f 231 232 233 234
f 235 238 237 236
f 231 235 236 232
f 232 236 237 233
f 233 237 238 234
f 235 231 234 238
g floor-band-l02-e01
# materialClass=concrete-painted
# confidence=source-level-count/proxy-detail
# evidenceIds=source:legacy:uplb-virtual-campus-2014,source:news:cinterlabs-2014,source:image:commons-student-union-2023,source:reference:arcgis-uplb-memoirs
# notes=Procedural level break; not a measured facade molding.
v -43.197324 18.881910 7.120000
v -36.187056 14.732200 7.120000
v -36.288934 14.560093 7.120000
v -43.299203 18.709803 7.120000
v -43.197324 18.881910 7.280000
v -36.187056 14.732200 7.280000
v -36.288934 14.560093 7.280000
v -43.299203 18.709803 7.280000
f 239 240 241 242
f 243 246 245 244
f 239 243 244 240
f 240 244 245 241
f 241 245 246 242
f 243 239 242 246
g floor-band-l02-e02
# materialClass=concrete-painted
# confidence=source-level-count/proxy-detail
# evidenceIds=source:legacy:uplb-virtual-campus-2014,source:news:cinterlabs-2014,source:image:commons-student-union-2023,source:reference:arcgis-uplb-memoirs
# notes=Procedural level break; not a measured facade molding.
v -36.136316 14.700890 7.120000
v -29.428419 10.389368 7.120000
v -29.536558 10.221124 7.120000
v -36.244455 14.532646 7.120000
v -36.136316 14.700890 7.280000
v -29.428419 10.389368 7.280000
v -29.536558 10.221124 7.280000
v -36.244455 14.532646 7.280000
f 247 248 249 250
f 251 254 253 252
f 247 251 252 248
f 248 252 253 249
f 249 253 254 250
f 251 247 250 254
g floor-band-l02-e03
# materialClass=concrete-painted
# confidence=source-level-count/proxy-detail
# evidenceIds=source:legacy:uplb-virtual-campus-2014,source:news:cinterlabs-2014,source:image:commons-student-union-2023,source:reference:arcgis-uplb-memoirs
# notes=Procedural level break; not a measured facade molding.
v -29.379695 10.355615 7.120000
v -25.197661 7.239379 7.120000
v -25.317163 7.079007 7.120000
v -29.499196 10.195242 7.120000
v -29.379695 10.355615 7.280000
v -25.197661 7.239379 7.280000
v -25.317163 7.079007 7.280000
v -29.499196 10.195242 7.280000
f 255 256 257 258
f 259 262 261 260
f 255 259 260 256
f 256 260 261 257
f 257 261 262 258
f 259 255 258 262
g floor-band-l02-e04
# materialClass=concrete-painted
# confidence=source-level-count/proxy-detail
# evidenceIds=source:legacy:uplb-virtual-campus-2014,source:news:cinterlabs-2014,source:image:commons-student-union-2023,source:reference:arcgis-uplb-memoirs
# notes=Procedural level break; not a measured facade molding.
v -25.151017 7.202566 7.120000
v -21.173621 3.880265 7.120000
v -21.301836 3.726769 7.120000
v -25.279231 7.049070 7.120000
v -25.151017 7.202566 7.280000
v -21.173621 3.880265 7.280000
v -21.301836 3.726769 7.280000
v -25.279231 7.049070 7.280000
f 263 264 265 266
f 267 270 269 268
f 263 267 268 264
f 264 268 269 265
f 265 269 270 266
f 267 263 266 270
g floor-band-l02-e05
# materialClass=concrete-painted
# confidence=source-level-count/proxy-detail
# evidenceIds=source:legacy:uplb-virtual-campus-2014,source:news:cinterlabs-2014,source:image:commons-student-union-2023,source:reference:arcgis-uplb-memoirs
# notes=Procedural level break; not a measured facade molding.
v -21.128072 3.841498 7.120000
v -13.772022 -2.537120 7.120000
v -13.903047 -2.688224 7.120000
v -21.259098 3.690395 7.120000
v -21.128072 3.841498 7.280000
v -13.772022 -2.537120 7.280000
v -13.903047 -2.688224 7.280000
v -21.259098 3.690395 7.280000
f 271 272 273 274
f 275 278 277 276
f 271 275 276 272
f 272 276 277 273
f 273 277 278 274
f 275 271 274 278
g floor-band-l02-e06
# materialClass=concrete-painted
# confidence=source-level-count/proxy-detail
# evidenceIds=source:legacy:uplb-virtual-campus-2014,source:news:cinterlabs-2014,source:image:commons-student-union-2023,source:reference:arcgis-uplb-memoirs
# notes=Procedural level break; not a measured facade molding.
v -13.729378 -2.577850 7.120000
v -7.782774 -8.831026 7.120000
v -7.927704 -8.968850 7.120000
v -13.874307 -2.715674 7.120000
v -13.729378 -2.577850 7.280000
v -7.782774 -8.831026 7.280000
v -7.927704 -8.968850 7.280000
v -13.874307 -2.715674 7.280000
f 279 280 281 282
f 283 286 285 284
f 279 283 284 280
f 280 284 285 281
f 281 285 286 282
f 283 279 282 286
g floor-band-l02-e07
# materialClass=concrete-painted
# confidence=source-level-count/proxy-detail
# evidenceIds=source:legacy:uplb-virtual-campus-2014,source:news:cinterlabs-2014,source:image:commons-student-union-2023,source:reference:arcgis-uplb-memoirs
# notes=Procedural level break; not a measured facade molding.
v -7.741738 -8.874649 7.120000
v -0.285567 -16.886970 7.120000
v -0.431978 -17.023219 7.120000
v -7.888149 -9.010897 7.120000
v -7.741738 -8.874649 7.280000
v -0.285567 -16.886970 7.280000
v -0.431978 -17.023219 7.280000
v -7.888149 -9.010897 7.280000
f 287 288 289 290
f 291 294 293 292
f 287 291 292 288
f 288 292 293 289
f 289 293 294 290
f 291 287 290 294
g floor-band-l02-e08
# materialClass=concrete-painted
# confidence=source-level-count/proxy-detail
# evidenceIds=source:legacy:uplb-virtual-campus-2014,source:news:cinterlabs-2014,source:image:commons-student-union-2023,source:reference:arcgis-uplb-memoirs
# notes=Procedural level break; not a measured facade molding.
v -0.247919 -16.932156 7.120000
v 4.975069 -23.949740 7.120000
v 4.814629 -24.069151 7.120000
v -0.408360 -17.051567 7.120000
v -0.247919 -16.932156 7.280000
v 4.975069 -23.949740 7.280000
v 4.814629 -24.069151 7.280000
v -0.408360 -17.051567 7.280000
f 295 296 297 298
f 299 302 301 300
f 295 299 300 296
f 296 300 301 297
f 297 301 302 298
f 299 295 298 302
g floor-band-l02-e09
# materialClass=concrete-painted
# confidence=source-level-count/proxy-detail
# evidenceIds=source:legacy:uplb-virtual-campus-2014,source:news:cinterlabs-2014,source:image:commons-student-union-2023,source:reference:arcgis-uplb-memoirs
# notes=Procedural level break; not a measured facade molding.
v 5.008797 -23.998483 7.120000
v 10.130800 -31.975571 7.120000
v 9.962505 -32.083631 7.120000
v 4.840503 -24.106543 7.120000
v 5.008797 -23.998483 7.280000
v 10.130800 -31.975571 7.280000
v 9.962505 -32.083631 7.280000
v 4.840503 -24.106543 7.280000
f 303 304 305 306
f 307 310 309 308
f 303 307 308 304
f 304 308 309 305
f 305 309 310 306
f 307 303 306 310
g floor-band-l02-e10
# materialClass=concrete-painted
# confidence=source-level-count/proxy-detail
# evidenceIds=source:legacy:uplb-virtual-campus-2014,source:news:cinterlabs-2014,source:image:commons-student-union-2023,source:reference:arcgis-uplb-memoirs
# notes=Procedural level break; not a measured facade molding.
v 10.161408 -32.026464 7.120000
v 16.247499 -42.852634 7.120000
v 16.073158 -42.950642 7.120000
v 9.987068 -32.124472 7.120000
v 10.161408 -32.026464 7.280000
v 16.247499 -42.852634 7.280000
v 16.073158 -42.950642 7.280000
v 9.987068 -32.124472 7.280000
f 311 312 313 314
f 315 318 317 316
f 311 315 316 312
f 312 316 317 313
f 313 317 318 314
f 315 311 314 318
g floor-band-l02-e11
# materialClass=concrete-painted
# confidence=source-level-count/proxy-detail
# evidenceIds=source:legacy:uplb-virtual-campus-2014,source:news:cinterlabs-2014,source:image:commons-student-union-2023,source:reference:arcgis-uplb-memoirs
# notes=Procedural level break; not a measured facade molding.
v 16.302271 -42.869773 7.120000
v 39.242452 -31.727193 7.120000
v 39.329834 -31.907094 7.120000
v 16.389653 -43.049674 7.120000
v 16.302271 -42.869773 7.280000
v 39.242452 -31.727193 7.280000
v 39.329834 -31.907094 7.280000
v 16.389653 -43.049674 7.280000
f 319 320 321 322
f 323 326 325 324
f 319 323 324 320
f 320 324 325 321
f 321 325 326 322
f 323 319 322 326
g floor-band-l02-e12
# materialClass=concrete-painted
# confidence=source-level-count/proxy-detail
# evidenceIds=source:legacy:uplb-virtual-campus-2014,source:news:cinterlabs-2014,source:image:commons-student-union-2023,source:reference:arcgis-uplb-memoirs
# notes=Procedural level break; not a measured facade molding.
v 39.264914 -31.673468 7.120000
v 36.939327 -24.808190 7.120000
v 37.128754 -24.744022 7.120000
v 39.454341 -31.609300 7.120000
v 39.264914 -31.673468 7.280000
v 36.939327 -24.808190 7.280000
v 37.128754 -24.744022 7.280000
v 39.454341 -31.609300 7.280000
f 327 328 329 330
f 331 334 333 332
f 327 331 332 328
f 328 332 333 329
f 329 333 334 330
f 331 327 330 334
g floor-band-l02-e13
# materialClass=concrete-painted
# confidence=source-level-count/proxy-detail
# evidenceIds=source:legacy:uplb-virtual-campus-2014,source:news:cinterlabs-2014,source:image:commons-student-union-2023,source:reference:arcgis-uplb-memoirs
# notes=Procedural level break; not a measured facade molding.
v 36.915549 -24.751710 7.120000
v 33.453038 -17.940878 7.120000
v 33.631321 -17.850242 7.120000
v 37.093833 -24.661074 7.120000
v 36.915549 -24.751710 7.280000
v 33.453038 -17.940878 7.280000
v 33.631321 -17.850242 7.280000
v 37.093833 -24.661074 7.280000
f 335 336 337 338
f 339 342 341 340
f 335 339 340 336
f 336 340 341 337
f 337 341 342 338
f 339 335 338 342
g floor-band-l02-e14
# materialClass=concrete-painted
# confidence=source-level-count/proxy-detail
# evidenceIds=source:legacy:uplb-virtual-campus-2014,source:news:cinterlabs-2014,source:image:commons-student-union-2023,source:reference:arcgis-uplb-memoirs
# notes=Procedural level break; not a measured facade molding.
v 33.423895 -17.887748 7.120000
v 29.381956 -11.037534 7.120000
v 29.554206 -10.935898 7.120000
v 33.596146 -17.786113 7.120000
v 33.423895 -17.887748 7.280000
v 29.381956 -11.037534 7.280000
v 29.554206 -10.935898 7.280000
v 33.596146 -17.786113 7.280000
f 343 344 345 346
f 347 350 349 348
f 343 347 348 344
f 344 348 349 345
f 345 349 350 346
f 347 343 346 350
g floor-band-l02-e15
# materialClass=concrete-painted
# confidence=source-level-count/proxy-detail
# evidenceIds=source:legacy:uplb-virtual-campus-2014,source:news:cinterlabs-2014,source:image:commons-student-union-2023,source:reference:arcgis-uplb-memoirs
# notes=Procedural level break; not a measured facade molding.
v 29.348261 -10.986724 7.120000
v 21.496069 -0.397627 7.120000
v 21.656719 -0.278499 7.120000
v 29.508911 -10.867596 7.120000
v 29.348261 -10.986724 7.280000
v 21.496069 -0.397627 7.280000
v 21.656719 -0.278499 7.280000
v 29.508911 -10.867596 7.280000
f 351 352 353 354
f 355 358 357 356
f 351 355 356 352
f 352 356 357 353
f 353 357 358 354
f 355 351 354 358
g floor-band-l02-e16
# materialClass=concrete-painted
# confidence=source-level-count/proxy-detail
# evidenceIds=source:legacy:uplb-virtual-campus-2014,source:news:cinterlabs-2014,source:image:commons-student-union-2023,source:reference:arcgis-uplb-memoirs
# notes=Procedural level break; not a measured facade molding.
v 21.459045 -0.349884 7.120000
v 16.190926 6.149522 7.120000
v 16.346296 6.275458 7.120000
v 21.614416 -0.223947 7.120000
v 21.459045 -0.349884 7.280000
v 16.190926 6.149522 7.280000
v 16.346296 6.275458 7.280000
v 21.614416 -0.223947 7.280000
f 359 360 361 362
f 363 366 365 364
f 359 363 364 360
f 360 364 365 361
f 361 365 366 362
f 363 359 362 366
g floor-band-l02-e17
# materialClass=concrete-painted
# confidence=source-level-count/proxy-detail
# evidenceIds=source:legacy:uplb-virtual-campus-2014,source:news:cinterlabs-2014,source:image:commons-student-union-2023,source:reference:arcgis-uplb-memoirs
# notes=Procedural level break; not a measured facade molding.
v 16.151221 6.195337 7.120000
v 11.115620 11.633377 7.120000
v 11.262367 11.769264 7.120000
v 16.297968 6.331224 7.120000
v 16.151221 6.195337 7.280000
v 11.115620 11.633377 7.280000
v 11.262367 11.769264 7.280000
v 16.297968 6.331224 7.280000
f 367 368 369 370
f 371 374 373 372
f 367 371 372 368
f 368 372 373 369
f 369 373 374 370
f 371 367 370 374
g floor-band-l02-e18
# materialClass=concrete-painted
# confidence=source-level-count/proxy-detail
# evidenceIds=source:legacy:uplb-virtual-campus-2014,source:news:cinterlabs-2014,source:image:commons-student-union-2023,source:reference:arcgis-uplb-memoirs
# notes=Procedural level break; not a measured facade molding.
v 11.073337 11.676665 7.120000
v 4.245921 18.303299 7.120000
v 4.385216 18.446815 7.120000
v 11.212632 11.820181 7.120000
v 11.073337 11.676665 7.280000
v 4.245921 18.303299 7.280000
v 4.385216 18.446815 7.280000
v 11.212632 11.820181 7.280000
f 375 376 377 378
f 379 382 381 380
f 375 379 380 376
f 376 380 381 377
f 377 381 382 378
f 379 375 378 382
g floor-band-l02-e19
# materialClass=concrete-painted
# confidence=source-level-count/proxy-detail
# evidenceIds=source:legacy:uplb-virtual-campus-2014,source:news:cinterlabs-2014,source:image:commons-student-union-2023,source:reference:arcgis-uplb-memoirs
# notes=Procedural level break; not a measured facade molding.
v 4.200902 18.343978 7.120000
v -3.295480 24.646891 7.120000
v -3.166771 24.799972 7.120000
v 4.329612 18.497059 7.120000
v 4.200902 18.343978 7.280000
v -3.295480 24.646891 7.280000
v -3.166771 24.799972 7.280000
v 4.329612 18.497059 7.280000
f 383 384 385 386
f 387 390 389 388
f 383 387 388 384
f 384 388 389 385
f 385 389 390 386
f 387 383 386 390
g floor-band-l02-e20
# materialClass=concrete-painted
# confidence=source-level-count/proxy-detail
# evidenceIds=source:legacy:uplb-virtual-campus-2014,source:news:cinterlabs-2014,source:image:commons-student-union-2023,source:reference:arcgis-uplb-memoirs
# notes=Procedural level break; not a measured facade molding.
v -3.343777 24.683898 7.120000
v -11.113481 30.096950 7.120000
v -10.999154 30.261051 7.120000
v -3.229450 24.847999 7.120000
v -3.343777 24.683898 7.280000
v -11.113481 30.096950 7.280000
v -10.999154 30.261051 7.280000
v -3.229450 24.847999 7.280000
f 391 392 393 394
f 395 398 397 396
f 391 395 396 392
f 392 396 397 393
f 393 397 398 394
f 395 391 394 398
g floor-band-l02-e21
# materialClass=concrete-painted
# confidence=source-level-count/proxy-detail
# evidenceIds=source:legacy:uplb-virtual-campus-2014,source:news:cinterlabs-2014,source:image:commons-student-union-2023,source:reference:arcgis-uplb-memoirs
# notes=Procedural level break; not a measured facade molding.
v -11.164654 30.129676 7.120000
v -19.809012 35.188176 7.120000
v -19.708000 35.360793 7.120000
v -11.063643 30.302293 7.120000
v -11.164654 30.129676 7.280000
v -19.809012 35.188176 7.280000
v -19.708000 35.360793 7.280000
v -11.063643 30.302293 7.280000
f 399 400 401 402
f 403 406 405 404
f 399 403 404 400
f 400 404 405 401
f 401 405 406 402
f 403 399 402 406
g floor-band-l02-e22
# materialClass=concrete-painted
# confidence=source-level-count/proxy-detail
# evidenceIds=source:legacy:uplb-virtual-campus-2014,source:news:cinterlabs-2014,source:image:commons-student-union-2023,source:reference:arcgis-uplb-memoirs
# notes=Procedural level break; not a measured facade molding.
v -19.862097 35.217274 7.120000
v -30.090584 40.456615 7.120000
v -29.999404 40.634621 7.120000
v -19.770917 35.395280 7.120000
v -19.862097 35.217274 7.280000
v -30.090584 40.456615 7.280000
v -29.999404 40.634621 7.280000
v -19.770917 35.395280 7.280000
f 407 408 409 410
f 411 414 413 412
f 407 411 412 408
f 408 412 413 409
f 409 413 414 410
f 411 407 410 414
g front-glass-b01
# materialClass=painted-metal-glass
# confidence=medium-visual/provisional-edge
# evidenceIds=source:legacy:uplb-virtual-campus-2014,source:news:cinterlabs-2014,source:image:commons-student-union-2023,source:reference:arcgis-uplb-memoirs
# notes=Visual/source-informed glass-panel proxy; exact grid and entrance placement remain unresolved.
v 18.477666 -41.835367 2.000000
v 20.988627 -40.615735 2.000000
v 21.032318 -40.705685 2.000000
v 18.521357 -41.925318 2.000000
v 18.477666 -41.835367 8.800000
v 20.988627 -40.615735 8.800000
v 21.032318 -40.705685 8.800000
v 18.521357 -41.925318 8.800000
f 415 416 417 418
f 419 422 421 420
f 415 419 420 416
f 416 420 421 417
f 417 421 422 418
f 419 415 418 422
g front-glass-b02
# materialClass=painted-metal-glass
# confidence=medium-visual/provisional-edge
# evidenceIds=source:legacy:uplb-virtual-campus-2014,source:news:cinterlabs-2014,source:image:commons-student-union-2023,source:reference:arcgis-uplb-memoirs
# notes=Visual/source-informed glass-panel proxy; exact grid and entrance placement remain unresolved.
v 21.696847 -40.271736 2.000000
v 24.207808 -39.052103 2.000000
v 24.251499 -39.142054 2.000000
v 21.740538 -40.361686 2.000000
v 21.696847 -40.271736 8.800000
v 24.207808 -39.052103 8.800000
v 24.251499 -39.142054 8.800000
v 21.740538 -40.361686 8.800000
f 423 424 425 426
f 427 430 429 428
f 423 427 428 424
f 424 428 429 425
f 425 429 430 426
f 427 423 426 430
g front-glass-b03
# materialClass=painted-metal-glass
# confidence=medium-visual/provisional-edge
# evidenceIds=source:legacy:uplb-virtual-campus-2014,source:news:cinterlabs-2014,source:image:commons-student-union-2023,source:reference:arcgis-uplb-memoirs
# notes=Visual/source-informed glass-panel proxy; exact grid and entrance placement remain unresolved.
v 24.916028 -38.708105 2.000000
v 27.426990 -37.488472 2.000000
v 27.470681 -37.578423 2.000000
v 24.959719 -38.798055 2.000000
v 24.916028 -38.708105 8.800000
v 27.426990 -37.488472 8.800000
v 27.470681 -37.578423 8.800000
v 24.959719 -38.798055 8.800000
f 431 432 433 434
f 435 438 437 436
f 431 435 436 432
f 432 436 437 433
f 433 437 438 434
f 435 431 434 438
g front-glass-b04
# materialClass=painted-metal-glass
# confidence=medium-visual/provisional-edge
# evidenceIds=source:legacy:uplb-virtual-campus-2014,source:news:cinterlabs-2014,source:image:commons-student-union-2023,source:reference:arcgis-uplb-memoirs
# notes=Visual/source-informed glass-panel proxy; exact grid and entrance placement remain unresolved.
v 28.135209 -37.144473 2.000000
v 30.646171 -35.924841 2.000000
v 30.689862 -36.014792 2.000000
v 28.178900 -37.234424 2.000000
v 28.135209 -37.144473 8.800000
v 30.646171 -35.924841 8.800000
v 30.689862 -36.014792 8.800000
v 28.178900 -37.234424 8.800000
f 439 440 441 442
f 443 446 445 444
f 439 443 444 440
f 440 444 445 441
f 441 445 446 442
f 443 439 442 446
g front-glass-b05
# materialClass=painted-metal-glass
# confidence=medium-visual/provisional-edge
# evidenceIds=source:legacy:uplb-virtual-campus-2014,source:news:cinterlabs-2014,source:image:commons-student-union-2023,source:reference:arcgis-uplb-memoirs
# notes=Visual/source-informed glass-panel proxy; exact grid and entrance placement remain unresolved.
v 31.354390 -35.580842 2.000000
v 33.865352 -34.361210 2.000000
v 33.909043 -34.451160 2.000000
v 31.398082 -35.670793 2.000000
v 31.354390 -35.580842 8.800000
v 33.865352 -34.361210 8.800000
v 33.909043 -34.451160 8.800000
v 31.398082 -35.670793 8.800000
f 447 448 449 450
f 451 454 453 452
f 447 451 452 448
f 448 452 453 449
f 449 453 454 450
f 451 447 450 454
g front-glass-b06
# materialClass=painted-metal-glass
# confidence=medium-visual/provisional-edge
# evidenceIds=source:legacy:uplb-virtual-campus-2014,source:news:cinterlabs-2014,source:image:commons-student-union-2023,source:reference:arcgis-uplb-memoirs
# notes=Visual/source-informed glass-panel proxy; exact grid and entrance placement remain unresolved.
v 34.573572 -34.017211 2.000000
v 37.084533 -32.797579 2.000000
v 37.128224 -32.887529 2.000000
v 34.617263 -34.107161 2.000000
v 34.573572 -34.017211 8.800000
v 37.084533 -32.797579 8.800000
v 37.128224 -32.887529 8.800000
v 34.617263 -34.107161 8.800000
f 455 456 457 458
f 459 462 461 460
f 455 459 460 456
f 456 460 461 457
f 457 461 462 458
f 459 455 458 462
g front-support-01
# materialClass=concrete-painted
# confidence=medium-visual/provisional-edge
# evidenceIds=source:legacy:uplb-virtual-campus-2014,source:news:cinterlabs-2014,source:image:commons-student-union-2023,source:reference:arcgis-uplb-memoirs
# notes=Modernist frame proxy; placement follows deterministic provisional facade edge.
v 17.950722 -42.063523 0.175000
v 18.274544 -41.906235 0.175000
v 18.348819 -42.059151 0.175000
v 18.024997 -42.216439 0.175000
v 17.950722 -42.063523 10.625000
v 18.274544 -41.906235 10.625000
v 18.348819 -42.059151 10.625000
v 18.024997 -42.216439 10.625000
f 463 464 465 466
f 467 470 469 468
f 463 467 468 464
f 464 468 469 465
f 465 469 470 466
f 467 463 466 470
g front-support-02
# materialClass=concrete-painted
# confidence=medium-visual/provisional-edge
# evidenceIds=source:legacy:uplb-virtual-campus-2014,source:news:cinterlabs-2014,source:image:commons-student-union-2023,source:reference:arcgis-uplb-memoirs
# notes=Modernist frame proxy; placement follows deterministic provisional facade edge.
v 21.169904 -40.499892 0.175000
v 21.493725 -40.342604 0.175000
v 21.568000 -40.495520 0.175000
v 21.244178 -40.652807 0.175000
v 21.169904 -40.499892 10.625000
v 21.493725 -40.342604 10.625000
v 21.568000 -40.495520 10.625000
v 21.244178 -40.652807 10.625000
f 471 472 473 474
f 475 478 477 476
f 471 475 476 472
f 472 476 477 473
f 473 477 478 474
f 475 471 474 478
g front-support-03
# materialClass=concrete-painted
# confidence=medium-visual/provisional-edge
# evidenceIds=source:legacy:uplb-virtual-campus-2014,source:news:cinterlabs-2014,source:image:commons-student-union-2023,source:reference:arcgis-uplb-memoirs
# notes=Modernist frame proxy; placement follows deterministic provisional facade edge.
v 24.389085 -38.936260 0.175000
v 24.712906 -38.778973 0.175000
v 24.787181 -38.931888 0.175000
v 24.463359 -39.089176 0.175000
v 24.389085 -38.936260 10.625000
v 24.712906 -38.778973 10.625000
v 24.787181 -38.931888 10.625000
v 24.463359 -39.089176 10.625000
f 479 480 481 482
f 483 486 485 484
f 479 483 484 480
f 480 484 485 481
f 481 485 486 482
f 483 479 482 486
g front-support-04
# materialClass=concrete-painted
# confidence=medium-visual/provisional-edge
# evidenceIds=source:legacy:uplb-virtual-campus-2014,source:news:cinterlabs-2014,source:image:commons-student-union-2023,source:reference:arcgis-uplb-memoirs
# notes=Modernist frame proxy; placement follows deterministic provisional facade edge.
v 27.608266 -37.372629 0.175000
v 27.932088 -37.215341 0.175000
v 28.006362 -37.368257 0.175000
v 27.682541 -37.525545 0.175000
v 27.608266 -37.372629 10.625000
v 27.932088 -37.215341 10.625000
v 28.006362 -37.368257 10.625000
v 27.682541 -37.525545 10.625000
f 487 488 489 490
f 491 494 493 492
f 487 491 492 488
f 488 492 493 489
f 489 493 494 490
f 491 487 490 494
g front-support-05
# materialClass=concrete-painted
# confidence=medium-visual/provisional-edge
# evidenceIds=source:legacy:uplb-virtual-campus-2014,source:news:cinterlabs-2014,source:image:commons-student-union-2023,source:reference:arcgis-uplb-memoirs
# notes=Modernist frame proxy; placement follows deterministic provisional facade edge.
v 30.827447 -35.808998 0.175000
v 31.151269 -35.651710 0.175000
v 31.225543 -35.804626 0.175000
v 30.901722 -35.961914 0.175000
v 30.827447 -35.808998 10.625000
v 31.151269 -35.651710 10.625000
v 31.225543 -35.804626 10.625000
v 30.901722 -35.961914 10.625000
f 495 496 497 498
f 499 502 501 500
f 495 499 500 496
f 496 500 501 497
f 497 501 502 498
f 499 495 498 502
g front-support-06
# materialClass=concrete-painted
# confidence=medium-visual/provisional-edge
# evidenceIds=source:legacy:uplb-virtual-campus-2014,source:news:cinterlabs-2014,source:image:commons-student-union-2023,source:reference:arcgis-uplb-memoirs
# notes=Modernist frame proxy; placement follows deterministic provisional facade edge.
v 34.046628 -34.245367 0.175000
v 34.370450 -34.088079 0.175000
v 34.444725 -34.240995 0.175000
v 34.120903 -34.398282 0.175000
v 34.046628 -34.245367 10.625000
v 34.370450 -34.088079 10.625000
v 34.444725 -34.240995 10.625000
v 34.120903 -34.398282 10.625000
f 503 504 505 506
f 507 510 509 508
f 503 507 508 504
f 504 508 509 505
f 505 509 510 506
f 507 503 506 510
g front-support-07
# materialClass=concrete-painted
# confidence=medium-visual/provisional-edge
# evidenceIds=source:legacy:uplb-virtual-campus-2014,source:news:cinterlabs-2014,source:image:commons-student-union-2023,source:reference:arcgis-uplb-memoirs
# notes=Modernist frame proxy; placement follows deterministic provisional facade edge.
v 37.265809 -32.681735 0.175000
v 37.589631 -32.524448 0.175000
v 37.663906 -32.677363 0.175000
v 37.340084 -32.834651 0.175000
v 37.265809 -32.681735 10.625000
v 37.589631 -32.524448 10.625000
v 37.663906 -32.677363 10.625000
v 37.340084 -32.834651 10.625000
f 511 512 513 514
f 515 518 517 516
f 511 515 516 512
f 512 516 517 513
f 513 517 518 514
f 515 511 514 518
