# Generated by tools.modeling.assembly
# featureId=uplb:building:dean-edelwina-legaspi-hall
# version=dean-legaspi-hall.v0.1-reference-production
# identityStatus=proposed-candidate
# sourceFeatureId=candidate:osm:way/33541786
o uplb_building_dean-edelwina-legaspi-hall
g body-source-footprint
# materialClass=concrete-painted
# confidence=source-supported-footprint/medium-height
# evidenceIds=source:reference:arcgis-uplb-memoirs,source:osmwiki:uplb-mapping
# notes=Footprint comes from the pinned project candidate snapshot. Production ID is not a canonical promotion.
v -1.197988 -28.643619 0.000000
v 24.293944 -15.513016 0.000000
v 24.293944 -15.513016 9.000000
v -1.197988 -28.643619 9.000000
v 16.141372 0.127611 0.000000
v 16.141372 0.127611 9.000000
v 12.553899 -1.715402 0.000000
v 12.553899 -1.715402 9.000000
v 9.393008 4.360846 0.000000
v 9.393008 4.360846 9.000000
v 5.678466 11.470291 0.000000
v 5.678466 11.470291 9.000000
v 8.593936 12.964276 0.000000
v 8.593936 12.964276 9.000000
v 0.483903 28.516072 0.000000
v 0.483903 28.516072 9.000000
v -24.314327 15.745425 0.000000
v -24.314327 15.745425 9.000000
v -20.450814 8.347168 0.000000
v -20.450814 8.347168 9.000000
v -14.905751 -2.283611 0.000000
v -14.905751 -2.283611 9.000000
v -8.803746 0.857227 0.000000
v -8.803746 0.857227 9.000000
v -3.429081 -9.462451 0.000000
v -3.429081 -9.462451 9.000000
v -9.552846 -12.625256 0.000000
v -9.552846 -12.625256 9.000000
v -5.529797 -20.345590 0.000000
v -5.529797 -20.345590 9.000000
f 1 2 3 4
f 2 5 6 3
f 5 7 8 6
f 7 9 10 8
f 9 11 12 10
f 11 13 14 12
f 13 15 16 14
f 15 17 18 16
f 17 19 20 18
f 19 21 22 20
f 21 23 24 22
f 23 25 26 24
f 25 27 28 26
f 27 29 30 28
f 29 1 4 30
f 27 29 25
f 26 30 28
f 19 21 23
f 24 22 20
f 15 17 19
f 20 18 16
f 11 13 15
f 16 14 12
f 7 9 25
f 26 10 8
f 2 5 7
f 8 6 3
f 1 2 29
f 30 3 4
f 15 19 11
f 12 20 16
f 29 2 25
f 26 3 30
f 23 11 19
f 20 12 24
f 7 25 2
f 3 26 8
f 11 23 9
f 10 24 12
f 25 9 23
f 24 10 26
g floor-band-l01-e00
# materialClass=concrete-painted
# confidence=source-level-count/proxy-detail
# evidenceIds=source:reference:arcgis-uplb-memoirs,source:osmwiki:uplb-mapping
# notes=Procedural level break; not a measured facade molding.
v -1.166739 -28.638771 3.520000
v 24.271854 -15.535643 3.520000
v 24.354278 -15.695663 3.520000
v -1.084315 -28.798791 3.520000
v -1.166739 -28.638771 3.680000
v 24.271854 -15.535643 3.680000
v 24.354278 -15.695663 3.680000
v -1.084315 -28.798791 3.680000
f 31 32 33 34
f 35 38 37 36
f 31 35 36 32
f 32 36 37 33
f 33 37 38 34
f 35 31 34 38
g floor-band-l01-e01
# materialClass=concrete-painted
# confidence=source-level-count/proxy-detail
# evidenceIds=source:reference:arcgis-uplb-memoirs,source:osmwiki:uplb-mapping
# notes=Procedural level break; not a measured facade molding.
v 24.288945 -15.481791 3.520000
v 16.164106 0.105630 3.520000
v 16.323724 0.188830 3.520000
v 24.448563 -15.398591 3.520000
v 24.288945 -15.481791 3.680000
v 16.164106 0.105630 3.680000
v 16.323724 0.188830 3.680000
v 24.448563 -15.398591 3.680000
f 39 40 41 42
f 43 46 45 44
f 39 43 44 40
f 40 44 45 41
f 41 45 46 42
f 43 39 42 46
g floor-band-l01-e02
# materialClass=concrete-painted
# confidence=source-level-count/proxy-detail
# evidenceIds=source:reference:arcgis-uplb-memoirs,source:osmwiki:uplb-mapping
# notes=Procedural level break; not a measured facade molding.
v 16.110118 0.122797 3.520000
v 12.576014 -1.692799 3.520000
v 12.493761 -1.532691 3.520000
v 16.027865 0.282904 3.520000
v 16.110118 0.122797 3.680000
v 12.576014 -1.692799 3.680000
v 12.493761 -1.532691 3.680000
v 16.027865 0.282904 3.680000
f 47 48 49 50
f 51 54 53 52
f 47 51 52 48
f 48 52 53 49
f 49 53 54 50
f 51 47 50 54
g floor-band-l01-e03
# materialClass=concrete-painted
# confidence=source-level-count/proxy-detail
# evidenceIds=source:reference:arcgis-uplb-memoirs,source:osmwiki:uplb-mapping
# notes=Procedural level break; not a measured facade molding.
v 12.548926 -1.684173 3.520000
v 9.415724 4.338847 3.520000
v 9.575410 4.421916 3.520000
v 12.708611 -1.601104 3.520000
v 12.548926 -1.684173 3.680000
v 9.415724 4.338847 3.680000
v 9.575410 4.421916 3.680000
v 12.708611 -1.601104 3.680000
f 55 56 57 58
f 59 62 61 60
f 55 59 60 56
f 56 60 61 57
f 57 61 62 58
f 59 55 58 62
g floor-band-l01-e04
# materialClass=concrete-painted
# confidence=source-level-count/proxy-detail
# evidenceIds=source:reference:arcgis-uplb-memoirs,source:osmwiki:uplb-mapping
# notes=Procedural level break; not a measured facade molding.
v 9.387979 4.392067 3.520000
v 5.701222 11.448332 3.520000
v 5.860759 11.531687 3.520000
v 9.547515 4.475421 3.520000
v 9.387979 4.392067 3.680000
v 5.701222 11.448332 3.680000
v 5.860759 11.531687 3.680000
v 9.547515 4.475421 3.680000
f 63 64 65 66
f 67 70 69 68
f 63 67 68 64
f 64 68 69 65
f 65 69 70 66
f 67 63 66 70
g floor-band-l01-e05
# materialClass=concrete-painted
# confidence=source-level-count/proxy-detail
# evidenceIds=source:reference:arcgis-uplb-memoirs,source:osmwiki:uplb-mapping
# notes=Procedural level break; not a measured facade molding.
v 5.709726 11.475073 3.520000
v 8.571798 12.941695 3.520000
v 8.653886 12.781503 3.520000
v 5.791814 11.314881 3.520000
v 5.709726 11.475073 3.680000
v 8.571798 12.941695 3.680000
v 8.653886 12.781503 3.680000
v 5.791814 11.314881 3.680000
f 71 72 73 74
f 75 78 77 76
f 71 75 76 72
f 72 76 77 73
f 73 77 78 74
f 75 71 74 78
g floor-band-l01-e06
# materialClass=concrete-painted
# confidence=source-level-count/proxy-detail
# evidenceIds=source:reference:arcgis-uplb-memoirs,source:osmwiki:uplb-mapping
# notes=Procedural level break; not a measured facade molding.
v 8.588931 12.995500 3.520000
v 0.506641 28.494095 3.520000
v 0.666243 28.577325 3.520000
v 8.748533 13.078730 3.520000
v 8.588931 12.995500 3.680000
v 0.506641 28.494095 3.680000
v 0.666243 28.577325 3.680000
v 8.748533 13.078730 3.680000
f 79 80 81 82
f 83 86 85 84
f 79 83 84 80
f 80 84 85 81
f 81 85 86 82
f 83 79 82 86
g floor-band-l01-e07
# materialClass=concrete-painted
# confidence=source-level-count/proxy-detail
# evidenceIds=source:reference:arcgis-uplb-memoirs,source:osmwiki:uplb-mapping
# notes=Procedural level break; not a measured facade molding.
v 0.452653 28.511227 3.520000
v -24.292234 15.768051 3.520000
v -24.374645 15.928077 3.520000
v 0.370242 28.671253 3.520000
v 0.452653 28.511227 3.680000
v -24.292234 15.768051 3.680000
v -24.374645 15.928077 3.680000
v 0.370242 28.671253 3.680000
f 87 88 89 90
f 91 94 93 92
f 87 91 92 88
f 88 92 93 89
f 89 93 94 90
f 91 87 90 94
g floor-band-l01-e08
# materialClass=concrete-painted
# confidence=source-level-count/proxy-detail
# evidenceIds=source:reference:arcgis-uplb-memoirs,source:osmwiki:uplb-mapping
# notes=Procedural level break; not a measured facade molding.
v -24.309304 15.714204 3.520000
v -20.473565 8.369131 3.520000
v -20.633119 8.285809 3.520000
v -24.468858 15.630882 3.520000
v -24.309304 15.714204 3.680000
v -20.473565 8.369131 3.680000
v -20.633119 8.285809 3.680000
v -24.468858 15.630882 3.680000
f 95 96 97 98
f 99 102 101 100
f 95 99 100 96
f 96 100 101 97
f 97 101 102 98
f 99 95 98 102
g floor-band-l01-e09
# materialClass=concrete-painted
# confidence=source-level-count/proxy-detail
# evidenceIds=source:reference:arcgis-uplb-memoirs,source:osmwiki:uplb-mapping
# notes=Procedural level break; not a measured facade molding.
v -20.445806 8.315944 3.520000
v -14.928491 -2.261636 3.520000
v -15.088085 -2.344881 3.520000
v -20.605400 8.232699 3.520000
v -20.445806 8.315944 3.680000
v -14.928491 -2.261636 3.680000
v -15.088085 -2.344881 3.680000
v -20.605400 8.232699 3.680000
f 103 104 105 106
f 107 110 109 108
f 103 107 108 104
f 104 108 109 105
f 105 109 110 106
f 107 103 106 110
g floor-band-l01-e10
# materialClass=concrete-painted
# confidence=source-level-count/proxy-detail
# evidenceIds=source:reference:arcgis-uplb-memoirs,source:osmwiki:uplb-mapping
# notes=Procedural level break; not a measured facade molding.
v -14.874500 -2.278772 3.520000
v -8.825843 0.834606 3.520000
v -8.743465 0.674562 3.520000
v -14.792122 -2.438816 3.520000
v -14.874500 -2.278772 3.680000
v -8.825843 0.834606 3.680000
v -8.743465 0.674562 3.680000
v -14.792122 -2.438816 3.680000
f 111 112 113 114
f 115 118 117 116
f 111 115 116 112
f 112 116 117 113
f 113 117 118 114
f 115 111 114 118
g floor-band-l01-e11
# materialClass=concrete-painted
# confidence=source-level-count/proxy-detail
# evidenceIds=source:reference:arcgis-uplb-memoirs,source:osmwiki:uplb-mapping
# notes=Procedural level break; not a measured facade molding.
v -8.798757 0.826000 3.520000
v -3.451808 -9.440462 3.520000
v -3.611454 -9.523609 3.520000
v -8.958403 0.742854 3.520000
v -8.798757 0.826000 3.680000
v -3.451808 -9.440462 3.680000
v -3.611454 -9.523609 3.680000
v -8.958403 0.742854 3.680000
f 119 120 121 122
f 123 126 125 124
f 119 123 124 120
f 120 124 125 121
f 121 125 126 122
f 123 119 122 126
g floor-band-l01-e12
# materialClass=concrete-painted
# confidence=source-level-count/proxy-detail
# evidenceIds=source:reference:arcgis-uplb-memoirs,source:osmwiki:uplb-mapping
# notes=Procedural level break; not a measured facade molding.
v -3.460325 -9.467333 3.520000
v -9.530780 -12.602604 3.520000
v -9.613380 -12.442675 3.520000
v -3.542925 -9.307404 3.520000
v -3.460325 -9.467333 3.680000
v -9.530780 -12.602604 3.680000
v -9.613380 -12.442675 3.680000
v -3.542925 -9.307404 3.680000
f 127 128 129 130
f 131 134 133 132
f 127 131 132 128
f 128 132 133 129
f 129 133 134 130
f 131 127 130 134
g floor-band-l01-e13
# materialClass=concrete-painted
# confidence=source-level-count/proxy-detail
# evidenceIds=source:reference:arcgis-uplb-memoirs,source:osmwiki:uplb-mapping
# notes=Procedural level break; not a measured facade molding.
v -9.547850 -12.656481 3.520000
v -5.552529 -20.323607 3.520000
v -5.712156 -20.406788 3.520000
v -9.707478 -12.739663 3.520000
v -9.547850 -12.656481 3.680000
v -5.552529 -20.323607 3.680000
v -5.712156 -20.406788 3.680000
v -9.707478 -12.739663 3.680000
f 135 136 137 138
f 139 142 141 140
f 135 139 140 136
f 136 140 141 137
f 137 141 142 138
f 139 135 138 142
g floor-band-l01-e14
# materialClass=concrete-painted
# confidence=source-level-count/proxy-detail
# evidenceIds=source:reference:arcgis-uplb-memoirs,source:osmwiki:uplb-mapping
# notes=Procedural level break; not a measured facade molding.
v -5.524779 -20.376812 3.520000
v -1.220736 -28.621652 3.520000
v -1.380303 -28.704950 3.520000
v -5.684345 -20.460110 3.520000
v -5.524779 -20.376812 3.680000
v -1.220736 -28.621652 3.680000
v -1.380303 -28.704950 3.680000
v -5.684345 -20.460110 3.680000
f 143 144 145 146
f 147 150 149 148
f 143 147 148 144
f 144 148 149 145
f 145 149 150 146
f 147 143 146 150
g front-window-f01-b01
# materialClass=painted-metal-glass
# confidence=low-proxy
# evidenceIds=source:reference:arcgis-uplb-memoirs,source:osmwiki:uplb-mapping
# notes=Reference/source-tag-informed facade proxy on provisional front edge; not a measured opening.
v 1.497500 -27.288949 1.800000
v 4.495352 -25.744790 1.800000
v 4.531985 -25.815910 1.800000
v 1.534133 -27.360069 1.800000
v 1.497500 -27.288949 3.150000
v 4.495352 -25.744790 3.150000
v 4.531985 -25.815910 3.150000
v 1.534133 -27.360069 3.150000
f 151 152 153 154
f 155 158 157 156
f 151 155 156 152
f 152 156 157 153
f 153 157 158 154
f 155 151 154 158
g front-window-f01-b02
# materialClass=painted-metal-glass
# confidence=low-proxy
# evidenceIds=source:reference:arcgis-uplb-memoirs,source:osmwiki:uplb-mapping
# notes=Reference/source-tag-informed facade proxy on provisional front edge; not a measured opening.
v 5.780145 -25.083008 1.800000
v 8.777996 -23.538849 1.800000
v 8.814629 -23.609969 1.800000
v 5.816778 -25.154128 1.800000
v 5.780145 -25.083008 3.150000
v 8.777996 -23.538849 3.150000
v 8.814629 -23.609969 3.150000
v 5.816778 -25.154128 3.150000
f 159 160 161 162
f 163 166 165 164
f 159 163 164 160
f 160 164 165 161
f 161 165 166 162
f 163 159 162 166
g front-window-f01-b03
# materialClass=painted-metal-glass
# confidence=low-proxy
# evidenceIds=source:reference:arcgis-uplb-memoirs,source:osmwiki:uplb-mapping
# notes=Reference/source-tag-informed facade proxy on provisional front edge; not a measured opening.
v 10.062790 -22.877067 1.800000
v 13.060641 -21.332908 1.800000
v 13.097274 -21.404028 1.800000
v 10.099423 -22.948186 1.800000
v 10.062790 -22.877067 3.150000
v 13.060641 -21.332908 3.150000
v 13.097274 -21.404028 3.150000
v 10.099423 -22.948186 3.150000
f 167 168 169 170
f 171 174 173 172
f 167 171 172 168
f 168 172 173 169
f 169 173 174 170
f 171 167 170 174
g front-window-f01-b04
# materialClass=painted-metal-glass
# confidence=low-proxy
# evidenceIds=source:reference:arcgis-uplb-memoirs,source:osmwiki:uplb-mapping
# notes=Reference/source-tag-informed facade proxy on provisional front edge; not a measured opening.
v 14.345434 -20.671125 1.800000
v 17.343286 -19.126967 1.800000
v 17.379919 -19.198086 1.800000
v 14.382067 -20.742245 1.800000
v 14.345434 -20.671125 3.150000
v 17.343286 -19.126967 3.150000
v 17.379919 -19.198086 3.150000
v 14.382067 -20.742245 3.150000
f 175 176 177 178
f 179 182 181 180
f 175 179 180 176
f 176 180 181 177
f 177 181 182 178
f 179 175 178 182
g front-window-f01-b05
# materialClass=painted-metal-glass
# confidence=low-proxy
# evidenceIds=source:reference:arcgis-uplb-memoirs,source:osmwiki:uplb-mapping
# notes=Reference/source-tag-informed facade proxy on provisional front edge; not a measured opening.
v 18.628079 -18.465184 1.800000
v 21.625930 -16.921025 1.800000
v 21.662563 -16.992145 1.800000
v 18.664712 -18.536304 1.800000
v 18.628079 -18.465184 3.150000
v 21.625930 -16.921025 3.150000
v 21.662563 -16.992145 3.150000
v 18.664712 -18.536304 3.150000
f 183 184 185 186
f 187 190 189 188
f 183 187 188 184
f 184 188 189 185
f 185 189 190 186
f 187 183 186 190
g front-window-f02-b01
# materialClass=painted-metal-glass
# confidence=low-proxy
# evidenceIds=source:reference:arcgis-uplb-memoirs,source:osmwiki:uplb-mapping
# notes=Reference/source-tag-informed facade proxy on provisional front edge; not a measured opening.
v 1.497500 -27.288949 6.300000
v 4.495352 -25.744790 6.300000
v 4.531985 -25.815910 6.300000
v 1.534133 -27.360069 6.300000
v 1.497500 -27.288949 7.650000
v 4.495352 -25.744790 7.650000
v 4.531985 -25.815910 7.650000
v 1.534133 -27.360069 7.650000
f 191 192 193 194
f 195 198 197 196
f 191 195 196 192
f 192 196 197 193
f 193 197 198 194
f 195 191 194 198
g front-window-f02-b02
# materialClass=painted-metal-glass
# confidence=low-proxy
# evidenceIds=source:reference:arcgis-uplb-memoirs,source:osmwiki:uplb-mapping
# notes=Reference/source-tag-informed facade proxy on provisional front edge; not a measured opening.
v 5.780145 -25.083008 6.300000
v 8.777996 -23.538849 6.300000
v 8.814629 -23.609969 6.300000
v 5.816778 -25.154128 6.300000
v 5.780145 -25.083008 7.650000
v 8.777996 -23.538849 7.650000
v 8.814629 -23.609969 7.650000
v 5.816778 -25.154128 7.650000
f 199 200 201 202
f 203 206 205 204
f 199 203 204 200
f 200 204 205 201
f 201 205 206 202
f 203 199 202 206
g front-window-f02-b03
# materialClass=painted-metal-glass
# confidence=low-proxy
# evidenceIds=source:reference:arcgis-uplb-memoirs,source:osmwiki:uplb-mapping
# notes=Reference/source-tag-informed facade proxy on provisional front edge; not a measured opening.
v 10.062790 -22.877067 6.300000
v 13.060641 -21.332908 6.300000
v 13.097274 -21.404028 6.300000
v 10.099423 -22.948186 6.300000
v 10.062790 -22.877067 7.650000
v 13.060641 -21.332908 7.650000
v 13.097274 -21.404028 7.650000
v 10.099423 -22.948186 7.650000
f 207 208 209 210
f 211 214 213 212
f 207 211 212 208
f 208 212 213 209
f 209 213 214 210
f 211 207 210 214
g front-window-f02-b04
# materialClass=painted-metal-glass
# confidence=low-proxy
# evidenceIds=source:reference:arcgis-uplb-memoirs,source:osmwiki:uplb-mapping
# notes=Reference/source-tag-informed facade proxy on provisional front edge; not a measured opening.
v 14.345434 -20.671125 6.300000
v 17.343286 -19.126967 6.300000
v 17.379919 -19.198086 6.300000
v 14.382067 -20.742245 6.300000
v 14.345434 -20.671125 7.650000
v 17.343286 -19.126967 7.650000
v 17.379919 -19.198086 7.650000
v 14.382067 -20.742245 7.650000
f 215 216 217 218
f 219 222 221 220
f 215 219 220 216
f 216 220 221 217
f 217 221 222 218
f 219 215 218 222
g front-window-f02-b05
# materialClass=painted-metal-glass
# confidence=low-proxy
# evidenceIds=source:reference:arcgis-uplb-memoirs,source:osmwiki:uplb-mapping
# notes=Reference/source-tag-informed facade proxy on provisional front edge; not a measured opening.
v 18.628079 -18.465184 6.300000
v 21.625930 -16.921025 6.300000
v 21.662563 -16.992145 6.300000
v 18.664712 -18.536304 6.300000
v 18.628079 -18.465184 7.650000
v 21.625930 -16.921025 7.650000
v 21.662563 -16.992145 7.650000
v 18.664712 -18.536304 7.650000
f 223 224 225 226
f 227 230 229 228
f 223 227 228 224
f 224 228 229 225
f 225 229 230 226
f 227 223 226 230
