# Generated by tools.modeling.assembly
# featureId=uplb:building:cas-annex-2
# version=cas-annex-2.v0.1-reference-production
# identityStatus=proposed-candidate
# sourceFeatureId=candidate:osm:way/486667196
o uplb_building_cas-annex-2
g body-source-footprint
# materialClass=concrete-painted
# confidence=source-supported-footprint/medium-height
# evidenceIds=source:legacy:uplb-virtual-campus-2014,source:reference:arcgis-uplb-memoirs
# notes=Footprint comes from the pinned project candidate snapshot. Production ID is not a canonical promotion.
v -28.444221 -8.202136 0.000000
v -28.018623 -9.035200 0.000000
v -28.018623 -9.035200 7.200000
v -28.444221 -8.202136 7.200000
v -23.220042 -18.432156 0.000000
v -23.220042 -18.432156 7.200000
v -21.677343 -21.464464 0.000000
v -21.677343 -21.464464 7.200000
v 0.019233 -10.529372 0.000000
v 0.019233 -10.529372 7.200000
v 3.584767 -8.730449 0.000000
v 3.584767 -8.730449 7.200000
v 8.819253 -6.092066 0.000000
v 8.819253 -6.092066 7.200000
v 30.483330 4.832227 0.000000
v 30.483330 4.832227 7.200000
v 24.482429 16.583960 0.000000
v 24.482429 16.583960 7.200000
v 23.769583 17.983491 0.000000
v 23.769583 17.983491 7.200000
v 3.362646 7.691524 0.000000
v 3.362646 7.691524 7.200000
v -1.787129 17.766072 0.000000
v -1.787129 17.766072 7.200000
v -14.206820 11.508127 0.000000
v -14.206820 11.508127 7.200000
v -9.121075 1.533641 0.000000
v -9.121075 1.533641 7.200000
v -11.635342 0.269003 0.000000
v -11.635342 0.269003 7.200000
f 1 2 3 4
f 2 5 6 3
f 5 7 8 6
f 7 9 10 8
f 9 11 12 10
f 11 13 14 12
f 13 15 16 14
f 15 17 18 16
f 17 19 20 18
f 19 21 22 20
f 21 23 24 22
f 23 25 26 24
f 25 27 28 26
f 27 29 30 28
f 29 1 4 30
f 11 27 9
f 10 28 12
f 23 25 27
f 28 26 24
f 17 19 21
f 22 20 18
f 13 15 21
f 22 16 14
f 7 9 5
f 6 10 8
f 1 2 29
f 30 3 4
f 21 23 27
f 28 24 22
f 17 21 15
f 16 22 18
f 5 9 29
f 30 10 6
f 2 5 29
f 30 6 3
f 13 21 11
f 12 22 14
f 29 9 27
f 28 10 30
f 27 11 21
f 22 12 28
g floor-band-l01-e01
# materialClass=concrete-painted
# confidence=source-level-count/proxy-detail
# evidenceIds=source:legacy:uplb-virtual-campus-2014,source:reference:arcgis-uplb-memoirs
# notes=Procedural level break; not a measured facade molding.
v -28.013886 -9.066466 3.520000
v -23.242591 -18.409986 3.520000
v -23.402899 -18.491848 3.520000
v -28.174194 -9.148328 3.520000
v -28.013886 -9.066466 3.680000
v -23.242591 -18.409986 3.680000
v -23.402899 -18.491848 3.680000
v -28.174194 -9.148328 3.680000
f 31 32 33 34
f 35 38 37 36
f 31 35 36 32
f 32 36 37 33
f 33 37 38 34
f 35 31 34 38
g floor-band-l01-e02
# materialClass=concrete-painted
# confidence=source-level-count/proxy-detail
# evidenceIds=source:legacy:uplb-virtual-campus-2014,source:reference:arcgis-uplb-memoirs
# notes=Procedural level break; not a measured facade molding.
v -23.215351 -18.463429 3.520000
v -21.699859 -21.442260 3.520000
v -21.860290 -21.523880 3.520000
v -23.375782 -18.545049 3.520000
v -23.215351 -18.463429 3.680000
v -21.699859 -21.442260 3.680000
v -21.860290 -21.523880 3.680000
v -23.375782 -18.545049 3.680000
f 39 40 41 42
f 43 46 45 44
f 39 43 44 40
f 40 44 45 41
f 41 45 46 42
f 43 39 42 46
g floor-band-l01-e03
# materialClass=concrete-painted
# confidence=source-level-count/proxy-detail
# evidenceIds=source:legacy:uplb-virtual-campus-2014,source:reference:arcgis-uplb-memoirs
# notes=Procedural level break; not a measured facade molding.
v -21.646053 -21.459892 3.520000
v -0.003056 -10.551804 3.520000
v 0.077956 -10.712543 3.520000
v -21.565040 -21.620630 3.520000
v -21.646053 -21.459892 3.680000
v -0.003056 -10.551804 3.680000
v 0.077956 -10.712543 3.680000
v -21.565040 -21.620630 3.680000
f 47 48 49 50
f 51 54 53 52
f 47 51 52 48
f 48 52 53 49
f 49 53 54 50
f 51 47 50 54
g floor-band-l01-e04
# materialClass=concrete-painted
# confidence=source-level-count/proxy-detail
# evidenceIds=source:legacy:uplb-virtual-campus-2014,source:reference:arcgis-uplb-memoirs
# notes=Procedural level break; not a measured facade molding.
v 0.050522 -10.524787 3.520000
v 3.562487 -8.752891 3.520000
v 3.643567 -8.913595 3.520000
v 0.131602 -10.685491 3.520000
v 0.050522 -10.524787 3.680000
v 3.562487 -8.752891 3.680000
v 3.643567 -8.913595 3.680000
v 0.131602 -10.685491 3.680000
f 55 56 57 58
f 59 62 61 60
f 55 59 60 56
f 56 60 61 57
f 57 61 62 58
f 59 55 58 62
g floor-band-l01-e05
# materialClass=concrete-painted
# confidence=source-level-count/proxy-detail
# evidenceIds=source:legacy:uplb-virtual-campus-2014,source:reference:arcgis-uplb-memoirs
# notes=Procedural level break; not a measured facade molding.
v 3.616057 -8.725876 3.520000
v 8.796964 -6.114499 3.520000
v 8.877982 -6.275235 3.520000
v 3.697074 -8.886613 3.520000
v 3.616057 -8.725876 3.680000
v 8.796964 -6.114499 3.680000
v 8.877982 -6.275235 3.680000
v 3.697074 -8.886613 3.680000
f 63 64 65 66
f 67 70 69 68
f 63 67 68 64
f 64 68 69 65
f 65 69 70 66
f 67 63 66 70
g floor-band-l01-e06
# materialClass=concrete-painted
# confidence=source-level-count/proxy-detail
# evidenceIds=source:legacy:uplb-virtual-campus-2014,source:reference:arcgis-uplb-memoirs
# notes=Procedural level break; not a measured facade molding.
v 8.850542 -6.087488 3.520000
v 30.461045 4.809791 3.520000
v 30.542091 4.649069 3.520000
v 8.931588 -6.248210 3.520000
v 8.850542 -6.087488 3.680000
v 30.461045 4.809791 3.680000
v 30.542091 4.649069 3.680000
v 8.931588 -6.248210 3.680000
f 71 72 73 74
f 75 78 77 76
f 71 75 76 72
f 72 76 77 73
f 73 77 78 74
f 75 71 74 78
g floor-band-l01-e07
# materialClass=concrete-painted
# confidence=source-level-count/proxy-detail
# evidenceIds=source:legacy:uplb-virtual-campus-2014,source:reference:arcgis-uplb-memoirs
# notes=Procedural level break; not a measured facade molding.
v 30.478592 4.863493 3.520000
v 24.504979 16.561790 3.520000
v 24.665288 16.643650 3.520000
v 30.638901 4.945353 3.520000
v 30.478592 4.863493 3.680000
v 24.504979 16.561790 3.680000
v 24.665288 16.643650 3.680000
v 30.638901 4.945353 3.680000
f 79 80 81 82
f 83 86 85 84
f 79 83 84 80
f 80 84 85 81
f 81 85 86 82
f 83 79 82 86
g floor-band-l01-e08
# materialClass=concrete-painted
# confidence=source-level-count/proxy-detail
# evidenceIds=source:legacy:uplb-virtual-campus-2014,source:reference:arcgis-uplb-memoirs
# notes=Procedural level break; not a measured facade molding.
v 24.477724 16.615231 3.520000
v 23.792110 17.961298 3.520000
v 23.952503 18.042993 3.520000
v 24.638117 16.696926 3.520000
v 24.477724 16.615231 3.680000
v 23.792110 17.961298 3.680000
v 23.952503 18.042993 3.680000
v 24.638117 16.696926 3.680000
f 87 88 89 90
f 91 94 93 92
f 87 91 92 88
f 88 92 93 89
f 89 93 94 90
f 91 87 90 94
g floor-band-l01-e09
# materialClass=concrete-painted
# confidence=source-level-count/proxy-detail
# evidenceIds=source:legacy:uplb-virtual-campus-2014,source:reference:arcgis-uplb-memoirs
# notes=Procedural level break; not a measured facade molding.
v 23.738294 17.978911 3.520000
v 3.384930 7.713962 3.520000
v 3.303874 7.874679 3.520000
v 23.657238 18.139628 3.520000
v 23.738294 17.978911 3.680000
v 3.384930 7.713962 3.680000
v 3.303874 7.874679 3.680000
v 23.657238 18.139628 3.680000
f 95 96 97 98
f 99 102 101 100
f 95 99 100 96
f 96 100 101 97
f 97 101 102 98
f 99 95 98 102
g floor-band-l01-e10
# materialClass=concrete-painted
# confidence=source-level-count/proxy-detail
# evidenceIds=source:legacy:uplb-virtual-campus-2014,source:reference:arcgis-uplb-memoirs
# notes=Procedural level break; not a measured facade molding.
v 3.357896 7.722788 3.520000
v -1.764570 17.743911 3.520000
v -1.604296 17.825838 3.520000
v 3.518171 7.804715 3.520000
v 3.357896 7.722788 3.680000
v -1.764570 17.743911 3.680000
v -1.604296 17.825838 3.680000
v 3.518171 7.804715 3.680000
f 103 104 105 106
f 107 110 109 108
f 103 107 108 104
f 104 108 109 105
f 105 109 110 106
f 107 103 106 110
g floor-band-l01-e11
# materialClass=concrete-painted
# confidence=source-level-count/proxy-detail
# evidenceIds=source:legacy:uplb-virtual-campus-2014,source:reference:arcgis-uplb-memoirs
# notes=Procedural level break; not a measured facade molding.
v -1.818420 17.761503 3.520000
v -14.184529 11.530557 3.520000
v -14.265525 11.691304 3.520000
v -1.899416 17.922250 3.520000
v -1.818420 17.761503 3.680000
v -14.184529 11.530557 3.680000
v -14.265525 11.691304 3.680000
v -1.899416 17.922250 3.680000
f 111 112 113 114
f 115 118 117 116
f 111 115 116 112
f 112 116 117 113
f 113 117 118 114
f 115 111 114 118
g floor-band-l01-e12
# materialClass=concrete-painted
# confidence=source-level-count/proxy-detail
# evidenceIds=source:legacy:uplb-virtual-campus-2014,source:reference:arcgis-uplb-memoirs
# notes=Procedural level break; not a measured facade molding.
v -14.202102 11.476858 3.520000
v -9.143611 1.555826 3.520000
v -9.303969 1.474063 3.520000
v -14.362461 11.395095 3.520000
v -14.202102 11.476858 3.680000
v -9.143611 1.555826 3.680000
v -9.303969 1.474063 3.680000
v -14.362461 11.395095 3.680000
f 119 120 121 122
f 123 126 125 124
f 119 123 124 120
f 120 124 125 121
f 121 125 126 122
f 123 119 122 126
g floor-band-l01-e13
# materialClass=concrete-painted
# confidence=source-level-count/proxy-detail
# evidenceIds=source:legacy:uplb-virtual-campus-2014,source:reference:arcgis-uplb-memoirs
# notes=Procedural level break; not a measured facade molding.
v -9.152369 1.529095 3.520000
v -11.613035 0.291417 3.520000
v -11.693917 0.452221 3.520000
v -9.233251 1.689899 3.520000
v -9.152369 1.529095 3.680000
v -11.613035 0.291417 3.680000
v -11.693917 0.452221 3.680000
v -9.233251 1.689899 3.680000
f 127 128 129 130
f 131 134 133 132
f 127 131 132 128
f 128 132 133 129
f 129 133 134 130
f 131 127 130 134
g floor-band-l01-e14
# materialClass=concrete-painted
# confidence=source-level-count/proxy-detail
# evidenceIds=source:legacy:uplb-virtual-campus-2014,source:reference:arcgis-uplb-memoirs
# notes=Procedural level break; not a measured facade molding.
v -11.666633 0.264431 3.520000
v -28.421931 -8.179704 3.520000
v -28.502939 -8.018963 3.520000
v -11.747641 0.425172 3.520000
v -11.666633 0.264431 3.680000
v -28.421931 -8.179704 3.680000
v -28.502939 -8.018963 3.680000
v -11.747641 0.425172 3.680000
f 135 136 137 138
f 139 142 141 140
f 135 139 140 136
f 136 140 141 137
f 137 141 142 138
f 139 135 138 142
g front-window-f01-b01
# materialClass=painted-metal-glass
# confidence=low-medium-proxy
# evidenceIds=source:legacy:uplb-virtual-campus-2014,source:reference:arcgis-uplb-memoirs
# notes=Reference/source-tag-informed facade proxy on provisional front edge; not a measured opening.
v -19.502862 -20.402118 1.305000
v -17.315847 -19.299861 1.305000
v -17.279842 -19.371301 1.305000
v -19.466856 -20.473558 1.305000
v -19.502862 -20.402118 2.655000
v -17.315847 -19.299861 2.655000
v -17.279842 -19.371301 2.655000
v -19.466856 -20.473558 2.655000
f 143 144 145 146
f 147 150 149 148
f 143 147 148 144
f 144 148 149 145
f 145 149 150 146
f 147 143 146 150
g front-window-f01-b02
# materialClass=painted-metal-glass
# confidence=low-medium-proxy
# evidenceIds=source:legacy:uplb-virtual-campus-2014,source:reference:arcgis-uplb-memoirs
# notes=Reference/source-tag-informed facade proxy on provisional front edge; not a measured opening.
v -16.465341 -18.871206 1.305000
v -14.278326 -17.768948 1.305000
v -14.242321 -17.840388 1.305000
v -16.429336 -18.942645 1.305000
v -16.465341 -18.871206 2.655000
v -14.278326 -17.768948 2.655000
v -14.242321 -17.840388 2.655000
v -16.429336 -18.942645 2.655000
f 151 152 153 154
f 155 158 157 156
f 151 155 156 152
f 152 156 157 153
f 153 157 158 154
f 155 151 154 158
g front-window-f01-b03
# materialClass=painted-metal-glass
# confidence=low-medium-proxy
# evidenceIds=source:legacy:uplb-virtual-campus-2014,source:reference:arcgis-uplb-memoirs
# notes=Reference/source-tag-informed facade proxy on provisional front edge; not a measured opening.
v -13.427821 -17.340293 1.305000
v -11.240806 -16.238035 1.305000
v -11.204800 -16.309475 1.305000
v -13.391815 -17.411732 1.305000
v -13.427821 -17.340293 2.655000
v -11.240806 -16.238035 2.655000
v -11.204800 -16.309475 2.655000
v -13.391815 -17.411732 2.655000
f 159 160 161 162
f 163 166 165 164
f 159 163 164 160
f 160 164 165 161
f 161 165 166 162
f 163 159 162 166
g front-window-f01-b04
# materialClass=painted-metal-glass
# confidence=low-medium-proxy
# evidenceIds=source:legacy:uplb-virtual-campus-2014,source:reference:arcgis-uplb-memoirs
# notes=Reference/source-tag-informed facade proxy on provisional front edge; not a measured opening.
v -10.390300 -15.809380 1.305000
v -8.203285 -14.707123 1.305000
v -8.167280 -14.778562 1.305000
v -10.354294 -15.880819 1.305000
v -10.390300 -15.809380 2.655000
v -8.203285 -14.707123 2.655000
v -8.167280 -14.778562 2.655000
v -10.354294 -15.880819 2.655000
f 167 168 169 170
f 171 174 173 172
f 167 171 172 168
f 168 172 173 169
f 169 173 174 170
f 171 167 170 174
g front-window-f01-b05
# materialClass=painted-metal-glass
# confidence=low-medium-proxy
# evidenceIds=source:legacy:uplb-virtual-campus-2014,source:reference:arcgis-uplb-memoirs
# notes=Reference/source-tag-informed facade proxy on provisional front edge; not a measured opening.
v -7.352779 -14.278467 1.305000
v -5.165764 -13.176210 1.305000
v -5.129759 -13.247649 1.305000
v -7.316774 -14.349907 1.305000
v -7.352779 -14.278467 2.655000
v -5.165764 -13.176210 2.655000
v -5.129759 -13.247649 2.655000
v -7.316774 -14.349907 2.655000
f 175 176 177 178
f 179 182 181 180
f 175 179 180 176
f 176 180 181 177
f 177 181 182 178
f 179 175 178 182
g front-window-f01-b06
# materialClass=painted-metal-glass
# confidence=low-medium-proxy
# evidenceIds=source:legacy:uplb-virtual-campus-2014,source:reference:arcgis-uplb-memoirs
# notes=Reference/source-tag-informed facade proxy on provisional front edge; not a measured opening.
v -4.315259 -12.747554 1.305000
v -2.128244 -11.645297 1.305000
v -2.092238 -11.716737 1.305000
v -4.279253 -12.818994 1.305000
v -4.315259 -12.747554 2.655000
v -2.128244 -11.645297 2.655000
v -2.092238 -11.716737 2.655000
v -4.279253 -12.818994 2.655000
f 183 184 185 186
f 187 190 189 188
f 183 187 188 184
f 184 188 189 185
f 185 189 190 186
f 187 183 186 190
g front-window-f02-b01
# materialClass=painted-metal-glass
# confidence=low-medium-proxy
# evidenceIds=source:legacy:uplb-virtual-campus-2014,source:reference:arcgis-uplb-memoirs
# notes=Reference/source-tag-informed facade proxy on provisional front edge; not a measured opening.
v -19.502862 -20.402118 4.905000
v -17.315847 -19.299861 4.905000
v -17.279842 -19.371301 4.905000
v -19.466856 -20.473558 4.905000
v -19.502862 -20.402118 6.255000
v -17.315847 -19.299861 6.255000
v -17.279842 -19.371301 6.255000
v -19.466856 -20.473558 6.255000
f 191 192 193 194
f 195 198 197 196
f 191 195 196 192
f 192 196 197 193
f 193 197 198 194
f 195 191 194 198
g front-window-f02-b02
# materialClass=painted-metal-glass
# confidence=low-medium-proxy
# evidenceIds=source:legacy:uplb-virtual-campus-2014,source:reference:arcgis-uplb-memoirs
# notes=Reference/source-tag-informed facade proxy on provisional front edge; not a measured opening.
v -16.465341 -18.871206 4.905000
v -14.278326 -17.768948 4.905000
v -14.242321 -17.840388 4.905000
v -16.429336 -18.942645 4.905000
v -16.465341 -18.871206 6.255000
v -14.278326 -17.768948 6.255000
v -14.242321 -17.840388 6.255000
v -16.429336 -18.942645 6.255000
f 199 200 201 202
f 203 206 205 204
f 199 203 204 200
f 200 204 205 201
f 201 205 206 202
f 203 199 202 206
g front-window-f02-b03
# materialClass=painted-metal-glass
# confidence=low-medium-proxy
# evidenceIds=source:legacy:uplb-virtual-campus-2014,source:reference:arcgis-uplb-memoirs
# notes=Reference/source-tag-informed facade proxy on provisional front edge; not a measured opening.
v -13.427821 -17.340293 4.905000
v -11.240806 -16.238035 4.905000
v -11.204800 -16.309475 4.905000
v -13.391815 -17.411732 4.905000
v -13.427821 -17.340293 6.255000
v -11.240806 -16.238035 6.255000
v -11.204800 -16.309475 6.255000
v -13.391815 -17.411732 6.255000
f 207 208 209 210
f 211 214 213 212
f 207 211 212 208
f 208 212 213 209
f 209 213 214 210
f 211 207 210 214
g front-window-f02-b04
# materialClass=painted-metal-glass
# confidence=low-medium-proxy
# evidenceIds=source:legacy:uplb-virtual-campus-2014,source:reference:arcgis-uplb-memoirs
# notes=Reference/source-tag-informed facade proxy on provisional front edge; not a measured opening.
v -10.390300 -15.809380 4.905000
v -8.203285 -14.707123 4.905000
v -8.167280 -14.778562 4.905000
v -10.354294 -15.880819 4.905000
v -10.390300 -15.809380 6.255000
v -8.203285 -14.707123 6.255000
v -8.167280 -14.778562 6.255000
v -10.354294 -15.880819 6.255000
f 215 216 217 218
f 219 222 221 220
f 215 219 220 216
f 216 220 221 217
f 217 221 222 218
f 219 215 218 222
g front-window-f02-b05
# materialClass=painted-metal-glass
# confidence=low-medium-proxy
# evidenceIds=source:legacy:uplb-virtual-campus-2014,source:reference:arcgis-uplb-memoirs
# notes=Reference/source-tag-informed facade proxy on provisional front edge; not a measured opening.
v -7.352779 -14.278467 4.905000
v -5.165764 -13.176210 4.905000
v -5.129759 -13.247649 4.905000
v -7.316774 -14.349907 4.905000
v -7.352779 -14.278467 6.255000
v -5.165764 -13.176210 6.255000
v -5.129759 -13.247649 6.255000
v -7.316774 -14.349907 6.255000
f 223 224 225 226
f 227 230 229 228
f 223 227 228 224
f 224 228 229 225
f 225 229 230 226
f 227 223 226 230
g front-window-f02-b06
# materialClass=painted-metal-glass
# confidence=low-medium-proxy
# evidenceIds=source:legacy:uplb-virtual-campus-2014,source:reference:arcgis-uplb-memoirs
# notes=Reference/source-tag-informed facade proxy on provisional front edge; not a measured opening.
v -4.315259 -12.747554 4.905000
v -2.128244 -11.645297 4.905000
v -2.092238 -11.716737 4.905000
v -4.279253 -12.818994 4.905000
v -4.315259 -12.747554 6.255000
v -2.128244 -11.645297 6.255000
v -2.092238 -11.716737 6.255000
v -4.279253 -12.818994 6.255000
f 231 232 233 234
f 235 238 237 236
f 231 235 236 232
f 232 236 237 233
f 233 237 238 234
f 235 231 234 238
